<svg xmlns="http://www.w3.org/2000/svg" viewBox="2.5 14 95 72.1" height="40" width="40"><g fill="#23036a"><path d="M8.3 19.9h70.5v11h5.9V17.7c0-2-1.7-3.7-3.7-3.7H6.2c-2 0-3.7 1.7-3.7 3.7v50.7c0 2 1.6 3.7 3.7 3.7h30.1v6.7h-6.6c-1 0-1.8.8-1.8 1.8v3.5c0 1 .8 1.8 1.8 1.8h28c1 0 1.8-.8 1.8-1.8v-3.5c0-1-.8-1.8-1.8-1.8H51v-6.7h13.8V59.2H8.3V19.9zM43.6 63c1.4 0 2.6 1.2 2.6 2.6 0 1.4-1.2 2.6-2.6 2.6-1.4 0-2.6-1.2-2.6-2.6 0-1.4 1.2-2.6 2.6-2.6z"/><path d="M93.5 35.1H72.9c-2.2 0-3.9 1.8-3.9 4v43c0 2.2 1.8 4 3.9 4h20.6c2.2 0 4-1.8 4-4V39c0-2.2-1.8-3.9-4-3.9zM79.9 38h6.5c.5 0 .9.4.9.9s-.4.9-.9.9h-6.5c-.5 0-.9-.4-.9-.9s.4-.9.9-.9zm3.3 45.1c-1.4 0-2.6-1.2-2.6-2.6 0-1.4 1.2-2.6 2.6-2.6 1.4 0 2.6 1.2 2.6 2.6 0 1.4-1.2 2.6-2.6 2.6zm10-8.1h-20V42.7h20.1V75z"/></g></svg>