<?xml version="1.0" encoding="utf-8"?><svg width="274" height="274" viewBox="0 0 274 274" xmlns="http://www.w3.org/2000/svg" xmlns:xlink="http://www.w3.org/1999/xlink"><svg viewBox="17.57 4 64.86 92" height="18" width="18" id="100--other-location" x="194" y="252" xmlns="http://www.w3.org/2000/svg"><path fill="#dbb2ff" d="M51.542 94.324c6.317-6.818 29.89-33.87 29.89-57.892a31.432 31.432 0 0 0-62.864 0c0 24.023 23.573 51.074 29.89 57.892a2.097 2.097 0 0 0 3.084 0zM33.618 36.432A16.382 16.382 0 1 1 50 52.814a16.382 16.382 0 0 1-16.382-16.382z"/></svg><svg viewBox="4 8.44 92 83.11" height="22" width="22" id="100--section-briefcase" x="252" xmlns="http://www.w3.org/2000/svg"><g fill="#dbb2ff"><path d="M23.881 51.85h52.237c12.803 0 17.893-3.254 18.881-12.961v-6.707c0-5.422-2.13-7.552-7.552-7.552H12.552C7.13 24.628 5 26.758 5 32.181v6.707c.988 9.707 6.077 12.962 18.881 12.962z"/><path d="M76.119 55.625H58.557V68.96c0 2.033-.799 2.832-2.834 2.832H44.277c-2.034 0-2.833-.799-2.833-2.832V55.625H23.881c-8.321 0-14.95-1.307-18.881-6.181v33.559c0 5.423 2.13 7.552 7.552 7.552h74.896c5.422 0 7.552-2.129 7.552-7.552V49.445c-3.932 4.873-10.561 6.18-18.881 6.18z"/><path d="M46.165 55.625c-.677 0-.944.268-.944.943V67.07c0 .679.267.945.944.945h7.671c.678 0 .943-.267.943-.943V56.568c0-.678-.266-.943-.943-.943h-7.671zm.25-40.989h7.173c6.205 0 6.688.955 6.688 7.16h6.607c0-11.636-.715-12.352-12.351-12.352H45.47c-11.636 0-12.352.716-12.352 12.352h6.609c0-6.205.482-7.16 6.688-7.16z"/></g></svg><svg viewBox="24.48 69.5 285.69 214.93" height="22" width="22" shape-rendering="geometricPrecision" image-rendering="optimizeQuality" id="100--section-telephone" x="252" y="198" xmlns="http://www.w3.org/2000/svg"><path fill="#dbb2ff" d="M235 127zm-67 18c57 0 57 70 0 70s-57-70 0-70zm26 15c-34-26-85 13-52 40 34 27 85-13 52-40zm77 104c-14-75 9-8-27-74-8-13-13 14-22-31-3-22-15-29-15-29l21-26c33 6-11 28 13 43 0 0 57 24 64 10 5-10 8-38-6-49-70-50-194-50-263 0-15 11-11 39-6 49 6 12 71-6 71-20 0-16-20-28 5-33l22 26c-18 10-18 55-24 56-2 0-10-1-13 4-37 66-13 1-27 74-1 4 2 10 7 11-2 9 32 11 33 5l63-1h1l63 1c1 6 35 4 32-5 5-1 8-7 8-11zm-69-163c-7 10-22 9-34 8h-1c-12 1-28 2-34-8h69zm33 26zm-135 0zm0 0z"/></svg><svg version="1" viewBox="-1 -1 102 83.1" height="22" width="22" id="100--section-tools" y="252" xmlns="http://www.w3.org/2000/svg"><path fill="#dbb2ff" d="M78.952 66.572c3.225 3.225 3.225 8.385-.13 11.739-3.225 3.225-8.514 3.225-11.867 0l-20.641-22.06-19.35 23.35c-1.806 1.935-5.16 2.063-6.966 0l-4.902-5.031a4.949 4.949 0 0 1-.129-7.096l22.317-20.769-10.707-10.19c-3.612-3.354-5.676-4.386-8.514-3.483-2.838 1.032-6.837 1.032-10.578-1.419C-.384 26.582.003 16.778.003 16.778l.645-1.032 8.127 5.289s5.031 3.096 8.901-2.838c4.386-6.966-.516-9.804-.516-9.804l-8.127-5.16.774-1.033s7.482-4.773 16.254.258c5.418 3.225 8.127 9.546 6.708 15.738-.774 3.741 0 5.031 2.967 8.256l10.836 10.707L59.215 24.13l9.546 9.546-12.643 12.513 22.834 20.383zM91.98 26.969c1.549-1.548 4.129-1.29 5.548.129l1.419 1.419c1.548 1.548 1.29 3.87-.129 5.289l-7.74 7.74c-1.548 1.548-3.87 1.677-5.418.129l-1.419-1.419a3.892 3.892 0 0 1 0-5.547c.258-.903-.517-2.58-2.064-4.129-3.225-3.225-6.966-3.354-8.772-1.677l-2.58 2.709-9.417-9.675 2.709-2.58c2.968-3.096-.387-6.321-.387-6.321-8.256-8.256-19.867-7.998-19.867-7.998l-.129-3.096C67.342-4.25 76.243 6.07 79.468 9.166l6.837 6.837c1.677 1.806-.129 6.708 2.322 9.288 1.032 1.161 2.322 1.549 3.353 1.678zM73.018 76.763c2.451 0 4.386-1.935 4.386-4.386s-1.935-4.386-4.386-4.386-4.386 1.935-4.386 4.386 1.934 4.386 4.386 4.386z"/></svg><svg viewBox="12.73 3.95 74.54 91.7" height="22" width="22" id="100--section-user3" x="22" y="252" xmlns="http://www.w3.org/2000/svg"><path fill="#dbb2ff" d="M80.93 48.668s-.703-10.167-1.27-12.576c-.051-.22-.111-.438-.169-.655 4.115-3.09 6.777-8.01 6.777-13.552 0-9.354-7.584-16.937-16.938-16.937-5.218 0-9.884 2.362-12.991 6.073-2.227-3.251-5.965-5.387-10.203-5.387v7.271a27.615 27.615 0 0 0-4.869-.438c-15.205 0-27.535 12.329-27.535 27.536 0 8.615 3.961 16.305 10.157 21.354h-4.303c0 1.266.192 2.484.546 3.635H16.61c0 9.352 7.585 16.938 16.938 16.938 1.445 0 2.849-.184 4.188-.523v7.045l25.314 6.195V80.061s5.441.803 7.27.916c6.273.393 11.386-3.266 11.386-9.559v-8.07s4.271-2.198 4.271-3.481c0-.324-.151-.635-.269-.908L80.93 48.668z"/></svg><svg viewBox="-0.37 -0.61 92.21 92.32" height="42" width="42" id="100--skills-branding-design" x="84" y="42" xmlns="http://www.w3.org/2000/svg"><g fill="#dbb2ff"><path d="M88.266 18.375a8.75 8.75 0 0 0 2.574-6.293 8.922 8.922 0 0 0-2.639-6.295L85.438 3.03A8.915 8.915 0 0 0 79.092.391a8.74 8.74 0 0 0-6.232 2.578L45.934 29.893l-2.848-2.846-.01-.014-.016-.012-7.46-7.46-.016-.02c-.004-.006-.012-.008-.018-.014l-9.354-9.354c-.008-.008-.012-.016-.018-.023a.461.461 0 0 1-.023-.018l-8.924-8.924a2.1 2.1 0 0 0-2.969 0L1.242 14.247a2.1 2.1 0 0 0 0 2.969l28.684 28.683-24.42 24.418a2.097 2.097 0 0 0-.615 1.484c0 .172.027.34.068.504L.924 87.954a2.098 2.098 0 0 0 2.034 2.625c.184 0 .369-.023.551-.074l15.504-4.209a2.093 2.093 0 0 0 1.906-.57l24.416-24.419 28.787 28.784c.41.41.947.615 1.484.615s1.074-.205 1.484-.615l13.037-13.037a2.101 2.101 0 0 0 0-2.968l-7.588-7.588-.006-.008a.035.035 0 0 0-.01-.008l-9.371-9.37-.01-.012-.014-.012-8.314-8.313-.033-.043c-.014-.014-.031-.021-.045-.035l-3.396-3.396 26.926-26.926zM19.432 81.271l-7.564-7.563-1.906-1.906 59.754-59.749 9.465 9.469-59.749 59.749zM75.83 5.936c1.756-1.758 4.844-1.732 6.639.064l2.764 2.758c.9.898 1.4 2.09 1.408 3.35a4.587 4.587 0 0 1-1.346 3.299l-3.145 3.146-9.467-9.471 3.147-3.146zM5.697 15.731L15.764 5.665l5.973 5.973-3.563 3.559a2.105 2.105 0 0 0 0 2.971c.41.41.947.615 1.486.615.537 0 1.074-.205 1.484-.615l3.563-3.559 6.422 6.42-6.332 6.33a2.1 2.1 0 1 0 2.97 2.969l6.33-6.33 4.523 4.523-3.563 3.561a2.1 2.1 0 0 0 2.968 2.969l3.563-3.561 1.375 1.373L32.896 42.93 5.697 15.731zm.196 69.776l2.426-9.406 4.652 4.65L15.2 82.98l-9.307 2.527zM60.32 50.221l-3.561 3.559a2.102 2.102 0 0 0 2.97 2.971l3.561-3.561 5.395 5.396-6.33 6.327a2.102 2.102 0 0 0 1.484 3.586c.537 0 1.074-.205 1.484-.615l6.332-6.329 6.422 6.421-3.564 3.563a2.102 2.102 0 0 0 2.97 2.971l3.563-3.564 4.625 4.625-10.066 10.065-27.3-27.298 10.066-10.066 1.949 1.949z"/><path d="M70.891 20.34a2.1 2.1 0 0 0-2.969 0L20.875 67.388a2.1 2.1 0 0 0 2.968 2.969L70.89 23.312a2.102 2.102 0 0 0 .001-2.972z"/></g></svg><svg viewBox="12.48 -1 75.03 102" height="42" width="42" id="100--skills-intuitive-brainbulb" y="84" xmlns="http://www.w3.org/2000/svg"><g fill="#dbb2ff"><path d="M77.033 78.783c-1.867-2.403-2.25-7.876-2.135-10.275.178-3.737 9.388-22.813 10.007-30.156.667-7.917-1.022-21.706-11.608-30.156C63.883.681 39.671-7.283 23.66 12.065c-3.491 4.219-6.383 8.63-6.538 11.432-.178 3.202-.4 15.923.266 16.857.668.934 2.002 2.269 2.002 3.469s-4.937 9.874-5.604 11.076c-.667 1.199-.133 3.202.667 3.868.801.667 4.77 1.402 4.904 2.203.134.8-.234 3.001-.767 3.935-.534.935 2.301 2.369 2.969 3.037.667.666-.734.8-1.101 2.167-.104.387.934 1.469 1.334 2.669.33.988-.074 3.382-.467 6.472-.3 2.368 2.547 4.354 4.637 5.07 1.167.401 10.241-.199 10.908-.867.668-.667 4.635 9.598 6.139 16.412.086.392 16.195.02 24.519-2.258 6.596-1.806 19.382-9.884 18.98-11.886-.402-2.001-7.607-4.536-9.475-6.938zm-2.789-41.73c-.321 12.626-9.083 16.481-15.917 8.859a25.658 25.658 0 0 0-3.152-2.979v-4.584a7.967 7.967 0 0 0 3.782-6.778 7.983 7.983 0 0 0-15.966 0 7.97 7.97 0 0 0 3.939 6.874v.587c-2.614-.561-5.108-.642-7.441-.918-18.488-2.19-10.763-16.576-8.308-19.543 11.259-13.604 28.282-8.003 34.9-2.72 7.444 5.941 8.306 15.618 8.163 21.202z"/><path d="M33.518 29.816h7.369v3.508h-7.369zm27.543 0h7.369v3.508h-7.369zM49.219 14.114h3.509v7.369h-3.509zm-6.616 11.564l-5.21-5.21 2.48-2.48 5.21 5.21zm19.473 19.476l-5.209-5.21 2.481-2.48 5.21 5.21zm.002-27.168l2.481 2.48-5.208 5.21-2.481-2.48z"/></g></svg><svg viewBox="-0.35 11.35 64.61 41.36" height="42" width="42" id="100--skills-performance" x="42" y="84" xmlns="http://www.w3.org/2000/svg"><g fill="#dbb2ff"><path d="M24.8 42.3c-2.3.7-3.6 2.7-3.4 5.1.3 2.3 2.1 4.1 4.5 4.3 1.5.1 2.7-.4 4-1.7 2.9-2.9 11-10.5 13.7-13 .2-.2 0-.5-.3-.5-3.8 1.1-15.7 5-18.5 5.8z"/><path d="M58.7 27.3c-.5-.9-1.1-1.7-1.8-2.6-4.5-6-11.2-10.3-19.1-11.8-17-3.2-33.4 7.9-36.6 24.9-.8 4.1-.7 8.3.1 12.4l.3 1.5 4.7-1-.2-1.4c-.6-4.2 0-8.5 1.5-12.5 1.5-3.8 3.8-7.2 6.9-9.9 1.4-1.2 3-2.3 4.9-3.2 1.7-.8 3.5-1.5 5.4-1.9 1.8-.4 3.7-.6 5.5-.5 1.8.1 3.6.4 5.4.8 3.4 1 6.5 2.8 9 5.2 1.1 1.1 2.1 2.3 2.9 3.6l1.5 2.7c.3.7.6 1.4.8 2.1.5 1.5.7 3.1.8 4.7.1 1.5 0 3.1-.3 4.6-.2.8-.4 1.7-.7 2.5l-.6 1.7 13.1 2.5.3-1.5c0-.2.1-.4.1-.6 1.7-8.1 0-15.9-3.9-22.3zm-5.5 19.4l.3-1.2c.3-1.8.5-3.6.4-5.4-.1-1.9-.4-3.7-1-5.4-.3-1-.7-1.9-1.1-2.9l4.4-2.9c3.4 5.5 4.8 12.2 3.8 19l-6.8-1.2z"/></g></svg><svg viewBox="1.5 13 97 74.1" height="42" width="42" id="100--skills-responsive" x="84" y="84" xmlns="http://www.w3.org/2000/svg"><g fill="#dbb2ff"><path d="M8.3 19.9h70.5v11h5.9V17.7c0-2-1.7-3.7-3.7-3.7H6.2c-2 0-3.7 1.7-3.7 3.7v50.7c0 2 1.6 3.7 3.7 3.7h30.1v6.7h-6.6c-1 0-1.8.8-1.8 1.8v3.5c0 1 .8 1.8 1.8 1.8h28c1 0 1.8-.8 1.8-1.8v-3.5c0-1-.8-1.8-1.8-1.8H51v-6.7h13.8V59.2H8.3V19.9zM43.6 63c1.4 0 2.6 1.2 2.6 2.6 0 1.4-1.2 2.6-2.6 2.6-1.4 0-2.6-1.2-2.6-2.6 0-1.4 1.2-2.6 2.6-2.6z"/><path d="M93.5 35.1H72.9c-2.2 0-3.9 1.8-3.9 4v43c0 2.2 1.8 4 3.9 4h20.6c2.2 0 4-1.8 4-4V39c0-2.2-1.8-3.9-4-3.9zM79.9 38h6.5c.5 0 .9.4.9.9s-.4.9-.9.9h-6.5c-.5 0-.9-.4-.9-.9s.4-.9.9-.9zm3.3 45.1c-1.4 0-2.6-1.2-2.6-2.6 0-1.4 1.2-2.6 2.6-2.6 1.4 0 2.6 1.2 2.6 2.6 0 1.4-1.2 2.6-2.6 2.6zm10-8.1h-20V42.7h20.1V75z"/></g></svg><svg viewBox="0.17 12 100.13 75.48" height="42" width="42" id="100--skills-seo" x="126" xmlns="http://www.w3.org/2000/svg"><g fill="#dbb2ff"><path d="M85.1 65.8l-3.2-1.3c.1-1.3.1-2.6-.1-3.8l3.2-1.4c.7-.3 1-1 .7-1.7l-2.6-5.9c-.3-.7-1-1-1.7-.7l-3.2 1.4c-.8-1-1.7-1.9-2.7-2.7l1.3-3.2c.3-.7-.1-1.4-.7-1.7l-3.6-1.4v.4c0 3.8-.8 7.4-2.1 10.7 4.1 2.4 6 7.5 4.2 12.1-2 5-7.7 7.5-12.8 5.5-1.7-.7-3.2-1.9-4.2-3.3-3.3 1.8-6.9 2.9-10.8 3.3l.9 2c.3.7 1 1 1.7.7l3.2-1.4c.8 1 1.7 1.9 2.7 2.7L54 79.2c-.3.7.1 1.4.7 1.7l6 2.4c.7.3 1.4-.1 1.7-.7l1.3-3.2c1.3.1 2.6.1 3.8-.1l1.4 3.2c.3.7 1 1 1.7.7l5.9-2.6c.7-.3 1-1 .7-1.7l-1.4-3.2c1-.8 1.9-1.7 2.7-2.7l3.2 1.3c.7.3 1.4-.1 1.7-.7l2.4-6c.3-.7-.1-1.5-.7-1.8zM58.7 43.7v-.5l-4.5 1.9c-.7.3-1 1-.7 1.7l1.4 3.2c-1 .8-1.9 1.7-2.7 2.7L49 51.5c-.7-.3-1.4.1-1.7.7l-2.4 6v.2c7.7-.5 13.8-6.9 13.8-14.7zm39.6-18.1l-2.5-.2c-.2-.9-.5-1.8-.9-2.6l1.9-1.6c.4-.3.4-.9.1-1.3l-3-3.5c-.3-.4-.9-.4-1.3-.1L90.7 18c-.8-.5-1.6-.9-2.5-1.2l.2-2.5c0-.5-.4-.9-.9-1L83 13c-.5 0-.9.4-1 .9l-.2 2.5c-.9.2-1.8.5-2.6.9l-1.6-1.9c-.3-.4-.9-.4-1.3-.1l-3.5 3c-.4.3-.4.9-.1 1.3l1.6 1.9c-.5.8-.9 1.6-1.2 2.5l-2.5-.2c-.5 0-.9.3-1 .9l-.3 4.6c0 .5.4.9.9 1l2.5.2c.2.9.5 1.8.9 2.6l-1.9 1.6c-.4.3-.4.9-.1 1.3l3 3.5c.3.4.9.4 1.3.1l1.9-1.6c.8.5 1.6.9 2.5 1.2l-.2 2.5c0 .5.3.9.9 1l4.6.3c.5 0 .9-.4 1-.9l.2-2.5c.9-.2 1.8-.5 2.6-.9l1.6 1.9c.3.4.9.4 1.3.1l3.5-3c.4-.3.4-.9.1-1.3l-1.6-1.9c.5-.8.9-1.6 1.2-2.5l2.5.2c.5 0 .9-.4 1-.9l.3-4.6c-.1-.6-.4-1-1-1.1zm-14.5 9.3c-3.9-.3-6.8-3.6-6.5-7.5.3-3.9 3.6-6.8 7.5-6.5 3.9.3 6.8 3.6 6.5 7.5-.2 3.9-3.6 6.8-7.5 6.5z"/><path d="M46.2 50.8v-1.6c.6-.2 1.1-.4 1.6-.7l1.2 1.1c.2.2.6.2.8 0l2.1-2.2c.2-.2.2-.6 0-.8l-1.2-1.1c.3-.5.5-1.1.7-1.7H53c.3 0 .6-.3.6-.6v-3c0-.3-.3-.6-.6-.6h-1.6c-.2-.6-.4-1.1-.7-1.6l1.1-1.2c.2-.2.2-.6 0-.8l-2.2-2.1c-.2-.2-.6-.2-.8 0l-1.1 1.2c-.5-.3-1.1-.5-1.7-.7v-1.6c0-.3-.3-.6-.6-.6h-3c-.3 0-.6.3-.6.6v1.6c-.6.2-1.1.4-1.6.7l-1.2-1c-.2-.2-.6-.2-.8 0l-2.1 2.2c-.2.2-.2.6 0 .8l1.2 1.1c-.3.5-.5 1.1-.7 1.7H35c-.3 0-.6.3-.6.6v3c0 .3.3.6.6.6h1.6c.2.6.4 1.1.7 1.6l-1.1 1.2c-.2.2-.2.6 0 .8l2.2 2.1c.2.2.6.2.8 0l1.1-1.2c.5.3 1.1.5 1.7.7v1.6c0 .3.3.6.6.6h3c.4-.1.6-.4.6-.7zm-6.8-8.9c0-2.5 2-4.6 4.5-4.6s4.6 2 4.6 4.5-2 4.6-4.5 4.6-4.5-2-4.6-4.5z"/><path d="M67.5 53.3c1.2-3 1.9-6.2 1.9-9.6 0-.5 0-.9-.1-1.4-.2-3.9-1.2-7.5-3-10.7-2-3.6-4.8-6.7-8.1-9-1.4-.9-2.8-1.7-4.3-2.3-2.3-1-4.7-1.6-7.3-1.9-.9-.1-1.7-.1-2.6-.1-14 0-25.4 11.4-25.4 25.4 0 4.6 1.3 9 3.4 12.7l-.3.3-.9.9c1 1.7 1.7 3 3.9 5.3 1.5 1.5 3.7 3 5.4 3.9l.9-.9.3-.3c3.8 2.2 8.1 3.5 12.8 3.5.5 0 1 0 1.5-.1 3.8-.2 7.4-1.3 10.6-3 5.1-2.7 9.1-7.2 11.3-12.7zm-41.3-9.6c0-9.8 8-17.7 17.8-17.7 9.6 0 17.4 7.6 17.7 17.1v.7C61.7 52 56 59 48.3 60.9c-1.4.3-2.8.5-4.3.5-9.8.1-17.8-7.9-17.8-17.7zM3 75.4c-.1.3-4.6 3.2.9 8.6 5.1 5.1 8 .8 8.4.6l15.5-15.5c-1.3-.7-3.1-1.9-5.3-4.1-2.1-2.1-3.3-3.8-4-5.1L3 75.4"/></g></svg><svg viewBox="1.98 2 76.03 76" height="42" width="42" id="100--skills-ux-hand" x="126" y="42" xmlns="http://www.w3.org/2000/svg"><g fill="#dbb2ff"><path d="M75.245 67.906c.48-.861.755-1.852.755-2.906V47.4c0-2.426-1.974-4.4-4.4-4.4h-.4c-.188 0-.374.012-.557.035A4.406 4.406 0 0 0 66.4 39.8h-.8c-.439 0-.863.064-1.264.185A4.395 4.395 0 0 0 60.8 38.2H60a4.41 4.41 0 0 0-.4.018v-4.415a4.808 4.808 0 0 0-4.793-4.799H54.8a4.766 4.766 0 0 0-3.391 1.403A4.767 4.767 0 0 0 50 33.804v16.689c0 .16-.071.278-.212.354a.376.376 0 0 1-.411-.021l-.77-.518a15.55 15.55 0 0 0-6.668-2.485l-.132-.017a4.276 4.276 0 0 0-3.671 1.33 4.264 4.264 0 0 0-1.052 3.73 4.418 4.418 0 0 0 1.735 2.708l2.607 1.896c3.054 2.22 5.665 5.663 7.353 9.693l.135.32c.233.512.537.978.891 1.395A4.365 4.365 0 0 0 49 71.4v1.2c0 2.426 1.974 4.4 4.4 4.4H65a2 2 0 0 0 0-4H53.4a.4.4 0 0 1-.4-.4v-1.2a.4.4 0 0 1 .4-.4h19.2a.4.4 0 0 1 .4.4v1.2a.4.4 0 0 1-.4.4H71a2 2 0 0 0 0 4h1.6c2.426 0 4.4-1.974 4.4-4.4v-1.2c0-1.43-.696-2.689-1.755-3.494zM54.376 67c-.782 0-1.497-.46-1.797-1.117l-.111-.265c-1.966-4.696-5.052-8.738-8.689-11.383l-2.606-1.896a.425.425 0 0 1-.167-.262c-.006-.031-.025-.125.061-.219a.263.263 0 0 1 .198-.086l.042.002.131.017c1.761.22 3.472.857 4.942 1.839l.765.514a4.391 4.391 0 0 0 4.523.232A4.388 4.388 0 0 0 54 50.494v-16.69a.796.796 0 0 1 .8-.8h.001c.44 0 .799.36.799.8V44.6a2 2 0 0 0 4 0v-2a.4.4 0 0 1 .4-.4h.8a.4.4 0 0 1 .4.4v3.6a2 2 0 0 0 4 0v-2a.4.4 0 0 1 .4-.4h.8a.4.4 0 0 1 .4.4v4.4a2 2 0 0 0 4 0v-1.2a.4.4 0 0 1 .4-.4h.4a.4.4 0 0 1 .4.4V65c0 1.103-.897 2-2 2H54.376z"/><path d="M42 29.5v-9c0-3.033 2.467-5.5 5.5-5.5s5.5 2.467 5.5 5.5V25a2 2 0 0 0 4 0v-4.5c0-5.238-4.262-9.5-9.5-9.5S38 15.262 38 20.5v9C38 36.393 32.393 42 25.5 42S13 36.393 13 29.5V9.828l2.586 2.586c.39.391.902.586 1.414.586s1.024-.195 1.414-.586a2 2 0 0 0 0-2.828l-5.999-5.999a1.988 1.988 0 0 0-.306-.25c-.05-.034-.105-.057-.158-.086-.062-.034-.121-.071-.186-.098-.067-.028-.137-.044-.206-.064-.056-.016-.11-.038-.168-.05a2.028 2.028 0 0 0-.784 0c-.058.012-.112.033-.168.05-.069.02-.138.036-.205.064-.066.027-.125.065-.187.099-.052.028-.106.051-.156.085-.11.074-.213.157-.306.25L3.586 9.586a2 2 0 1 0 2.828 2.828L9 9.828V29.5C9 38.598 16.402 46 25.5 46S42 38.598 42 29.5z"/></g></svg><svg viewBox="3.72 0.93 19.61 24.83" height="42" width="42" id="100--skills-webstandards-quality" x="126" y="84" xmlns="http://www.w3.org/2000/svg"><g fill="#dbb2ff"><path d="M12.751 18.88c.263.325.551.665.778.665.243 0 .556-.389.831-.731.322-.399.654-.812 1.085-.927.413-.111.95.075 1.442.263.416.16.873.317 1.046.216.2-.116.276-.602.342-1.031.081-.513.163-1.044.484-1.366.322-.322.853-.405 1.367-.485.428-.067.913-.143 1.029-.342.112-.193-.07-.666-.216-1.046-.188-.489-.383-.995-.264-1.442.116-.431.529-.763.928-1.084.343-.276.732-.589.732-.832s-.388-.556-.731-.832c-.399-.322-.812-.654-.928-1.084-.119-.447.075-.953.264-1.442.146-.38.328-.853.216-1.045-.116-.2-.601-.276-1.029-.343-.514-.08-1.045-.163-1.367-.485-.322-.321-.404-.852-.485-1.366-.066-.429-.142-.914-.342-1.03-.171-.1-.629.057-1.045.216-.493.189-1.031.373-1.443.263-.43-.115-.763-.528-1.085-.927-.276-.343-.589-.731-.831-.731-.243 0-.556.389-.832.732-.322.399-.654.812-1.085.927-.411.11-.95-.074-1.443-.263-.415-.161-.872-.318-1.043-.217-.2.116-.276.601-.343 1.03-.081.513-.163 1.045-.485 1.366-.322.323-.853.405-1.368.486-.428.066-.913.142-1.029.342-.112.192.071.665.217 1.045.188.49.383.996.264 1.443-.115.43-.528.763-.927 1.084-.343.276-.731.589-.731.832s.389.556.732.832c.399.322.812.654.927 1.084.119.446-.075.953-.264 1.442-.146.38-.329.853-.217 1.045.116.2.601.275 1.029.342.514.08 1.045.163 1.367.485"/><path d="M11.434 18.557c-.213-.058-.631.093-1.014.241-.581.224-1.22.414-1.642.169-.19-.11-.31-.283-.404-.478l-1.959 4.699 2.819-1.315 1.067 2.888 2.151-5.159c-.1-.114-.198-.234-.294-.354-.242-.297-.513-.634-.724-.691zm6.846.41c-.421.244-1.06.055-1.642-.169-.383-.148-.802-.298-1.014-.241-.211.057-.483.394-.723.692-.079.098-.16.195-.241.29l2.177 5.222 1.067-2.888 2.819 1.315-1.994-4.783c-.097.233-.23.436-.449.562z"/><path d="M21.604 9.907c-.399-.322-.812-.654-.928-1.084-.119-.447.075-.953.264-1.442.146-.38.328-.853.216-1.045-.116-.2-.601-.276-1.029-.343-.514-.08-1.045-.163-1.367-.485-.322-.321-.404-.852-.485-1.366-.066-.429-.142-.914-.342-1.03-.171-.1-.629.057-1.045.216-.493.189-1.031.373-1.443.263-.43-.115-.763-.528-1.085-.927-.276-.343-.589-.731-.831-.731-.243 0-.556.389-.832.732-.322.399-.654.812-1.085.927-.411.11-.95-.074-1.443-.263-.415-.162-.872-.319-1.043-.218-.2.116-.276.601-.343 1.03-.081.513-.163 1.045-.485 1.366-.322.323-.853.405-1.368.486-.428.066-.913.142-1.029.342-.112.192.071.665.217 1.045.188.49.383.996.264 1.443-.115.43-.528.763-.927 1.084-.343.276-.731.589-.731.832s.389.556.732.832c.399.322.812.654.927 1.084.119.446-.075.953-.264 1.442-.146.38-.329.853-.217 1.045.116.2.601.275 1.029.342.514.08 1.045.163 1.367.485.321.322.404.853.484 1.366l.02.123c.063.395.142.803.323.908.173.1.629-.056 1.045-.216.384-.147.781-.3 1.149-.3.104 0 .203.013.293.037.43.115.762.527 1.083.926l.055.067c.263.325.551.665.778.665.242 0 .554-.387.83-.729l.002-.002c.322-.399.654-.812 1.085-.927.413-.111.95.075 1.442.263.416.16.873.317 1.046.216.2-.116.276-.602.342-1.031a.059.059 0 0 0 .002-.013c.08-.509.164-1.034.482-1.352.322-.322.853-.405 1.367-.485.428-.067.913-.143 1.029-.342.112-.193-.07-.666-.216-1.046-.188-.489-.383-.995-.264-1.442.116-.431.529-.763.928-1.084.343-.276.732-.589.732-.832.001-.243-.388-.556-.731-.832zm-8.075 7.163a6.338 6.338 0 0 1-6.331-6.331c0-3.491 2.84-6.331 6.331-6.331s6.331 2.84 6.331 6.331a6.338 6.338 0 0 1-6.331 6.331z"/><path d="M13.529 5.796c-2.726 0-4.943 2.218-4.943 4.943s2.218 4.943 4.943 4.943 4.943-2.218 4.943-4.943-2.217-4.943-4.943-4.943zm1.789 7.54l-1.78-.929-1.774.94.333-1.98-1.444-1.397 1.986-.295.883-1.804.894 1.798 1.988.282-1.433 1.406.347 1.979z"/></g></svg><svg viewBox="17.57 4 64.86 92" height="18" width="18" id="300--other-location" x="232" y="210" xmlns="http://www.w3.org/2000/svg"><path fill="#985eff" d="M51.542 94.324c6.317-6.818 29.89-33.87 29.89-57.892a31.432 31.432 0 0 0-62.864 0c0 24.023 23.573 51.074 29.89 57.892a2.097 2.097 0 0 0 3.084 0zM33.618 36.432A16.382 16.382 0 1 1 50 52.814a16.382 16.382 0 0 1-16.382-16.382z"/></svg><svg viewBox="4 8.44 92 83.11" height="22" width="22" id="300--section-briefcase" x="154" y="252" xmlns="http://www.w3.org/2000/svg"><g fill="#985eff"><path d="M23.881 51.85h52.237c12.803 0 17.893-3.254 18.881-12.961v-6.707c0-5.422-2.13-7.552-7.552-7.552H12.552C7.13 24.628 5 26.758 5 32.181v6.707c.988 9.707 6.077 12.962 18.881 12.962z"/><path d="M76.119 55.625H58.557V68.96c0 2.033-.799 2.832-2.834 2.832H44.277c-2.034 0-2.833-.799-2.833-2.832V55.625H23.881c-8.321 0-14.95-1.307-18.881-6.181v33.559c0 5.423 2.13 7.552 7.552 7.552h74.896c5.422 0 7.552-2.129 7.552-7.552V49.445c-3.932 4.873-10.561 6.18-18.881 6.18z"/><path d="M46.165 55.625c-.677 0-.944.268-.944.943V67.07c0 .679.267.945.944.945h7.671c.678 0 .943-.267.943-.943V56.568c0-.678-.266-.943-.943-.943h-7.671zm.25-40.989h7.173c6.205 0 6.688.955 6.688 7.16h6.607c0-11.636-.715-12.352-12.351-12.352H45.47c-11.636 0-12.352.716-12.352 12.352h6.609c0-6.205.482-7.16 6.688-7.16z"/></g></svg><svg viewBox="24.48 69.5 285.69 214.93" height="22" width="22" fill-rule="evenodd" clip-rule="evenodd" shape-rendering="geometricPrecision" image-rendering="optimizeQuality" id="300--section-telephone" x="132" y="252" xmlns="http://www.w3.org/2000/svg"><path fill="#985eff" d="M235 127zm-67 18c57 0 57 70 0 70s-57-70 0-70zm26 15c-34-26-85 13-52 40 34 27 85-13 52-40zm77 104c-14-75 9-8-27-74-8-13-13 14-22-31-3-22-15-29-15-29l21-26c33 6-11 28 13 43 0 0 57 24 64 10 5-10 8-38-6-49-70-50-194-50-263 0-15 11-11 39-6 49 6 12 71-6 71-20 0-16-20-28 5-33l22 26c-18 10-18 55-24 56-2 0-10-1-13 4-37 66-13 1-27 74-1 4 2 10 7 11-2 9 32 11 33 5l63-1h1l63 1c1 6 35 4 32-5 5-1 8-7 8-11zm-69-163c-7 10-22 9-34 8h-1c-12 1-28 2-34-8h69zm33 26zm-135 0zm0 0z" fill-rule="nonzero"/></svg><svg version="1" viewBox="-1 -1 102 83.1" height="22" width="22" id="300--section-tools" x="210" y="210" xmlns="http://www.w3.org/2000/svg"><path fill="#985eff" d="M78.952 66.572c3.225 3.225 3.225 8.385-.13 11.739-3.225 3.225-8.514 3.225-11.867 0l-20.641-22.06-19.35 23.35c-1.806 1.935-5.16 2.063-6.966 0l-4.902-5.031a4.949 4.949 0 0 1-.129-7.096l22.317-20.769-10.707-10.19c-3.612-3.354-5.676-4.386-8.514-3.483-2.838 1.032-6.837 1.032-10.578-1.419C-.384 26.582.003 16.778.003 16.778l.645-1.032 8.127 5.289s5.031 3.096 8.901-2.838c4.386-6.966-.516-9.804-.516-9.804l-8.127-5.16.774-1.033s7.482-4.773 16.254.258c5.418 3.225 8.127 9.546 6.708 15.738-.774 3.741 0 5.031 2.967 8.256l10.836 10.707L59.215 24.13l9.546 9.546-12.643 12.513 22.834 20.383zM91.98 26.969c1.549-1.548 4.129-1.29 5.548.129l1.419 1.419c1.548 1.548 1.29 3.87-.129 5.289l-7.74 7.74c-1.548 1.548-3.87 1.677-5.418.129l-1.419-1.419a3.892 3.892 0 0 1 0-5.547c.258-.903-.517-2.58-2.064-4.129-3.225-3.225-6.966-3.354-8.772-1.677l-2.58 2.709-9.417-9.675 2.709-2.58c2.968-3.096-.387-6.321-.387-6.321-8.256-8.256-19.867-7.998-19.867-7.998l-.129-3.096C67.342-4.25 76.243 6.07 79.468 9.166l6.837 6.837c1.677 1.806-.129 6.708 2.322 9.288 1.032 1.161 2.322 1.549 3.353 1.678zM73.018 76.763c2.451 0 4.386-1.935 4.386-4.386s-1.935-4.386-4.386-4.386-4.386 1.935-4.386 4.386 1.934 4.386 4.386 4.386z"/></svg><svg viewBox="12.73 3.95 74.54 91.7" height="22" width="22" id="300--section-user3" x="252" y="220" xmlns="http://www.w3.org/2000/svg"><path fill="#985eff" d="M80.93 48.668s-.703-10.167-1.27-12.576c-.051-.22-.111-.438-.169-.655 4.115-3.09 6.777-8.01 6.777-13.552 0-9.354-7.584-16.937-16.938-16.937-5.218 0-9.884 2.362-12.991 6.073-2.227-3.251-5.965-5.387-10.203-5.387v7.271a27.615 27.615 0 0 0-4.869-.438c-15.205 0-27.535 12.329-27.535 27.536 0 8.615 3.961 16.305 10.157 21.354h-4.303c0 1.266.192 2.484.546 3.635H16.61c0 9.352 7.585 16.938 16.938 16.938 1.445 0 2.849-.184 4.188-.523v7.045l25.314 6.195V80.061s5.441.803 7.27.916c6.273.393 11.386-3.266 11.386-9.559v-8.07s4.271-2.198 4.271-3.481c0-.324-.151-.635-.269-.908L80.93 48.668z"/></svg><svg viewBox="-0.37 -0.61 92.21 92.32" height="42" width="42" id="300--skills-branding-design" x="168" y="42" xmlns="http://www.w3.org/2000/svg"><g fill="#985eff"><path d="M88.266 18.375a8.75 8.75 0 0 0 2.574-6.293 8.922 8.922 0 0 0-2.639-6.295L85.438 3.03A8.915 8.915 0 0 0 79.092.391a8.74 8.74 0 0 0-6.232 2.578L45.934 29.893l-2.848-2.846-.01-.014-.016-.012-7.46-7.46-.016-.02c-.004-.006-.012-.008-.018-.014l-9.354-9.354c-.008-.008-.012-.016-.018-.023a.461.461 0 0 1-.023-.018l-8.924-8.924a2.1 2.1 0 0 0-2.969 0L1.242 14.247a2.1 2.1 0 0 0 0 2.969l28.684 28.683-24.42 24.418a2.097 2.097 0 0 0-.615 1.484c0 .172.027.34.068.504L.924 87.954a2.098 2.098 0 0 0 2.034 2.625c.184 0 .369-.023.551-.074l15.504-4.209a2.093 2.093 0 0 0 1.906-.57l24.416-24.419 28.787 28.784c.41.41.947.615 1.484.615s1.074-.205 1.484-.615l13.037-13.037a2.101 2.101 0 0 0 0-2.968l-7.588-7.588-.006-.008a.035.035 0 0 0-.01-.008l-9.371-9.37-.01-.012-.014-.012-8.314-8.313-.033-.043c-.014-.014-.031-.021-.045-.035l-3.396-3.396 26.926-26.926zM19.432 81.271l-7.564-7.563-1.906-1.906 59.754-59.749 9.465 9.469-59.749 59.749zM75.83 5.936c1.756-1.758 4.844-1.732 6.639.064l2.764 2.758c.9.898 1.4 2.09 1.408 3.35a4.587 4.587 0 0 1-1.346 3.299l-3.145 3.146-9.467-9.471 3.147-3.146zM5.697 15.731L15.764 5.665l5.973 5.973-3.563 3.559a2.105 2.105 0 0 0 0 2.971c.41.41.947.615 1.486.615.537 0 1.074-.205 1.484-.615l3.563-3.559 6.422 6.42-6.332 6.33a2.1 2.1 0 1 0 2.97 2.969l6.33-6.33 4.523 4.523-3.563 3.561a2.1 2.1 0 0 0 2.968 2.969l3.563-3.561 1.375 1.373L32.896 42.93 5.697 15.731zm.196 69.776l2.426-9.406 4.652 4.65L15.2 82.98l-9.307 2.527zM60.32 50.221l-3.561 3.559a2.102 2.102 0 0 0 2.97 2.971l3.561-3.561 5.395 5.396-6.33 6.327a2.102 2.102 0 0 0 1.484 3.586c.537 0 1.074-.205 1.484-.615l6.332-6.329 6.422 6.421-3.564 3.563a2.102 2.102 0 0 0 2.97 2.971l3.563-3.564 4.625 4.625-10.066 10.065-27.3-27.298 10.066-10.066 1.949 1.949z"/><path d="M70.891 20.34a2.1 2.1 0 0 0-2.969 0L20.875 67.388a2.1 2.1 0 0 0 2.968 2.969L70.89 23.312a2.102 2.102 0 0 0 .001-2.972z"/></g></svg><svg viewBox="12.48 -1 75.03 102" height="42" width="42" id="300--skills-intuitive-brainbulb" x="168" y="84" xmlns="http://www.w3.org/2000/svg"><path fill="#985eff" d="M77.033 78.783c-1.867-2.403-2.25-7.876-2.135-10.275.178-3.737 9.388-22.813 10.007-30.156.667-7.917-1.022-21.706-11.608-30.156C63.883.681 39.671-7.283 23.66 12.065c-3.491 4.219-6.383 8.63-6.538 11.432-.178 3.202-.4 15.923.266 16.857.668.934 2.002 2.269 2.002 3.469s-4.937 9.874-5.604 11.076c-.667 1.199-.133 3.202.667 3.868.801.667 4.77 1.402 4.904 2.203.134.8-.234 3.001-.767 3.935-.534.935 2.301 2.369 2.969 3.037.667.666-.734.8-1.101 2.167-.104.387.934 1.469 1.334 2.669.33.988-.074 3.382-.467 6.472-.3 2.368 2.547 4.354 4.637 5.07 1.167.401 10.241-.199 10.908-.867.668-.667 4.635 9.598 6.139 16.412.086.392 16.195.02 24.519-2.258 6.596-1.806 19.382-9.884 18.98-11.886-.402-2.001-7.607-4.536-9.475-6.938zm-2.789-41.73c-.321 12.626-9.083 16.481-15.917 8.859a25.658 25.658 0 0 0-3.152-2.979v-4.584a7.967 7.967 0 0 0 3.782-6.778 7.983 7.983 0 0 0-15.966 0 7.97 7.97 0 0 0 3.939 6.874v.587c-2.614-.561-5.108-.642-7.441-.918-18.488-2.19-10.763-16.576-8.308-19.543 11.259-13.604 28.282-8.003 34.9-2.72 7.444 5.941 8.306 15.618 8.163 21.202z"/><path fill="#7B2DCB" d="M33.518 29.816h7.369v3.508h-7.369zm27.543 0h7.369v3.508h-7.369zM49.219 14.114h3.509v7.369h-3.509zm-6.616 11.564l-5.21-5.21 2.48-2.48 5.21 5.21zm19.473 19.476l-5.209-5.21 2.481-2.48 5.21 5.21zm.002-27.168l2.481 2.48-5.208 5.21-2.481-2.48z"/></svg><svg viewBox="-0.35 11.35 64.61 41.36" height="42" width="42" id="300--skills-performance" x="168" y="126" xmlns="http://www.w3.org/2000/svg"><g fill="#985eff"><path d="M24.8 42.3c-2.3.7-3.6 2.7-3.4 5.1.3 2.3 2.1 4.1 4.5 4.3 1.5.1 2.7-.4 4-1.7 2.9-2.9 11-10.5 13.7-13 .2-.2 0-.5-.3-.5-3.8 1.1-15.7 5-18.5 5.8z"/><path d="M58.7 27.3c-.5-.9-1.1-1.7-1.8-2.6-4.5-6-11.2-10.3-19.1-11.8-17-3.2-33.4 7.9-36.6 24.9-.8 4.1-.7 8.3.1 12.4l.3 1.5 4.7-1-.2-1.4c-.6-4.2 0-8.5 1.5-12.5 1.5-3.8 3.8-7.2 6.9-9.9 1.4-1.2 3-2.3 4.9-3.2 1.7-.8 3.5-1.5 5.4-1.9 1.8-.4 3.7-.6 5.5-.5 1.8.1 3.6.4 5.4.8 3.4 1 6.5 2.8 9 5.2 1.1 1.1 2.1 2.3 2.9 3.6l1.5 2.7c.3.7.6 1.4.8 2.1.5 1.5.7 3.1.8 4.7.1 1.5 0 3.1-.3 4.6-.2.8-.4 1.7-.7 2.5l-.6 1.7 13.1 2.5.3-1.5c0-.2.1-.4.1-.6 1.7-8.1 0-15.9-3.9-22.3zm-5.5 19.4l.3-1.2c.3-1.8.5-3.6.4-5.4-.1-1.9-.4-3.7-1-5.4-.3-1-.7-1.9-1.1-2.9l4.4-2.9c3.4 5.5 4.8 12.2 3.8 19l-6.8-1.2z"/></g></svg><svg viewBox="1.5 13 97 74.1" height="42" width="42" id="300--skills-responsive" y="168" xmlns="http://www.w3.org/2000/svg"><g fill="#985eff"><path d="M8.3 19.9h70.5v11h5.9V17.7c0-2-1.7-3.7-3.7-3.7H6.2c-2 0-3.7 1.7-3.7 3.7v50.7c0 2 1.6 3.7 3.7 3.7h30.1v6.7h-6.6c-1 0-1.8.8-1.8 1.8v3.5c0 1 .8 1.8 1.8 1.8h28c1 0 1.8-.8 1.8-1.8v-3.5c0-1-.8-1.8-1.8-1.8H51v-6.7h13.8V59.2H8.3V19.9zM43.6 63c1.4 0 2.6 1.2 2.6 2.6 0 1.4-1.2 2.6-2.6 2.6-1.4 0-2.6-1.2-2.6-2.6 0-1.4 1.2-2.6 2.6-2.6z"/><path d="M93.5 35.1H72.9c-2.2 0-3.9 1.8-3.9 4v43c0 2.2 1.8 4 3.9 4h20.6c2.2 0 4-1.8 4-4V39c0-2.2-1.8-3.9-4-3.9zM79.9 38h6.5c.5 0 .9.4.9.9s-.4.9-.9.9h-6.5c-.5 0-.9-.4-.9-.9s.4-.9.9-.9zm3.3 45.1c-1.4 0-2.6-1.2-2.6-2.6 0-1.4 1.2-2.6 2.6-2.6 1.4 0 2.6 1.2 2.6 2.6 0 1.4-1.2 2.6-2.6 2.6zm10-8.1h-20V42.7h20.1V75z"/></g></svg><svg viewBox="0.17 12 100.13 75.48" height="42" width="42" id="300--skills-seo" x="42" y="168" xmlns="http://www.w3.org/2000/svg"><path fill="#985eff" d="M85.1 65.8l-3.2-1.3c.1-1.3.1-2.6-.1-3.8l3.2-1.4c.7-.3 1-1 .7-1.7l-2.6-5.9c-.3-.7-1-1-1.7-.7l-3.2 1.4c-.8-1-1.7-1.9-2.7-2.7l1.3-3.2c.3-.7-.1-1.4-.7-1.7l-3.6-1.4v.4c0 3.8-.8 7.4-2.1 10.7 4.1 2.4 6 7.5 4.2 12.1-2 5-7.7 7.5-12.8 5.5-1.7-.7-3.2-1.9-4.2-3.3-3.3 1.8-6.9 2.9-10.8 3.3l.9 2c.3.7 1 1 1.7.7l3.2-1.4c.8 1 1.7 1.9 2.7 2.7L54 79.2c-.3.7.1 1.4.7 1.7l6 2.4c.7.3 1.4-.1 1.7-.7l1.3-3.2c1.3.1 2.6.1 3.8-.1l1.4 3.2c.3.7 1 1 1.7.7l5.9-2.6c.7-.3 1-1 .7-1.7l-1.4-3.2c1-.8 1.9-1.7 2.7-2.7l3.2 1.3c.7.3 1.4-.1 1.7-.7l2.4-6c.3-.7-.1-1.5-.7-1.8zM58.7 43.7v-.5l-4.5 1.9c-.7.3-1 1-.7 1.7l1.4 3.2c-1 .8-1.9 1.7-2.7 2.7L49 51.5c-.7-.3-1.4.1-1.7.7l-2.4 6v.2c7.7-.5 13.8-6.9 13.8-14.7zm39.6-18.1l-2.5-.2c-.2-.9-.5-1.8-.9-2.6l1.9-1.6c.4-.3.4-.9.1-1.3l-3-3.5c-.3-.4-.9-.4-1.3-.1L90.7 18c-.8-.5-1.6-.9-2.5-1.2l.2-2.5c0-.5-.4-.9-.9-1L83 13c-.5 0-.9.4-1 .9l-.2 2.5c-.9.2-1.8.5-2.6.9l-1.6-1.9c-.3-.4-.9-.4-1.3-.1l-3.5 3c-.4.3-.4.9-.1 1.3l1.6 1.9c-.5.8-.9 1.6-1.2 2.5l-2.5-.2c-.5 0-.9.3-1 .9l-.3 4.6c0 .5.4.9.9 1l2.5.2c.2.9.5 1.8.9 2.6l-1.9 1.6c-.4.3-.4.9-.1 1.3l3 3.5c.3.4.9.4 1.3.1l1.9-1.6c.8.5 1.6.9 2.5 1.2l-.2 2.5c0 .5.3.9.9 1l4.6.3c.5 0 .9-.4 1-.9l.2-2.5c.9-.2 1.8-.5 2.6-.9l1.6 1.9c.3.4.9.4 1.3.1l3.5-3c.4-.3.4-.9.1-1.3l-1.6-1.9c.5-.8.9-1.6 1.2-2.5l2.5.2c.5 0 .9-.4 1-.9l.3-4.6c-.1-.6-.4-1-1-1.1zm-14.5 9.3c-3.9-.3-6.8-3.6-6.5-7.5.3-3.9 3.6-6.8 7.5-6.5 3.9.3 6.8 3.6 6.5 7.5-.2 3.9-3.6 6.8-7.5 6.5z"/><path fill="#7B2DCB" d="M46.2 50.8v-1.6c.6-.2 1.1-.4 1.6-.7l1.2 1.1c.2.2.6.2.8 0l2.1-2.2c.2-.2.2-.6 0-.8l-1.2-1.1c.3-.5.5-1.1.7-1.7H53c.3 0 .6-.3.6-.6v-3c0-.3-.3-.6-.6-.6h-1.6c-.2-.6-.4-1.1-.7-1.6l1.1-1.2c.2-.2.2-.6 0-.8l-2.2-2.1c-.2-.2-.6-.2-.8 0l-1.1 1.2c-.5-.3-1.1-.5-1.7-.7v-1.6c0-.3-.3-.6-.6-.6h-3c-.3 0-.6.3-.6.6v1.6c-.6.2-1.1.4-1.6.7l-1.2-1c-.2-.2-.6-.2-.8 0l-2.1 2.2c-.2.2-.2.6 0 .8l1.2 1.1c-.3.5-.5 1.1-.7 1.7H35c-.3 0-.6.3-.6.6v3c0 .3.3.6.6.6h1.6c.2.6.4 1.1.7 1.6l-1.1 1.2c-.2.2-.2.6 0 .8l2.2 2.1c.2.2.6.2.8 0l1.1-1.2c.5.3 1.1.5 1.7.7v1.6c0 .3.3.6.6.6h3c.4-.1.6-.4.6-.7zm-6.8-8.9c0-2.5 2-4.6 4.5-4.6s4.6 2 4.6 4.5-2 4.6-4.5 4.6-4.5-2-4.6-4.5z"/><path fill="#7B2DCB" d="M67.5 53.3c1.2-3 1.9-6.2 1.9-9.6 0-.5 0-.9-.1-1.4-.2-3.9-1.2-7.5-3-10.7-2-3.6-4.8-6.7-8.1-9-1.4-.9-2.8-1.7-4.3-2.3-2.3-1-4.7-1.6-7.3-1.9-.9-.1-1.7-.1-2.6-.1-14 0-25.4 11.4-25.4 25.4 0 4.6 1.3 9 3.4 12.7l-.3.3-.9.9c1 1.7 1.7 3 3.9 5.3 1.5 1.5 3.7 3 5.4 3.9l.9-.9.3-.3c3.8 2.2 8.1 3.5 12.8 3.5.5 0 1 0 1.5-.1 3.8-.2 7.4-1.3 10.6-3 5.1-2.7 9.1-7.2 11.3-12.7zm-41.3-9.6c0-9.8 8-17.7 17.8-17.7 9.6 0 17.4 7.6 17.7 17.1v.7C61.7 52 56 59 48.3 60.9c-1.4.3-2.8.5-4.3.5-9.8.1-17.8-7.9-17.8-17.7zM3 75.4c-.1.3-4.6 3.2.9 8.6 5.1 5.1 8 .8 8.4.6l15.5-15.5c-1.3-.7-3.1-1.9-5.3-4.1-2.1-2.1-3.3-3.8-4-5.1L3 75.4"/></svg><svg viewBox="1.98 2 76.03 76" height="42" width="42" id="300--skills-ux-hand" x="84" y="168" xmlns="http://www.w3.org/2000/svg"><g fill="#985eff"><path d="M75.245 67.906c.48-.861.755-1.852.755-2.906V47.4c0-2.426-1.974-4.4-4.4-4.4h-.4c-.188 0-.374.012-.557.035A4.406 4.406 0 0 0 66.4 39.8h-.8c-.439 0-.863.064-1.264.185A4.395 4.395 0 0 0 60.8 38.2H60a4.41 4.41 0 0 0-.4.018v-4.415a4.808 4.808 0 0 0-4.793-4.799H54.8a4.766 4.766 0 0 0-3.391 1.403A4.767 4.767 0 0 0 50 33.804v16.689c0 .16-.071.278-.212.354a.376.376 0 0 1-.411-.021l-.77-.518a15.55 15.55 0 0 0-6.668-2.485l-.132-.017a4.276 4.276 0 0 0-3.671 1.33 4.264 4.264 0 0 0-1.052 3.73 4.418 4.418 0 0 0 1.735 2.708l2.607 1.896c3.054 2.22 5.665 5.663 7.353 9.693l.135.32c.233.512.537.978.891 1.395A4.365 4.365 0 0 0 49 71.4v1.2c0 2.426 1.974 4.4 4.4 4.4H65a2 2 0 0 0 0-4H53.4a.4.4 0 0 1-.4-.4v-1.2a.4.4 0 0 1 .4-.4h19.2a.4.4 0 0 1 .4.4v1.2a.4.4 0 0 1-.4.4H71a2 2 0 0 0 0 4h1.6c2.426 0 4.4-1.974 4.4-4.4v-1.2c0-1.43-.696-2.689-1.755-3.494zM54.376 67c-.782 0-1.497-.46-1.797-1.117l-.111-.265c-1.966-4.696-5.052-8.738-8.689-11.383l-2.606-1.896a.425.425 0 0 1-.167-.262c-.006-.031-.025-.125.061-.219a.263.263 0 0 1 .198-.086l.042.002.131.017c1.761.22 3.472.857 4.942 1.839l.765.514a4.391 4.391 0 0 0 4.523.232A4.388 4.388 0 0 0 54 50.494v-16.69a.796.796 0 0 1 .8-.8h.001c.44 0 .799.36.799.8V44.6a2 2 0 0 0 4 0v-2a.4.4 0 0 1 .4-.4h.8a.4.4 0 0 1 .4.4v3.6a2 2 0 0 0 4 0v-2a.4.4 0 0 1 .4-.4h.8a.4.4 0 0 1 .4.4v4.4a2 2 0 0 0 4 0v-1.2a.4.4 0 0 1 .4-.4h.4a.4.4 0 0 1 .4.4V65c0 1.103-.897 2-2 2H54.376z"/><path d="M42 29.5v-9c0-3.033 2.467-5.5 5.5-5.5s5.5 2.467 5.5 5.5V25a2 2 0 0 0 4 0v-4.5c0-5.238-4.262-9.5-9.5-9.5S38 15.262 38 20.5v9C38 36.393 32.393 42 25.5 42S13 36.393 13 29.5V9.828l2.586 2.586c.39.391.902.586 1.414.586s1.024-.195 1.414-.586a2 2 0 0 0 0-2.828l-5.999-5.999a1.988 1.988 0 0 0-.306-.25c-.05-.034-.105-.057-.158-.086-.062-.034-.121-.071-.186-.098-.067-.028-.137-.044-.206-.064-.056-.016-.11-.038-.168-.05a2.028 2.028 0 0 0-.784 0c-.058.012-.112.033-.168.05-.069.02-.138.036-.205.064-.066.027-.125.065-.187.099-.052.028-.106.051-.156.085-.11.074-.213.157-.306.25L3.586 9.586a2 2 0 1 0 2.828 2.828L9 9.828V29.5C9 38.598 16.402 46 25.5 46S42 38.598 42 29.5z"/></g></svg><svg viewBox="3.72 0.93 19.61 24.83" height="42" width="42" id="300--skills-webstandards-quality" x="126" y="168" xmlns="http://www.w3.org/2000/svg"><path fill="#985eff" d="M12.751 18.88c.263.325.551.665.778.665.243 0 .556-.389.831-.731.322-.399.654-.812 1.085-.927.413-.111.95.075 1.442.263.416.16.873.317 1.046.216.2-.116.276-.602.342-1.031.081-.513.163-1.044.484-1.366.322-.322.853-.405 1.367-.485.428-.067.913-.143 1.029-.342.112-.193-.07-.666-.216-1.046-.188-.489-.383-.995-.264-1.442.116-.431.529-.763.928-1.084.343-.276.732-.589.732-.832s-.388-.556-.731-.832c-.399-.322-.812-.654-.928-1.084-.119-.447.075-.953.264-1.442.146-.38.328-.853.216-1.045-.116-.2-.601-.276-1.029-.343-.514-.08-1.045-.163-1.367-.485-.322-.321-.404-.852-.485-1.366-.066-.429-.142-.914-.342-1.03-.171-.1-.629.057-1.045.216-.493.189-1.031.373-1.443.263-.43-.115-.763-.528-1.085-.927-.276-.343-.589-.731-.831-.731-.243 0-.556.389-.832.732-.322.399-.654.812-1.085.927-.411.11-.95-.074-1.443-.263-.415-.161-.872-.318-1.043-.217-.2.116-.276.601-.343 1.03-.081.513-.163 1.045-.485 1.366-.322.323-.853.405-1.368.486-.428.066-.913.142-1.029.342-.112.192.071.665.217 1.045.188.49.383.996.264 1.443-.115.43-.528.763-.927 1.084-.343.276-.731.589-.731.832s.389.556.732.832c.399.322.812.654.927 1.084.119.446-.075.953-.264 1.442-.146.38-.329.853-.217 1.045.116.2.601.275 1.029.342.514.08 1.045.163 1.367.485"/><path fill="#7B2DCB" d="M11.434 18.557c-.213-.058-.631.093-1.014.241-.581.224-1.22.414-1.642.169-.19-.11-.31-.283-.404-.478l-1.959 4.699 2.819-1.315 1.067 2.888 2.151-5.159c-.1-.114-.198-.234-.294-.354-.242-.297-.513-.634-.724-.691zm6.846.41c-.421.244-1.06.055-1.642-.169-.383-.148-.802-.298-1.014-.241-.211.057-.483.394-.723.692-.079.098-.16.195-.241.29l2.177 5.222 1.067-2.888 2.819 1.315-1.994-4.783c-.097.233-.23.436-.449.562z"/><path fill="#7B2DCB" d="M21.604 9.907c-.399-.322-.812-.654-.928-1.084-.119-.447.075-.953.264-1.442.146-.38.328-.853.216-1.045-.116-.2-.601-.276-1.029-.343-.514-.08-1.045-.163-1.367-.485-.322-.321-.404-.852-.485-1.366-.066-.429-.142-.914-.342-1.03-.171-.1-.629.057-1.045.216-.493.189-1.031.373-1.443.263-.43-.115-.763-.528-1.085-.927-.276-.343-.589-.731-.831-.731-.243 0-.556.389-.832.732-.322.399-.654.812-1.085.927-.411.11-.95-.074-1.443-.263-.415-.162-.872-.319-1.043-.218-.2.116-.276.601-.343 1.03-.081.513-.163 1.045-.485 1.366-.322.323-.853.405-1.368.486-.428.066-.913.142-1.029.342-.112.192.071.665.217 1.045.188.49.383.996.264 1.443-.115.43-.528.763-.927 1.084-.343.276-.731.589-.731.832s.389.556.732.832c.399.322.812.654.927 1.084.119.446-.075.953-.264 1.442-.146.38-.329.853-.217 1.045.116.2.601.275 1.029.342.514.08 1.045.163 1.367.485.321.322.404.853.484 1.366l.02.123c.063.395.142.803.323.908.173.1.629-.056 1.045-.216.384-.147.781-.3 1.149-.3.104 0 .203.013.293.037.43.115.762.527 1.083.926l.055.067c.263.325.551.665.778.665.242 0 .554-.387.83-.729l.002-.002c.322-.399.654-.812 1.085-.927.413-.111.95.075 1.442.263.416.16.873.317 1.046.216.2-.116.276-.602.342-1.031a.059.059 0 0 0 .002-.013c.08-.509.164-1.034.482-1.352.322-.322.853-.405 1.367-.485.428-.067.913-.143 1.029-.342.112-.193-.07-.666-.216-1.046-.188-.489-.383-.995-.264-1.442.116-.431.529-.763.928-1.084.343-.276.732-.589.732-.832.001-.243-.388-.556-.731-.832zm-8.075 7.163a6.338 6.338 0 0 1-6.331-6.331c0-3.491 2.84-6.331 6.331-6.331s6.331 2.84 6.331 6.331a6.338 6.338 0 0 1-6.331 6.331z"/><path fill="#7B2DCB" d="M13.529 5.796c-2.726 0-4.943 2.218-4.943 4.943s2.218 4.943 4.943 4.943 4.943-2.218 4.943-4.943-2.217-4.943-4.943-4.943zm1.789 7.54l-1.78-.929-1.774.94.333-1.98-1.444-1.397 1.986-.295.883-1.804.894 1.798 1.988.282-1.433 1.406.347 1.979z"/></svg><svg viewBox="17.57 4 64.86 92" height="18" width="18" id="500--other-location" x="176" y="252" xmlns="http://www.w3.org/2000/svg"><path fill="#6200ee" d="M51.542 94.324c6.317-6.818 29.89-33.87 29.89-57.892a31.432 31.432 0 0 0-62.864 0c0 24.023 23.573 51.074 29.89 57.892a2.097 2.097 0 0 0 3.084 0zM33.618 36.432A16.382 16.382 0 1 1 50 52.814a16.382 16.382 0 0 1-16.382-16.382z"/></svg><svg viewBox="4 8.44 92 83.11" height="22" width="22" id="500--section-briefcase" x="252" y="176" xmlns="http://www.w3.org/2000/svg"><g fill="#6200ee"><path d="M23.881 51.85h52.237c12.803 0 17.893-3.254 18.881-12.961v-6.707c0-5.422-2.13-7.552-7.552-7.552H12.552C7.13 24.628 5 26.758 5 32.181v6.707c.988 9.707 6.077 12.962 18.881 12.962z"/><path d="M76.119 55.625H58.557V68.96c0 2.033-.799 2.832-2.834 2.832H44.277c-2.034 0-2.833-.799-2.833-2.832V55.625H23.881c-8.321 0-14.95-1.307-18.881-6.181v33.559c0 5.423 2.13 7.552 7.552 7.552h74.896c5.422 0 7.552-2.129 7.552-7.552V49.445c-3.932 4.873-10.561 6.18-18.881 6.18z"/><path d="M46.165 55.625c-.677 0-.944.268-.944.943V67.07c0 .679.267.945.944.945h7.671c.678 0 .943-.267.943-.943V56.568c0-.678-.266-.943-.943-.943h-7.671zm.25-40.989h7.173c6.205 0 6.688.955 6.688 7.16h6.607c0-11.636-.715-12.352-12.351-12.352H45.47c-11.636 0-12.352.716-12.352 12.352h6.609c0-6.205.482-7.16 6.688-7.16z"/></g></svg><svg viewBox="24.48 69.5 285.69 214.93" height="22" width="22" fill-rule="evenodd" clip-rule="evenodd" shape-rendering="geometricPrecision" image-rendering="optimizeQuality" id="500--section-telephone" x="252" y="154" xmlns="http://www.w3.org/2000/svg"><path fill="#6200ee" d="M235 127zm-67 18c57 0 57 70 0 70s-57-70 0-70zm26 15c-34-26-85 13-52 40 34 27 85-13 52-40zm77 104c-14-75 9-8-27-74-8-13-13 14-22-31-3-22-15-29-15-29l21-26c33 6-11 28 13 43 0 0 57 24 64 10 5-10 8-38-6-49-70-50-194-50-263 0-15 11-11 39-6 49 6 12 71-6 71-20 0-16-20-28 5-33l22 26c-18 10-18 55-24 56-2 0-10-1-13 4-37 66-13 1-27 74-1 4 2 10 7 11-2 9 32 11 33 5l63-1h1l63 1c1 6 35 4 32-5 5-1 8-7 8-11zm-69-163c-7 10-22 9-34 8h-1c-12 1-28 2-34-8h69zm33 26zm-135 0zm0 0z" fill-rule="nonzero"/></svg><svg version="1" viewBox="-1 -1 102 83.1" height="22" width="22" id="500--section-tools" x="252" y="132" xmlns="http://www.w3.org/2000/svg"><path fill="#6200ee" d="M78.952 66.572c3.225 3.225 3.225 8.385-.13 11.739-3.225 3.225-8.514 3.225-11.867 0l-20.641-22.06-19.35 23.35c-1.806 1.935-5.16 2.063-6.966 0l-4.902-5.031a4.949 4.949 0 0 1-.129-7.096l22.317-20.769-10.707-10.19c-3.612-3.354-5.676-4.386-8.514-3.483-2.838 1.032-6.837 1.032-10.578-1.419C-.384 26.582.003 16.778.003 16.778l.645-1.032 8.127 5.289s5.031 3.096 8.901-2.838c4.386-6.966-.516-9.804-.516-9.804l-8.127-5.16.774-1.033s7.482-4.773 16.254.258c5.418 3.225 8.127 9.546 6.708 15.738-.774 3.741 0 5.031 2.967 8.256l10.836 10.707L59.215 24.13l9.546 9.546-12.643 12.513 22.834 20.383zM91.98 26.969c1.549-1.548 4.129-1.29 5.548.129l1.419 1.419c1.548 1.548 1.29 3.87-.129 5.289l-7.74 7.74c-1.548 1.548-3.87 1.677-5.418.129l-1.419-1.419a3.892 3.892 0 0 1 0-5.547c.258-.903-.517-2.58-2.064-4.129-3.225-3.225-6.966-3.354-8.772-1.677l-2.58 2.709-9.417-9.675 2.709-2.58c2.968-3.096-.387-6.321-.387-6.321-8.256-8.256-19.867-7.998-19.867-7.998l-.129-3.096C67.342-4.25 76.243 6.07 79.468 9.166l6.837 6.837c1.677 1.806-.129 6.708 2.322 9.288 1.032 1.161 2.322 1.549 3.353 1.678zM73.018 76.763c2.451 0 4.386-1.935 4.386-4.386s-1.935-4.386-4.386-4.386-4.386 1.935-4.386 4.386 1.934 4.386 4.386 4.386z"/></svg><svg viewBox="12.73 3.95 74.54 91.7" height="22" width="22" id="500--section-user3" x="252" y="110" xmlns="http://www.w3.org/2000/svg"><path fill="#6200ee" d="M80.93 48.668s-.703-10.167-1.27-12.576c-.051-.22-.111-.438-.169-.655 4.115-3.09 6.777-8.01 6.777-13.552 0-9.354-7.584-16.937-16.938-16.937-5.218 0-9.884 2.362-12.991 6.073-2.227-3.251-5.965-5.387-10.203-5.387v7.271a27.615 27.615 0 0 0-4.869-.438c-15.205 0-27.535 12.329-27.535 27.536 0 8.615 3.961 16.305 10.157 21.354h-4.303c0 1.266.192 2.484.546 3.635H16.61c0 9.352 7.585 16.938 16.938 16.938 1.445 0 2.849-.184 4.188-.523v7.045l25.314 6.195V80.061s5.441.803 7.27.916c6.273.393 11.386-3.266 11.386-9.559v-8.07s4.271-2.198 4.271-3.481c0-.324-.151-.635-.269-.908L80.93 48.668z"/></svg><svg viewBox="-0.37 -0.61 92.21 92.32" height="42" width="42" id="500--skills-branding-design" x="210" y="168" xmlns="http://www.w3.org/2000/svg"><g fill="#6200ee"><path d="M88.266 18.375a8.75 8.75 0 0 0 2.574-6.293 8.922 8.922 0 0 0-2.639-6.295L85.438 3.03A8.915 8.915 0 0 0 79.092.391a8.74 8.74 0 0 0-6.232 2.578L45.934 29.893l-2.848-2.846-.01-.014-.016-.012-7.46-7.46-.016-.02c-.004-.006-.012-.008-.018-.014l-9.354-9.354c-.008-.008-.012-.016-.018-.023a.461.461 0 0 1-.023-.018l-8.924-8.924a2.1 2.1 0 0 0-2.969 0L1.242 14.247a2.1 2.1 0 0 0 0 2.969l28.684 28.683-24.42 24.418a2.097 2.097 0 0 0-.615 1.484c0 .172.027.34.068.504L.924 87.954a2.098 2.098 0 0 0 2.034 2.625c.184 0 .369-.023.551-.074l15.504-4.209a2.093 2.093 0 0 0 1.906-.57l24.416-24.419 28.787 28.784c.41.41.947.615 1.484.615s1.074-.205 1.484-.615l13.037-13.037a2.101 2.101 0 0 0 0-2.968l-7.588-7.588-.006-.008a.035.035 0 0 0-.01-.008l-9.371-9.37-.01-.012-.014-.012-8.314-8.313-.033-.043c-.014-.014-.031-.021-.045-.035l-3.396-3.396 26.926-26.926zM19.432 81.271l-7.564-7.563-1.906-1.906 59.754-59.749 9.465 9.469-59.749 59.749zM75.83 5.936c1.756-1.758 4.844-1.732 6.639.064l2.764 2.758c.9.898 1.4 2.09 1.408 3.35a4.587 4.587 0 0 1-1.346 3.299l-3.145 3.146-9.467-9.471 3.147-3.146zM5.697 15.731L15.764 5.665l5.973 5.973-3.563 3.559a2.105 2.105 0 0 0 0 2.971c.41.41.947.615 1.486.615.537 0 1.074-.205 1.484-.615l3.563-3.559 6.422 6.42-6.332 6.33a2.1 2.1 0 1 0 2.97 2.969l6.33-6.33 4.523 4.523-3.563 3.561a2.1 2.1 0 0 0 2.968 2.969l3.563-3.561 1.375 1.373L32.896 42.93 5.697 15.731zm.196 69.776l2.426-9.406 4.652 4.65L15.2 82.98l-9.307 2.527zM60.32 50.221l-3.561 3.559a2.102 2.102 0 0 0 2.97 2.971l3.561-3.561 5.395 5.396-6.33 6.327a2.102 2.102 0 0 0 1.484 3.586c.537 0 1.074-.205 1.484-.615l6.332-6.329 6.422 6.421-3.564 3.563a2.102 2.102 0 0 0 2.97 2.971l3.563-3.564 4.625 4.625-10.066 10.065-27.3-27.298 10.066-10.066 1.949 1.949z"/><path d="M70.891 20.34a2.1 2.1 0 0 0-2.969 0L20.875 67.388a2.1 2.1 0 0 0 2.968 2.969L70.89 23.312a2.102 2.102 0 0 0 .001-2.972z"/></g></svg><svg viewBox="12.48 -1 75.03 102" height="42" width="42" id="500--skills-intuitive-brainbulb" xmlns="http://www.w3.org/2000/svg"><path fill="#6200ee" d="M77.033 78.783c-1.867-2.403-2.25-7.876-2.135-10.275.178-3.737 9.388-22.813 10.007-30.156.667-7.917-1.022-21.706-11.608-30.156C63.883.681 39.671-7.283 23.66 12.065c-3.491 4.219-6.383 8.63-6.538 11.432-.178 3.202-.4 15.923.266 16.857.668.934 2.002 2.269 2.002 3.469s-4.937 9.874-5.604 11.076c-.667 1.199-.133 3.202.667 3.868.801.667 4.77 1.402 4.904 2.203.134.8-.234 3.001-.767 3.935-.534.935 2.301 2.369 2.969 3.037.667.666-.734.8-1.101 2.167-.104.387.934 1.469 1.334 2.669.33.988-.074 3.382-.467 6.472-.3 2.368 2.547 4.354 4.637 5.07 1.167.401 10.241-.199 10.908-.867.668-.667 4.635 9.598 6.139 16.412.086.392 16.195.02 24.519-2.258 6.596-1.806 19.382-9.884 18.98-11.886-.402-2.001-7.607-4.536-9.475-6.938zm-2.789-41.73c-.321 12.626-9.083 16.481-15.917 8.859a25.658 25.658 0 0 0-3.152-2.979v-4.584a7.967 7.967 0 0 0 3.782-6.778 7.983 7.983 0 0 0-15.966 0 7.97 7.97 0 0 0 3.939 6.874v.587c-2.614-.561-5.108-.642-7.441-.918-18.488-2.19-10.763-16.576-8.308-19.543 11.259-13.604 28.282-8.003 34.9-2.72 7.444 5.941 8.306 15.618 8.163 21.202z"/><path fill="#7B2DCB" d="M33.518 29.816h7.369v3.508h-7.369zm27.543 0h7.369v3.508h-7.369zM49.219 14.114h3.509v7.369h-3.509zm-6.616 11.564l-5.21-5.21 2.48-2.48 5.21 5.21zm19.473 19.476l-5.209-5.21 2.481-2.48 5.21 5.21zm.002-27.168l2.481 2.48-5.208 5.21-2.481-2.48z"/></svg><svg viewBox="-0.35 11.35 64.61 41.36" height="42" width="42" id="500--skills-performance" x="42" y="210" xmlns="http://www.w3.org/2000/svg"><g fill="#6200ee"><path d="M24.8 42.3c-2.3.7-3.6 2.7-3.4 5.1.3 2.3 2.1 4.1 4.5 4.3 1.5.1 2.7-.4 4-1.7 2.9-2.9 11-10.5 13.7-13 .2-.2 0-.5-.3-.5-3.8 1.1-15.7 5-18.5 5.8z"/><path d="M58.7 27.3c-.5-.9-1.1-1.7-1.8-2.6-4.5-6-11.2-10.3-19.1-11.8-17-3.2-33.4 7.9-36.6 24.9-.8 4.1-.7 8.3.1 12.4l.3 1.5 4.7-1-.2-1.4c-.6-4.2 0-8.5 1.5-12.5 1.5-3.8 3.8-7.2 6.9-9.9 1.4-1.2 3-2.3 4.9-3.2 1.7-.8 3.5-1.5 5.4-1.9 1.8-.4 3.7-.6 5.5-.5 1.8.1 3.6.4 5.4.8 3.4 1 6.5 2.8 9 5.2 1.1 1.1 2.1 2.3 2.9 3.6l1.5 2.7c.3.7.6 1.4.8 2.1.5 1.5.7 3.1.8 4.7.1 1.5 0 3.1-.3 4.6-.2.8-.4 1.7-.7 2.5l-.6 1.7 13.1 2.5.3-1.5c0-.2.1-.4.1-.6 1.7-8.1 0-15.9-3.9-22.3zm-5.5 19.4l.3-1.2c.3-1.8.5-3.6.4-5.4-.1-1.9-.4-3.7-1-5.4-.3-1-.7-1.9-1.1-2.9l4.4-2.9c3.4 5.5 4.8 12.2 3.8 19l-6.8-1.2z"/></g></svg><svg viewBox="1.5 13 97 74.1" height="42" width="42" id="500--skills-responsive" x="84" y="210" xmlns="http://www.w3.org/2000/svg"><g fill="#6200ee"><path d="M8.3 19.9h70.5v11h5.9V17.7c0-2-1.7-3.7-3.7-3.7H6.2c-2 0-3.7 1.7-3.7 3.7v50.7c0 2 1.6 3.7 3.7 3.7h30.1v6.7h-6.6c-1 0-1.8.8-1.8 1.8v3.5c0 1 .8 1.8 1.8 1.8h28c1 0 1.8-.8 1.8-1.8v-3.5c0-1-.8-1.8-1.8-1.8H51v-6.7h13.8V59.2H8.3V19.9zM43.6 63c1.4 0 2.6 1.2 2.6 2.6 0 1.4-1.2 2.6-2.6 2.6-1.4 0-2.6-1.2-2.6-2.6 0-1.4 1.2-2.6 2.6-2.6z"/><path d="M93.5 35.1H72.9c-2.2 0-3.9 1.8-3.9 4v43c0 2.2 1.8 4 3.9 4h20.6c2.2 0 4-1.8 4-4V39c0-2.2-1.8-3.9-4-3.9zM79.9 38h6.5c.5 0 .9.4.9.9s-.4.9-.9.9h-6.5c-.5 0-.9-.4-.9-.9s.4-.9.9-.9zm3.3 45.1c-1.4 0-2.6-1.2-2.6-2.6 0-1.4 1.2-2.6 2.6-2.6 1.4 0 2.6 1.2 2.6 2.6 0 1.4-1.2 2.6-2.6 2.6zm10-8.1h-20V42.7h20.1V75z"/></g></svg><svg viewBox="0.17 12 100.13 75.48" height="42" width="42" id="500--skills-seo" x="126" y="210" xmlns="http://www.w3.org/2000/svg"><path fill="#6200ee" d="M85.1 65.8l-3.2-1.3c.1-1.3.1-2.6-.1-3.8l3.2-1.4c.7-.3 1-1 .7-1.7l-2.6-5.9c-.3-.7-1-1-1.7-.7l-3.2 1.4c-.8-1-1.7-1.9-2.7-2.7l1.3-3.2c.3-.7-.1-1.4-.7-1.7l-3.6-1.4v.4c0 3.8-.8 7.4-2.1 10.7 4.1 2.4 6 7.5 4.2 12.1-2 5-7.7 7.5-12.8 5.5-1.7-.7-3.2-1.9-4.2-3.3-3.3 1.8-6.9 2.9-10.8 3.3l.9 2c.3.7 1 1 1.7.7l3.2-1.4c.8 1 1.7 1.9 2.7 2.7L54 79.2c-.3.7.1 1.4.7 1.7l6 2.4c.7.3 1.4-.1 1.7-.7l1.3-3.2c1.3.1 2.6.1 3.8-.1l1.4 3.2c.3.7 1 1 1.7.7l5.9-2.6c.7-.3 1-1 .7-1.7l-1.4-3.2c1-.8 1.9-1.7 2.7-2.7l3.2 1.3c.7.3 1.4-.1 1.7-.7l2.4-6c.3-.7-.1-1.5-.7-1.8zM58.7 43.7v-.5l-4.5 1.9c-.7.3-1 1-.7 1.7l1.4 3.2c-1 .8-1.9 1.7-2.7 2.7L49 51.5c-.7-.3-1.4.1-1.7.7l-2.4 6v.2c7.7-.5 13.8-6.9 13.8-14.7zm39.6-18.1l-2.5-.2c-.2-.9-.5-1.8-.9-2.6l1.9-1.6c.4-.3.4-.9.1-1.3l-3-3.5c-.3-.4-.9-.4-1.3-.1L90.7 18c-.8-.5-1.6-.9-2.5-1.2l.2-2.5c0-.5-.4-.9-.9-1L83 13c-.5 0-.9.4-1 .9l-.2 2.5c-.9.2-1.8.5-2.6.9l-1.6-1.9c-.3-.4-.9-.4-1.3-.1l-3.5 3c-.4.3-.4.9-.1 1.3l1.6 1.9c-.5.8-.9 1.6-1.2 2.5l-2.5-.2c-.5 0-.9.3-1 .9l-.3 4.6c0 .5.4.9.9 1l2.5.2c.2.9.5 1.8.9 2.6l-1.9 1.6c-.4.3-.4.9-.1 1.3l3 3.5c.3.4.9.4 1.3.1l1.9-1.6c.8.5 1.6.9 2.5 1.2l-.2 2.5c0 .5.3.9.9 1l4.6.3c.5 0 .9-.4 1-.9l.2-2.5c.9-.2 1.8-.5 2.6-.9l1.6 1.9c.3.4.9.4 1.3.1l3.5-3c.4-.3.4-.9.1-1.3l-1.6-1.9c.5-.8.9-1.6 1.2-2.5l2.5.2c.5 0 .9-.4 1-.9l.3-4.6c-.1-.6-.4-1-1-1.1zm-14.5 9.3c-3.9-.3-6.8-3.6-6.5-7.5.3-3.9 3.6-6.8 7.5-6.5 3.9.3 6.8 3.6 6.5 7.5-.2 3.9-3.6 6.8-7.5 6.5z"/><path fill="#7B2DCB" d="M46.2 50.8v-1.6c.6-.2 1.1-.4 1.6-.7l1.2 1.1c.2.2.6.2.8 0l2.1-2.2c.2-.2.2-.6 0-.8l-1.2-1.1c.3-.5.5-1.1.7-1.7H53c.3 0 .6-.3.6-.6v-3c0-.3-.3-.6-.6-.6h-1.6c-.2-.6-.4-1.1-.7-1.6l1.1-1.2c.2-.2.2-.6 0-.8l-2.2-2.1c-.2-.2-.6-.2-.8 0l-1.1 1.2c-.5-.3-1.1-.5-1.7-.7v-1.6c0-.3-.3-.6-.6-.6h-3c-.3 0-.6.3-.6.6v1.6c-.6.2-1.1.4-1.6.7l-1.2-1c-.2-.2-.6-.2-.8 0l-2.1 2.2c-.2.2-.2.6 0 .8l1.2 1.1c-.3.5-.5 1.1-.7 1.7H35c-.3 0-.6.3-.6.6v3c0 .3.3.6.6.6h1.6c.2.6.4 1.1.7 1.6l-1.1 1.2c-.2.2-.2.6 0 .8l2.2 2.1c.2.2.6.2.8 0l1.1-1.2c.5.3 1.1.5 1.7.7v1.6c0 .3.3.6.6.6h3c.4-.1.6-.4.6-.7zm-6.8-8.9c0-2.5 2-4.6 4.5-4.6s4.6 2 4.6 4.5-2 4.6-4.5 4.6-4.5-2-4.6-4.5z"/><path fill="#7B2DCB" d="M67.5 53.3c1.2-3 1.9-6.2 1.9-9.6 0-.5 0-.9-.1-1.4-.2-3.9-1.2-7.5-3-10.7-2-3.6-4.8-6.7-8.1-9-1.4-.9-2.8-1.7-4.3-2.3-2.3-1-4.7-1.6-7.3-1.9-.9-.1-1.7-.1-2.6-.1-14 0-25.4 11.4-25.4 25.4 0 4.6 1.3 9 3.4 12.7l-.3.3-.9.9c1 1.7 1.7 3 3.9 5.3 1.5 1.5 3.7 3 5.4 3.9l.9-.9.3-.3c3.8 2.2 8.1 3.5 12.8 3.5.5 0 1 0 1.5-.1 3.8-.2 7.4-1.3 10.6-3 5.1-2.7 9.1-7.2 11.3-12.7zm-41.3-9.6c0-9.8 8-17.7 17.8-17.7 9.6 0 17.4 7.6 17.7 17.1v.7C61.7 52 56 59 48.3 60.9c-1.4.3-2.8.5-4.3.5-9.8.1-17.8-7.9-17.8-17.7zM3 75.4c-.1.3-4.6 3.2.9 8.6 5.1 5.1 8 .8 8.4.6l15.5-15.5c-1.3-.7-3.1-1.9-5.3-4.1-2.1-2.1-3.3-3.8-4-5.1L3 75.4"/></svg><svg viewBox="1.98 2 76.03 76" height="42" width="42" id="500--skills-ux-hand" x="168" y="210" xmlns="http://www.w3.org/2000/svg"><g fill="#6200ee"><path d="M75.245 67.906c.48-.861.755-1.852.755-2.906V47.4c0-2.426-1.974-4.4-4.4-4.4h-.4c-.188 0-.374.012-.557.035A4.406 4.406 0 0 0 66.4 39.8h-.8c-.439 0-.863.064-1.264.185A4.395 4.395 0 0 0 60.8 38.2H60a4.41 4.41 0 0 0-.4.018v-4.415a4.808 4.808 0 0 0-4.793-4.799H54.8a4.766 4.766 0 0 0-3.391 1.403A4.767 4.767 0 0 0 50 33.804v16.689c0 .16-.071.278-.212.354a.376.376 0 0 1-.411-.021l-.77-.518a15.55 15.55 0 0 0-6.668-2.485l-.132-.017a4.276 4.276 0 0 0-3.671 1.33 4.264 4.264 0 0 0-1.052 3.73 4.418 4.418 0 0 0 1.735 2.708l2.607 1.896c3.054 2.22 5.665 5.663 7.353 9.693l.135.32c.233.512.537.978.891 1.395A4.365 4.365 0 0 0 49 71.4v1.2c0 2.426 1.974 4.4 4.4 4.4H65a2 2 0 0 0 0-4H53.4a.4.4 0 0 1-.4-.4v-1.2a.4.4 0 0 1 .4-.4h19.2a.4.4 0 0 1 .4.4v1.2a.4.4 0 0 1-.4.4H71a2 2 0 0 0 0 4h1.6c2.426 0 4.4-1.974 4.4-4.4v-1.2c0-1.43-.696-2.689-1.755-3.494zM54.376 67c-.782 0-1.497-.46-1.797-1.117l-.111-.265c-1.966-4.696-5.052-8.738-8.689-11.383l-2.606-1.896a.425.425 0 0 1-.167-.262c-.006-.031-.025-.125.061-.219a.263.263 0 0 1 .198-.086l.042.002.131.017c1.761.22 3.472.857 4.942 1.839l.765.514a4.391 4.391 0 0 0 4.523.232A4.388 4.388 0 0 0 54 50.494v-16.69a.796.796 0 0 1 .8-.8h.001c.44 0 .799.36.799.8V44.6a2 2 0 0 0 4 0v-2a.4.4 0 0 1 .4-.4h.8a.4.4 0 0 1 .4.4v3.6a2 2 0 0 0 4 0v-2a.4.4 0 0 1 .4-.4h.8a.4.4 0 0 1 .4.4v4.4a2 2 0 0 0 4 0v-1.2a.4.4 0 0 1 .4-.4h.4a.4.4 0 0 1 .4.4V65c0 1.103-.897 2-2 2H54.376z"/><path d="M42 29.5v-9c0-3.033 2.467-5.5 5.5-5.5s5.5 2.467 5.5 5.5V25a2 2 0 0 0 4 0v-4.5c0-5.238-4.262-9.5-9.5-9.5S38 15.262 38 20.5v9C38 36.393 32.393 42 25.5 42S13 36.393 13 29.5V9.828l2.586 2.586c.39.391.902.586 1.414.586s1.024-.195 1.414-.586a2 2 0 0 0 0-2.828l-5.999-5.999a1.988 1.988 0 0 0-.306-.25c-.05-.034-.105-.057-.158-.086-.062-.034-.121-.071-.186-.098-.067-.028-.137-.044-.206-.064-.056-.016-.11-.038-.168-.05a2.028 2.028 0 0 0-.784 0c-.058.012-.112.033-.168.05-.069.02-.138.036-.205.064-.066.027-.125.065-.187.099-.052.028-.106.051-.156.085-.11.074-.213.157-.306.25L3.586 9.586a2 2 0 1 0 2.828 2.828L9 9.828V29.5C9 38.598 16.402 46 25.5 46S42 38.598 42 29.5z"/></g></svg><svg viewBox="3.72 0.93 19.61 24.83" height="42" width="42" id="500--skills-webstandards-quality" y="210" xmlns="http://www.w3.org/2000/svg"><path fill="#6200ee" d="M12.751 18.88c.263.325.551.665.778.665.243 0 .556-.389.831-.731.322-.399.654-.812 1.085-.927.413-.111.95.075 1.442.263.416.16.873.317 1.046.216.2-.116.276-.602.342-1.031.081-.513.163-1.044.484-1.366.322-.322.853-.405 1.367-.485.428-.067.913-.143 1.029-.342.112-.193-.07-.666-.216-1.046-.188-.489-.383-.995-.264-1.442.116-.431.529-.763.928-1.084.343-.276.732-.589.732-.832s-.388-.556-.731-.832c-.399-.322-.812-.654-.928-1.084-.119-.447.075-.953.264-1.442.146-.38.328-.853.216-1.045-.116-.2-.601-.276-1.029-.343-.514-.08-1.045-.163-1.367-.485-.322-.321-.404-.852-.485-1.366-.066-.429-.142-.914-.342-1.03-.171-.1-.629.057-1.045.216-.493.189-1.031.373-1.443.263-.43-.115-.763-.528-1.085-.927-.276-.343-.589-.731-.831-.731-.243 0-.556.389-.832.732-.322.399-.654.812-1.085.927-.411.11-.95-.074-1.443-.263-.415-.161-.872-.318-1.043-.217-.2.116-.276.601-.343 1.03-.081.513-.163 1.045-.485 1.366-.322.323-.853.405-1.368.486-.428.066-.913.142-1.029.342-.112.192.071.665.217 1.045.188.49.383.996.264 1.443-.115.43-.528.763-.927 1.084-.343.276-.731.589-.731.832s.389.556.732.832c.399.322.812.654.927 1.084.119.446-.075.953-.264 1.442-.146.38-.329.853-.217 1.045.116.2.601.275 1.029.342.514.08 1.045.163 1.367.485"/><path fill="#7B2DCB" d="M11.434 18.557c-.213-.058-.631.093-1.014.241-.581.224-1.22.414-1.642.169-.19-.11-.31-.283-.404-.478l-1.959 4.699 2.819-1.315 1.067 2.888 2.151-5.159c-.1-.114-.198-.234-.294-.354-.242-.297-.513-.634-.724-.691zm6.846.41c-.421.244-1.06.055-1.642-.169-.383-.148-.802-.298-1.014-.241-.211.057-.483.394-.723.692-.079.098-.16.195-.241.29l2.177 5.222 1.067-2.888 2.819 1.315-1.994-4.783c-.097.233-.23.436-.449.562z"/><path fill="#7B2DCB" d="M21.604 9.907c-.399-.322-.812-.654-.928-1.084-.119-.447.075-.953.264-1.442.146-.38.328-.853.216-1.045-.116-.2-.601-.276-1.029-.343-.514-.08-1.045-.163-1.367-.485-.322-.321-.404-.852-.485-1.366-.066-.429-.142-.914-.342-1.03-.171-.1-.629.057-1.045.216-.493.189-1.031.373-1.443.263-.43-.115-.763-.528-1.085-.927-.276-.343-.589-.731-.831-.731-.243 0-.556.389-.832.732-.322.399-.654.812-1.085.927-.411.11-.95-.074-1.443-.263-.415-.162-.872-.319-1.043-.218-.2.116-.276.601-.343 1.03-.081.513-.163 1.045-.485 1.366-.322.323-.853.405-1.368.486-.428.066-.913.142-1.029.342-.112.192.071.665.217 1.045.188.49.383.996.264 1.443-.115.43-.528.763-.927 1.084-.343.276-.731.589-.731.832s.389.556.732.832c.399.322.812.654.927 1.084.119.446-.075.953-.264 1.442-.146.38-.329.853-.217 1.045.116.2.601.275 1.029.342.514.08 1.045.163 1.367.485.321.322.404.853.484 1.366l.02.123c.063.395.142.803.323.908.173.1.629-.056 1.045-.216.384-.147.781-.3 1.149-.3.104 0 .203.013.293.037.43.115.762.527 1.083.926l.055.067c.263.325.551.665.778.665.242 0 .554-.387.83-.729l.002-.002c.322-.399.654-.812 1.085-.927.413-.111.95.075 1.442.263.416.16.873.317 1.046.216.2-.116.276-.602.342-1.031a.059.059 0 0 0 .002-.013c.08-.509.164-1.034.482-1.352.322-.322.853-.405 1.367-.485.428-.067.913-.143 1.029-.342.112-.193-.07-.666-.216-1.046-.188-.489-.383-.995-.264-1.442.116-.431.529-.763.928-1.084.343-.276.732-.589.732-.832.001-.243-.388-.556-.731-.832zm-8.075 7.163a6.338 6.338 0 0 1-6.331-6.331c0-3.491 2.84-6.331 6.331-6.331s6.331 2.84 6.331 6.331a6.338 6.338 0 0 1-6.331 6.331z"/><path fill="#7B2DCB" d="M13.529 5.796c-2.726 0-4.943 2.218-4.943 4.943s2.218 4.943 4.943 4.943 4.943-2.218 4.943-4.943-2.217-4.943-4.943-4.943zm1.789 7.54l-1.78-.929-1.774.94.333-1.98-1.444-1.397 1.986-.295.883-1.804.894 1.798 1.988.282-1.433 1.406.347 1.979z"/></svg><svg viewBox="17.57 4 64.86 92" height="18" width="18" id="700--other-location" x="228" y="232" xmlns="http://www.w3.org/2000/svg"><path fill="#3700b3" d="M51.542 94.324c6.317-6.818 29.89-33.87 29.89-57.892a31.432 31.432 0 0 0-62.864 0c0 24.023 23.573 51.074 29.89 57.892a2.097 2.097 0 0 0 3.084 0zM33.618 36.432A16.382 16.382 0 1 1 50 52.814a16.382 16.382 0 0 1-16.382-16.382z"/></svg><svg viewBox="4 8.44 92 83.11" height="22" width="22" id="700--section-briefcase" x="252" y="22" xmlns="http://www.w3.org/2000/svg"><g fill="#3700b3"><path d="M23.881 51.85h52.237c12.803 0 17.893-3.254 18.881-12.961v-6.707c0-5.422-2.13-7.552-7.552-7.552H12.552C7.13 24.628 5 26.758 5 32.181v6.707c.988 9.707 6.077 12.962 18.881 12.962z"/><path d="M76.119 55.625H58.557V68.96c0 2.033-.799 2.832-2.834 2.832H44.277c-2.034 0-2.833-.799-2.833-2.832V55.625H23.881c-8.321 0-14.95-1.307-18.881-6.181v33.559c0 5.423 2.13 7.552 7.552 7.552h74.896c5.422 0 7.552-2.129 7.552-7.552V49.445c-3.932 4.873-10.561 6.18-18.881 6.18z"/><path d="M46.165 55.625c-.677 0-.944.268-.944.943V67.07c0 .679.267.945.944.945h7.671c.678 0 .943-.267.943-.943V56.568c0-.678-.266-.943-.943-.943h-7.671zm.25-40.989h7.173c6.205 0 6.688.955 6.688 7.16h6.607c0-11.636-.715-12.352-12.351-12.352H45.47c-11.636 0-12.352.716-12.352 12.352h6.609c0-6.205.482-7.16 6.688-7.16z"/></g></svg><svg viewBox="24.48 69.5 285.69 214.93" height="22" width="22" fill-rule="evenodd" clip-rule="evenodd" shape-rendering="geometricPrecision" image-rendering="optimizeQuality" id="700--section-telephone" x="252" y="44" xmlns="http://www.w3.org/2000/svg"><path fill="#3700b3" d="M235 127zm-67 18c57 0 57 70 0 70s-57-70 0-70zm26 15c-34-26-85 13-52 40 34 27 85-13 52-40zm77 104c-14-75 9-8-27-74-8-13-13 14-22-31-3-22-15-29-15-29l21-26c33 6-11 28 13 43 0 0 57 24 64 10 5-10 8-38-6-49-70-50-194-50-263 0-15 11-11 39-6 49 6 12 71-6 71-20 0-16-20-28 5-33l22 26c-18 10-18 55-24 56-2 0-10-1-13 4-37 66-13 1-27 74-1 4 2 10 7 11-2 9 32 11 33 5l63-1h1l63 1c1 6 35 4 32-5 5-1 8-7 8-11zm-69-163c-7 10-22 9-34 8h-1c-12 1-28 2-34-8h69zm33 26zm-135 0zm0 0z" fill-rule="nonzero"/></svg><svg version="1" viewBox="-1 -1 102 83.1" height="22" width="22" id="700--section-tools" x="252" y="66" xmlns="http://www.w3.org/2000/svg"><path fill="#3700b3" d="M78.952 66.572c3.225 3.225 3.225 8.385-.13 11.739-3.225 3.225-8.514 3.225-11.867 0l-20.641-22.06-19.35 23.35c-1.806 1.935-5.16 2.063-6.966 0l-4.902-5.031a4.949 4.949 0 0 1-.129-7.096l22.317-20.769-10.707-10.19c-3.612-3.354-5.676-4.386-8.514-3.483-2.838 1.032-6.837 1.032-10.578-1.419C-.384 26.582.003 16.778.003 16.778l.645-1.032 8.127 5.289s5.031 3.096 8.901-2.838c4.386-6.966-.516-9.804-.516-9.804l-8.127-5.16.774-1.033s7.482-4.773 16.254.258c5.418 3.225 8.127 9.546 6.708 15.738-.774 3.741 0 5.031 2.967 8.256l10.836 10.707L59.215 24.13l9.546 9.546-12.643 12.513 22.834 20.383zM91.98 26.969c1.549-1.548 4.129-1.29 5.548.129l1.419 1.419c1.548 1.548 1.29 3.87-.129 5.289l-7.74 7.74c-1.548 1.548-3.87 1.677-5.418.129l-1.419-1.419a3.892 3.892 0 0 1 0-5.547c.258-.903-.517-2.58-2.064-4.129-3.225-3.225-6.966-3.354-8.772-1.677l-2.58 2.709-9.417-9.675 2.709-2.58c2.968-3.096-.387-6.321-.387-6.321-8.256-8.256-19.867-7.998-19.867-7.998l-.129-3.096C67.342-4.25 76.243 6.07 79.468 9.166l6.837 6.837c1.677 1.806-.129 6.708 2.322 9.288 1.032 1.161 2.322 1.549 3.353 1.678zM73.018 76.763c2.451 0 4.386-1.935 4.386-4.386s-1.935-4.386-4.386-4.386-4.386 1.935-4.386 4.386 1.934 4.386 4.386 4.386z"/></svg><svg viewBox="12.73 3.95 74.54 91.7" height="22" width="22" id="700--section-user3" x="252" y="88" xmlns="http://www.w3.org/2000/svg"><path fill="#3700b3" d="M80.93 48.668s-.703-10.167-1.27-12.576c-.051-.22-.111-.438-.169-.655 4.115-3.09 6.777-8.01 6.777-13.552 0-9.354-7.584-16.937-16.938-16.937-5.218 0-9.884 2.362-12.991 6.073-2.227-3.251-5.965-5.387-10.203-5.387v7.271a27.615 27.615 0 0 0-4.869-.438c-15.205 0-27.535 12.329-27.535 27.536 0 8.615 3.961 16.305 10.157 21.354h-4.303c0 1.266.192 2.484.546 3.635H16.61c0 9.352 7.585 16.938 16.938 16.938 1.445 0 2.849-.184 4.188-.523v7.045l25.314 6.195V80.061s5.441.803 7.27.916c6.273.393 11.386-3.266 11.386-9.559v-8.07s4.271-2.198 4.271-3.481c0-.324-.151-.635-.269-.908L80.93 48.668z"/></svg><svg viewBox="-0.37 -0.61 92.21 92.32" height="42" width="42" id="700--skills-branding-design" x="210" y="126" xmlns="http://www.w3.org/2000/svg"><g fill="#3700b3"><path d="M88.266 18.375a8.75 8.75 0 0 0 2.574-6.293 8.922 8.922 0 0 0-2.639-6.295L85.438 3.03A8.915 8.915 0 0 0 79.092.391a8.74 8.74 0 0 0-6.232 2.578L45.934 29.893l-2.848-2.846-.01-.014-.016-.012-7.46-7.46-.016-.02c-.004-.006-.012-.008-.018-.014l-9.354-9.354c-.008-.008-.012-.016-.018-.023a.461.461 0 0 1-.023-.018l-8.924-8.924a2.1 2.1 0 0 0-2.969 0L1.242 14.247a2.1 2.1 0 0 0 0 2.969l28.684 28.683-24.42 24.418a2.097 2.097 0 0 0-.615 1.484c0 .172.027.34.068.504L.924 87.954a2.098 2.098 0 0 0 2.034 2.625c.184 0 .369-.023.551-.074l15.504-4.209a2.093 2.093 0 0 0 1.906-.57l24.416-24.419 28.787 28.784c.41.41.947.615 1.484.615s1.074-.205 1.484-.615l13.037-13.037a2.101 2.101 0 0 0 0-2.968l-7.588-7.588-.006-.008a.035.035 0 0 0-.01-.008l-9.371-9.37-.01-.012-.014-.012-8.314-8.313-.033-.043c-.014-.014-.031-.021-.045-.035l-3.396-3.396 26.926-26.926zM19.432 81.271l-7.564-7.563-1.906-1.906 59.754-59.749 9.465 9.469-59.749 59.749zM75.83 5.936c1.756-1.758 4.844-1.732 6.639.064l2.764 2.758c.9.898 1.4 2.09 1.408 3.35a4.587 4.587 0 0 1-1.346 3.299l-3.145 3.146-9.467-9.471 3.147-3.146zM5.697 15.731L15.764 5.665l5.973 5.973-3.563 3.559a2.105 2.105 0 0 0 0 2.971c.41.41.947.615 1.486.615.537 0 1.074-.205 1.484-.615l3.563-3.559 6.422 6.42-6.332 6.33a2.1 2.1 0 1 0 2.97 2.969l6.33-6.33 4.523 4.523-3.563 3.561a2.1 2.1 0 0 0 2.968 2.969l3.563-3.561 1.375 1.373L32.896 42.93 5.697 15.731zm.196 69.776l2.426-9.406 4.652 4.65L15.2 82.98l-9.307 2.527zM60.32 50.221l-3.561 3.559a2.102 2.102 0 0 0 2.97 2.971l3.561-3.561 5.395 5.396-6.33 6.327a2.102 2.102 0 0 0 1.484 3.586c.537 0 1.074-.205 1.484-.615l6.332-6.329 6.422 6.421-3.564 3.563a2.102 2.102 0 0 0 2.97 2.971l3.563-3.564 4.625 4.625-10.066 10.065-27.3-27.298 10.066-10.066 1.949 1.949z"/><path d="M70.891 20.34a2.1 2.1 0 0 0-2.969 0L20.875 67.388a2.1 2.1 0 0 0 2.968 2.969L70.89 23.312a2.102 2.102 0 0 0 .001-2.972z"/></g></svg><svg viewBox="12.48 -1 75.03 102" height="42" width="42" id="700--skills-intuitive-brainbulb" x="210" y="84" xmlns="http://www.w3.org/2000/svg"><path fill="#3700b3" d="M77.033 78.783c-1.867-2.403-2.25-7.876-2.135-10.275.178-3.737 9.388-22.813 10.007-30.156.667-7.917-1.022-21.706-11.608-30.156C63.883.681 39.671-7.283 23.66 12.065c-3.491 4.219-6.383 8.63-6.538 11.432-.178 3.202-.4 15.923.266 16.857.668.934 2.002 2.269 2.002 3.469s-4.937 9.874-5.604 11.076c-.667 1.199-.133 3.202.667 3.868.801.667 4.77 1.402 4.904 2.203.134.8-.234 3.001-.767 3.935-.534.935 2.301 2.369 2.969 3.037.667.666-.734.8-1.101 2.167-.104.387.934 1.469 1.334 2.669.33.988-.074 3.382-.467 6.472-.3 2.368 2.547 4.354 4.637 5.07 1.167.401 10.241-.199 10.908-.867.668-.667 4.635 9.598 6.139 16.412.086.392 16.195.02 24.519-2.258 6.596-1.806 19.382-9.884 18.98-11.886-.402-2.001-7.607-4.536-9.475-6.938zm-2.789-41.73c-.321 12.626-9.083 16.481-15.917 8.859a25.658 25.658 0 0 0-3.152-2.979v-4.584a7.967 7.967 0 0 0 3.782-6.778 7.983 7.983 0 0 0-15.966 0 7.97 7.97 0 0 0 3.939 6.874v.587c-2.614-.561-5.108-.642-7.441-.918-18.488-2.19-10.763-16.576-8.308-19.543 11.259-13.604 28.282-8.003 34.9-2.72 7.444 5.941 8.306 15.618 8.163 21.202z"/><path fill="#7B2DCB" d="M33.518 29.816h7.369v3.508h-7.369zm27.543 0h7.369v3.508h-7.369zM49.219 14.114h3.509v7.369h-3.509zm-6.616 11.564l-5.21-5.21 2.48-2.48 5.21 5.21zm19.473 19.476l-5.209-5.21 2.481-2.48 5.21 5.21zm.002-27.168l2.481 2.48-5.208 5.21-2.481-2.48z"/></svg><svg viewBox="-0.35 11.35 64.61 41.36" height="42" width="42" id="700--skills-performance" x="210" y="42" xmlns="http://www.w3.org/2000/svg"><g fill="#3700b3"><path d="M24.8 42.3c-2.3.7-3.6 2.7-3.4 5.1.3 2.3 2.1 4.1 4.5 4.3 1.5.1 2.7-.4 4-1.7 2.9-2.9 11-10.5 13.7-13 .2-.2 0-.5-.3-.5-3.8 1.1-15.7 5-18.5 5.8z"/><path d="M58.7 27.3c-.5-.9-1.1-1.7-1.8-2.6-4.5-6-11.2-10.3-19.1-11.8-17-3.2-33.4 7.9-36.6 24.9-.8 4.1-.7 8.3.1 12.4l.3 1.5 4.7-1-.2-1.4c-.6-4.2 0-8.5 1.5-12.5 1.5-3.8 3.8-7.2 6.9-9.9 1.4-1.2 3-2.3 4.9-3.2 1.7-.8 3.5-1.5 5.4-1.9 1.8-.4 3.7-.6 5.5-.5 1.8.1 3.6.4 5.4.8 3.4 1 6.5 2.8 9 5.2 1.1 1.1 2.1 2.3 2.9 3.6l1.5 2.7c.3.7.6 1.4.8 2.1.5 1.5.7 3.1.8 4.7.1 1.5 0 3.1-.3 4.6-.2.8-.4 1.7-.7 2.5l-.6 1.7 13.1 2.5.3-1.5c0-.2.1-.4.1-.6 1.7-8.1 0-15.9-3.9-22.3zm-5.5 19.4l.3-1.2c.3-1.8.5-3.6.4-5.4-.1-1.9-.4-3.7-1-5.4-.3-1-.7-1.9-1.1-2.9l4.4-2.9c3.4 5.5 4.8 12.2 3.8 19l-6.8-1.2z"/></g></svg><svg viewBox="1.5 13 97 74.1" height="42" width="42" id="700--skills-responsive" x="210" xmlns="http://www.w3.org/2000/svg"><g fill="#3700b3"><path d="M8.3 19.9h70.5v11h5.9V17.7c0-2-1.7-3.7-3.7-3.7H6.2c-2 0-3.7 1.7-3.7 3.7v50.7c0 2 1.6 3.7 3.7 3.7h30.1v6.7h-6.6c-1 0-1.8.8-1.8 1.8v3.5c0 1 .8 1.8 1.8 1.8h28c1 0 1.8-.8 1.8-1.8v-3.5c0-1-.8-1.8-1.8-1.8H51v-6.7h13.8V59.2H8.3V19.9zM43.6 63c1.4 0 2.6 1.2 2.6 2.6 0 1.4-1.2 2.6-2.6 2.6-1.4 0-2.6-1.2-2.6-2.6 0-1.4 1.2-2.6 2.6-2.6z"/><path d="M93.5 35.1H72.9c-2.2 0-3.9 1.8-3.9 4v43c0 2.2 1.8 4 3.9 4h20.6c2.2 0 4-1.8 4-4V39c0-2.2-1.8-3.9-4-3.9zM79.9 38h6.5c.5 0 .9.4.9.9s-.4.9-.9.9h-6.5c-.5 0-.9-.4-.9-.9s.4-.9.9-.9zm3.3 45.1c-1.4 0-2.6-1.2-2.6-2.6 0-1.4 1.2-2.6 2.6-2.6 1.4 0 2.6 1.2 2.6 2.6 0 1.4-1.2 2.6-2.6 2.6zm10-8.1h-20V42.7h20.1V75z"/></g></svg><svg viewBox="0.17 12 100.13 75.48" height="42" width="42" id="700--skills-seo" x="168" y="168" xmlns="http://www.w3.org/2000/svg"><path fill="#3700b3" d="M85.1 65.8l-3.2-1.3c.1-1.3.1-2.6-.1-3.8l3.2-1.4c.7-.3 1-1 .7-1.7l-2.6-5.9c-.3-.7-1-1-1.7-.7l-3.2 1.4c-.8-1-1.7-1.9-2.7-2.7l1.3-3.2c.3-.7-.1-1.4-.7-1.7l-3.6-1.4v.4c0 3.8-.8 7.4-2.1 10.7 4.1 2.4 6 7.5 4.2 12.1-2 5-7.7 7.5-12.8 5.5-1.7-.7-3.2-1.9-4.2-3.3-3.3 1.8-6.9 2.9-10.8 3.3l.9 2c.3.7 1 1 1.7.7l3.2-1.4c.8 1 1.7 1.9 2.7 2.7L54 79.2c-.3.7.1 1.4.7 1.7l6 2.4c.7.3 1.4-.1 1.7-.7l1.3-3.2c1.3.1 2.6.1 3.8-.1l1.4 3.2c.3.7 1 1 1.7.7l5.9-2.6c.7-.3 1-1 .7-1.7l-1.4-3.2c1-.8 1.9-1.7 2.7-2.7l3.2 1.3c.7.3 1.4-.1 1.7-.7l2.4-6c.3-.7-.1-1.5-.7-1.8zM58.7 43.7v-.5l-4.5 1.9c-.7.3-1 1-.7 1.7l1.4 3.2c-1 .8-1.9 1.7-2.7 2.7L49 51.5c-.7-.3-1.4.1-1.7.7l-2.4 6v.2c7.7-.5 13.8-6.9 13.8-14.7zm39.6-18.1l-2.5-.2c-.2-.9-.5-1.8-.9-2.6l1.9-1.6c.4-.3.4-.9.1-1.3l-3-3.5c-.3-.4-.9-.4-1.3-.1L90.7 18c-.8-.5-1.6-.9-2.5-1.2l.2-2.5c0-.5-.4-.9-.9-1L83 13c-.5 0-.9.4-1 .9l-.2 2.5c-.9.2-1.8.5-2.6.9l-1.6-1.9c-.3-.4-.9-.4-1.3-.1l-3.5 3c-.4.3-.4.9-.1 1.3l1.6 1.9c-.5.8-.9 1.6-1.2 2.5l-2.5-.2c-.5 0-.9.3-1 .9l-.3 4.6c0 .5.4.9.9 1l2.5.2c.2.9.5 1.8.9 2.6l-1.9 1.6c-.4.3-.4.9-.1 1.3l3 3.5c.3.4.9.4 1.3.1l1.9-1.6c.8.5 1.6.9 2.5 1.2l-.2 2.5c0 .5.3.9.9 1l4.6.3c.5 0 .9-.4 1-.9l.2-2.5c.9-.2 1.8-.5 2.6-.9l1.6 1.9c.3.4.9.4 1.3.1l3.5-3c.4-.3.4-.9.1-1.3l-1.6-1.9c.5-.8.9-1.6 1.2-2.5l2.5.2c.5 0 .9-.4 1-.9l.3-4.6c-.1-.6-.4-1-1-1.1zm-14.5 9.3c-3.9-.3-6.8-3.6-6.5-7.5.3-3.9 3.6-6.8 7.5-6.5 3.9.3 6.8 3.6 6.5 7.5-.2 3.9-3.6 6.8-7.5 6.5z"/><path fill="#7B2DCB" d="M46.2 50.8v-1.6c.6-.2 1.1-.4 1.6-.7l1.2 1.1c.2.2.6.2.8 0l2.1-2.2c.2-.2.2-.6 0-.8l-1.2-1.1c.3-.5.5-1.1.7-1.7H53c.3 0 .6-.3.6-.6v-3c0-.3-.3-.6-.6-.6h-1.6c-.2-.6-.4-1.1-.7-1.6l1.1-1.2c.2-.2.2-.6 0-.8l-2.2-2.1c-.2-.2-.6-.2-.8 0l-1.1 1.2c-.5-.3-1.1-.5-1.7-.7v-1.6c0-.3-.3-.6-.6-.6h-3c-.3 0-.6.3-.6.6v1.6c-.6.2-1.1.4-1.6.7l-1.2-1c-.2-.2-.6-.2-.8 0l-2.1 2.2c-.2.2-.2.6 0 .8l1.2 1.1c-.3.5-.5 1.1-.7 1.7H35c-.3 0-.6.3-.6.6v3c0 .3.3.6.6.6h1.6c.2.6.4 1.1.7 1.6l-1.1 1.2c-.2.2-.2.6 0 .8l2.2 2.1c.2.2.6.2.8 0l1.1-1.2c.5.3 1.1.5 1.7.7v1.6c0 .3.3.6.6.6h3c.4-.1.6-.4.6-.7zm-6.8-8.9c0-2.5 2-4.6 4.5-4.6s4.6 2 4.6 4.5-2 4.6-4.5 4.6-4.5-2-4.6-4.5z"/><path fill="#7B2DCB" d="M67.5 53.3c1.2-3 1.9-6.2 1.9-9.6 0-.5 0-.9-.1-1.4-.2-3.9-1.2-7.5-3-10.7-2-3.6-4.8-6.7-8.1-9-1.4-.9-2.8-1.7-4.3-2.3-2.3-1-4.7-1.6-7.3-1.9-.9-.1-1.7-.1-2.6-.1-14 0-25.4 11.4-25.4 25.4 0 4.6 1.3 9 3.4 12.7l-.3.3-.9.9c1 1.7 1.7 3 3.9 5.3 1.5 1.5 3.7 3 5.4 3.9l.9-.9.3-.3c3.8 2.2 8.1 3.5 12.8 3.5.5 0 1 0 1.5-.1 3.8-.2 7.4-1.3 10.6-3 5.1-2.7 9.1-7.2 11.3-12.7zm-41.3-9.6c0-9.8 8-17.7 17.8-17.7 9.6 0 17.4 7.6 17.7 17.1v.7C61.7 52 56 59 48.3 60.9c-1.4.3-2.8.5-4.3.5-9.8.1-17.8-7.9-17.8-17.7zM3 75.4c-.1.3-4.6 3.2.9 8.6 5.1 5.1 8 .8 8.4.6l15.5-15.5c-1.3-.7-3.1-1.9-5.3-4.1-2.1-2.1-3.3-3.8-4-5.1L3 75.4"/></svg><svg viewBox="1.98 2 76.03 76" height="42" width="42" id="700--skills-ux-hand" x="168" xmlns="http://www.w3.org/2000/svg"><g fill="#3700b3"><path d="M75.245 67.906c.48-.861.755-1.852.755-2.906V47.4c0-2.426-1.974-4.4-4.4-4.4h-.4c-.188 0-.374.012-.557.035A4.406 4.406 0 0 0 66.4 39.8h-.8c-.439 0-.863.064-1.264.185A4.395 4.395 0 0 0 60.8 38.2H60a4.41 4.41 0 0 0-.4.018v-4.415a4.808 4.808 0 0 0-4.793-4.799H54.8a4.766 4.766 0 0 0-3.391 1.403A4.767 4.767 0 0 0 50 33.804v16.689c0 .16-.071.278-.212.354a.376.376 0 0 1-.411-.021l-.77-.518a15.55 15.55 0 0 0-6.668-2.485l-.132-.017a4.276 4.276 0 0 0-3.671 1.33 4.264 4.264 0 0 0-1.052 3.73 4.418 4.418 0 0 0 1.735 2.708l2.607 1.896c3.054 2.22 5.665 5.663 7.353 9.693l.135.32c.233.512.537.978.891 1.395A4.365 4.365 0 0 0 49 71.4v1.2c0 2.426 1.974 4.4 4.4 4.4H65a2 2 0 0 0 0-4H53.4a.4.4 0 0 1-.4-.4v-1.2a.4.4 0 0 1 .4-.4h19.2a.4.4 0 0 1 .4.4v1.2a.4.4 0 0 1-.4.4H71a2 2 0 0 0 0 4h1.6c2.426 0 4.4-1.974 4.4-4.4v-1.2c0-1.43-.696-2.689-1.755-3.494zM54.376 67c-.782 0-1.497-.46-1.797-1.117l-.111-.265c-1.966-4.696-5.052-8.738-8.689-11.383l-2.606-1.896a.425.425 0 0 1-.167-.262c-.006-.031-.025-.125.061-.219a.263.263 0 0 1 .198-.086l.042.002.131.017c1.761.22 3.472.857 4.942 1.839l.765.514a4.391 4.391 0 0 0 4.523.232A4.388 4.388 0 0 0 54 50.494v-16.69a.796.796 0 0 1 .8-.8h.001c.44 0 .799.36.799.8V44.6a2 2 0 0 0 4 0v-2a.4.4 0 0 1 .4-.4h.8a.4.4 0 0 1 .4.4v3.6a2 2 0 0 0 4 0v-2a.4.4 0 0 1 .4-.4h.8a.4.4 0 0 1 .4.4v4.4a2 2 0 0 0 4 0v-1.2a.4.4 0 0 1 .4-.4h.4a.4.4 0 0 1 .4.4V65c0 1.103-.897 2-2 2H54.376z"/><path d="M42 29.5v-9c0-3.033 2.467-5.5 5.5-5.5s5.5 2.467 5.5 5.5V25a2 2 0 0 0 4 0v-4.5c0-5.238-4.262-9.5-9.5-9.5S38 15.262 38 20.5v9C38 36.393 32.393 42 25.5 42S13 36.393 13 29.5V9.828l2.586 2.586c.39.391.902.586 1.414.586s1.024-.195 1.414-.586a2 2 0 0 0 0-2.828l-5.999-5.999a1.988 1.988 0 0 0-.306-.25c-.05-.034-.105-.057-.158-.086-.062-.034-.121-.071-.186-.098-.067-.028-.137-.044-.206-.064-.056-.016-.11-.038-.168-.05a2.028 2.028 0 0 0-.784 0c-.058.012-.112.033-.168.05-.069.02-.138.036-.205.064-.066.027-.125.065-.187.099-.052.028-.106.051-.156.085-.11.074-.213.157-.306.25L3.586 9.586a2 2 0 1 0 2.828 2.828L9 9.828V29.5C9 38.598 16.402 46 25.5 46S42 38.598 42 29.5z"/></g></svg><svg viewBox="3.72 0.93 19.61 24.83" height="42" width="42" id="700--skills-webstandards-quality" x="126" y="126" xmlns="http://www.w3.org/2000/svg"><path fill="#3700b3" d="M12.751 18.88c.263.325.551.665.778.665.243 0 .556-.389.831-.731.322-.399.654-.812 1.085-.927.413-.111.95.075 1.442.263.416.16.873.317 1.046.216.2-.116.276-.602.342-1.031.081-.513.163-1.044.484-1.366.322-.322.853-.405 1.367-.485.428-.067.913-.143 1.029-.342.112-.193-.07-.666-.216-1.046-.188-.489-.383-.995-.264-1.442.116-.431.529-.763.928-1.084.343-.276.732-.589.732-.832s-.388-.556-.731-.832c-.399-.322-.812-.654-.928-1.084-.119-.447.075-.953.264-1.442.146-.38.328-.853.216-1.045-.116-.2-.601-.276-1.029-.343-.514-.08-1.045-.163-1.367-.485-.322-.321-.404-.852-.485-1.366-.066-.429-.142-.914-.342-1.03-.171-.1-.629.057-1.045.216-.493.189-1.031.373-1.443.263-.43-.115-.763-.528-1.085-.927-.276-.343-.589-.731-.831-.731-.243 0-.556.389-.832.732-.322.399-.654.812-1.085.927-.411.11-.95-.074-1.443-.263-.415-.161-.872-.318-1.043-.217-.2.116-.276.601-.343 1.03-.081.513-.163 1.045-.485 1.366-.322.323-.853.405-1.368.486-.428.066-.913.142-1.029.342-.112.192.071.665.217 1.045.188.49.383.996.264 1.443-.115.43-.528.763-.927 1.084-.343.276-.731.589-.731.832s.389.556.732.832c.399.322.812.654.927 1.084.119.446-.075.953-.264 1.442-.146.38-.329.853-.217 1.045.116.2.601.275 1.029.342.514.08 1.045.163 1.367.485"/><path fill="#7B2DCB" d="M11.434 18.557c-.213-.058-.631.093-1.014.241-.581.224-1.22.414-1.642.169-.19-.11-.31-.283-.404-.478l-1.959 4.699 2.819-1.315 1.067 2.888 2.151-5.159c-.1-.114-.198-.234-.294-.354-.242-.297-.513-.634-.724-.691zm6.846.41c-.421.244-1.06.055-1.642-.169-.383-.148-.802-.298-1.014-.241-.211.057-.483.394-.723.692-.079.098-.16.195-.241.29l2.177 5.222 1.067-2.888 2.819 1.315-1.994-4.783c-.097.233-.23.436-.449.562z"/><path fill="#7B2DCB" d="M21.604 9.907c-.399-.322-.812-.654-.928-1.084-.119-.447.075-.953.264-1.442.146-.38.328-.853.216-1.045-.116-.2-.601-.276-1.029-.343-.514-.08-1.045-.163-1.367-.485-.322-.321-.404-.852-.485-1.366-.066-.429-.142-.914-.342-1.03-.171-.1-.629.057-1.045.216-.493.189-1.031.373-1.443.263-.43-.115-.763-.528-1.085-.927-.276-.343-.589-.731-.831-.731-.243 0-.556.389-.832.732-.322.399-.654.812-1.085.927-.411.11-.95-.074-1.443-.263-.415-.162-.872-.319-1.043-.218-.2.116-.276.601-.343 1.03-.081.513-.163 1.045-.485 1.366-.322.323-.853.405-1.368.486-.428.066-.913.142-1.029.342-.112.192.071.665.217 1.045.188.49.383.996.264 1.443-.115.43-.528.763-.927 1.084-.343.276-.731.589-.731.832s.389.556.732.832c.399.322.812.654.927 1.084.119.446-.075.953-.264 1.442-.146.38-.329.853-.217 1.045.116.2.601.275 1.029.342.514.08 1.045.163 1.367.485.321.322.404.853.484 1.366l.02.123c.063.395.142.803.323.908.173.1.629-.056 1.045-.216.384-.147.781-.3 1.149-.3.104 0 .203.013.293.037.43.115.762.527 1.083.926l.055.067c.263.325.551.665.778.665.242 0 .554-.387.83-.729l.002-.002c.322-.399.654-.812 1.085-.927.413-.111.95.075 1.442.263.416.16.873.317 1.046.216.2-.116.276-.602.342-1.031a.059.059 0 0 0 .002-.013c.08-.509.164-1.034.482-1.352.322-.322.853-.405 1.367-.485.428-.067.913-.143 1.029-.342.112-.193-.07-.666-.216-1.046-.188-.489-.383-.995-.264-1.442.116-.431.529-.763.928-1.084.343-.276.732-.589.732-.832.001-.243-.388-.556-.731-.832zm-8.075 7.163a6.338 6.338 0 0 1-6.331-6.331c0-3.491 2.84-6.331 6.331-6.331s6.331 2.84 6.331 6.331a6.338 6.338 0 0 1-6.331 6.331z"/><path fill="#7B2DCB" d="M13.529 5.796c-2.726 0-4.943 2.218-4.943 4.943s2.218 4.943 4.943 4.943 4.943-2.218 4.943-4.943-2.217-4.943-4.943-4.943zm1.789 7.54l-1.78-.929-1.774.94.333-1.98-1.444-1.397 1.986-.295.883-1.804.894 1.798 1.988.282-1.433 1.406.347 1.979z"/></svg><svg viewBox="17.57 4 64.86 92" height="18" width="18" id="900--other-location" x="210" y="232" xmlns="http://www.w3.org/2000/svg"><path fill="#23036a" d="M51.542 94.324c6.317-6.818 29.89-33.87 29.89-57.892a31.432 31.432 0 0 0-62.864 0c0 24.023 23.573 51.074 29.89 57.892a2.097 2.097 0 0 0 3.084 0zM33.618 36.432A16.382 16.382 0 1 1 50 52.814a16.382 16.382 0 0 1-16.382-16.382z"/></svg><svg viewBox="4 8.44 92 83.11" height="22" width="22" id="900--section-briefcase" x="44" y="252" xmlns="http://www.w3.org/2000/svg"><g fill="#23036a"><path d="M23.881 51.85h52.237c12.803 0 17.893-3.254 18.881-12.961v-6.707c0-5.422-2.13-7.552-7.552-7.552H12.552C7.13 24.628 5 26.758 5 32.181v6.707c.988 9.707 6.077 12.962 18.881 12.962z"/><path d="M76.119 55.625H58.557V68.96c0 2.033-.799 2.832-2.834 2.832H44.277c-2.034 0-2.833-.799-2.833-2.832V55.625H23.881c-8.321 0-14.95-1.307-18.881-6.181v33.559c0 5.423 2.13 7.552 7.552 7.552h74.896c5.422 0 7.552-2.129 7.552-7.552V49.445c-3.932 4.873-10.561 6.18-18.881 6.18z"/><path d="M46.165 55.625c-.677 0-.944.268-.944.943V67.07c0 .679.267.945.944.945h7.671c.678 0 .943-.267.943-.943V56.568c0-.678-.266-.943-.943-.943h-7.671zm.25-40.989h7.173c6.205 0 6.688.955 6.688 7.16h6.607c0-11.636-.715-12.352-12.351-12.352H45.47c-11.636 0-12.352.716-12.352 12.352h6.609c0-6.205.482-7.16 6.688-7.16z"/></g></svg><svg viewBox="24.48 69.5 285.69 214.93" height="22" width="22" fill-rule="evenodd" clip-rule="evenodd" shape-rendering="geometricPrecision" image-rendering="optimizeQuality" id="900--section-telephone" x="66" y="252" xmlns="http://www.w3.org/2000/svg"><path fill="#23036a" d="M235 127zm-67 18c57 0 57 70 0 70s-57-70 0-70zm26 15c-34-26-85 13-52 40 34 27 85-13 52-40zm77 104c-14-75 9-8-27-74-8-13-13 14-22-31-3-22-15-29-15-29l21-26c33 6-11 28 13 43 0 0 57 24 64 10 5-10 8-38-6-49-70-50-194-50-263 0-15 11-11 39-6 49 6 12 71-6 71-20 0-16-20-28 5-33l22 26c-18 10-18 55-24 56-2 0-10-1-13 4-37 66-13 1-27 74-1 4 2 10 7 11-2 9 32 11 33 5l63-1h1l63 1c1 6 35 4 32-5 5-1 8-7 8-11zm-69-163c-7 10-22 9-34 8h-1c-12 1-28 2-34-8h69zm33 26zm-135 0zm0 0z" fill-rule="nonzero"/></svg><svg version="1" viewBox="-1 -1 102 83.1" height="22" width="22" id="900--section-tools" x="88" y="252" xmlns="http://www.w3.org/2000/svg"><path fill="#23036a" d="M78.952 66.572c3.225 3.225 3.225 8.385-.13 11.739-3.225 3.225-8.514 3.225-11.867 0l-20.641-22.06-19.35 23.35c-1.806 1.935-5.16 2.063-6.966 0l-4.902-5.031a4.949 4.949 0 0 1-.129-7.096l22.317-20.769-10.707-10.19c-3.612-3.354-5.676-4.386-8.514-3.483-2.838 1.032-6.837 1.032-10.578-1.419C-.384 26.582.003 16.778.003 16.778l.645-1.032 8.127 5.289s5.031 3.096 8.901-2.838c4.386-6.966-.516-9.804-.516-9.804l-8.127-5.16.774-1.033s7.482-4.773 16.254.258c5.418 3.225 8.127 9.546 6.708 15.738-.774 3.741 0 5.031 2.967 8.256l10.836 10.707L59.215 24.13l9.546 9.546-12.643 12.513 22.834 20.383zM91.98 26.969c1.549-1.548 4.129-1.29 5.548.129l1.419 1.419c1.548 1.548 1.29 3.87-.129 5.289l-7.74 7.74c-1.548 1.548-3.87 1.677-5.418.129l-1.419-1.419a3.892 3.892 0 0 1 0-5.547c.258-.903-.517-2.58-2.064-4.129-3.225-3.225-6.966-3.354-8.772-1.677l-2.58 2.709-9.417-9.675 2.709-2.58c2.968-3.096-.387-6.321-.387-6.321-8.256-8.256-19.867-7.998-19.867-7.998l-.129-3.096C67.342-4.25 76.243 6.07 79.468 9.166l6.837 6.837c1.677 1.806-.129 6.708 2.322 9.288 1.032 1.161 2.322 1.549 3.353 1.678zM73.018 76.763c2.451 0 4.386-1.935 4.386-4.386s-1.935-4.386-4.386-4.386-4.386 1.935-4.386 4.386 1.934 4.386 4.386 4.386z"/></svg><svg viewBox="12.73 3.95 74.54 91.7" height="22" width="22" id="900--section-user3" x="110" y="252" xmlns="http://www.w3.org/2000/svg"><path fill="#23036a" d="M80.93 48.668s-.703-10.167-1.27-12.576c-.051-.22-.111-.438-.169-.655 4.115-3.09 6.777-8.01 6.777-13.552 0-9.354-7.584-16.937-16.938-16.937-5.218 0-9.884 2.362-12.991 6.073-2.227-3.251-5.965-5.387-10.203-5.387v7.271a27.615 27.615 0 0 0-4.869-.438c-15.205 0-27.535 12.329-27.535 27.536 0 8.615 3.961 16.305 10.157 21.354h-4.303c0 1.266.192 2.484.546 3.635H16.61c0 9.352 7.585 16.938 16.938 16.938 1.445 0 2.849-.184 4.188-.523v7.045l25.314 6.195V80.061s5.441.803 7.27.916c6.273.393 11.386-3.266 11.386-9.559v-8.07s4.271-2.198 4.271-3.481c0-.324-.151-.635-.269-.908L80.93 48.668z"/></svg><svg viewBox="-0.37 -0.61 92.21 92.32" height="42" width="42" id="900--skills-branding-design" x="84" y="126" xmlns="http://www.w3.org/2000/svg"><g fill="#23036a"><path d="M88.266 18.375a8.75 8.75 0 0 0 2.574-6.293 8.922 8.922 0 0 0-2.639-6.295L85.438 3.03A8.915 8.915 0 0 0 79.092.391a8.74 8.74 0 0 0-6.232 2.578L45.934 29.893l-2.848-2.846-.01-.014-.016-.012-7.46-7.46-.016-.02c-.004-.006-.012-.008-.018-.014l-9.354-9.354c-.008-.008-.012-.016-.018-.023a.461.461 0 0 1-.023-.018l-8.924-8.924a2.1 2.1 0 0 0-2.969 0L1.242 14.247a2.1 2.1 0 0 0 0 2.969l28.684 28.683-24.42 24.418a2.097 2.097 0 0 0-.615 1.484c0 .172.027.34.068.504L.924 87.954a2.098 2.098 0 0 0 2.034 2.625c.184 0 .369-.023.551-.074l15.504-4.209a2.093 2.093 0 0 0 1.906-.57l24.416-24.419 28.787 28.784c.41.41.947.615 1.484.615s1.074-.205 1.484-.615l13.037-13.037a2.101 2.101 0 0 0 0-2.968l-7.588-7.588-.006-.008a.035.035 0 0 0-.01-.008l-9.371-9.37-.01-.012-.014-.012-8.314-8.313-.033-.043c-.014-.014-.031-.021-.045-.035l-3.396-3.396 26.926-26.926zM19.432 81.271l-7.564-7.563-1.906-1.906 59.754-59.749 9.465 9.469-59.749 59.749zM75.83 5.936c1.756-1.758 4.844-1.732 6.639.064l2.764 2.758c.9.898 1.4 2.09 1.408 3.35a4.587 4.587 0 0 1-1.346 3.299l-3.145 3.146-9.467-9.471 3.147-3.146zM5.697 15.731L15.764 5.665l5.973 5.973-3.563 3.559a2.105 2.105 0 0 0 0 2.971c.41.41.947.615 1.486.615.537 0 1.074-.205 1.484-.615l3.563-3.559 6.422 6.42-6.332 6.33a2.1 2.1 0 1 0 2.97 2.969l6.33-6.33 4.523 4.523-3.563 3.561a2.1 2.1 0 0 0 2.968 2.969l3.563-3.561 1.375 1.373L32.896 42.93 5.697 15.731zm.196 69.776l2.426-9.406 4.652 4.65L15.2 82.98l-9.307 2.527zM60.32 50.221l-3.561 3.559a2.102 2.102 0 0 0 2.97 2.971l3.561-3.561 5.395 5.396-6.33 6.327a2.102 2.102 0 0 0 1.484 3.586c.537 0 1.074-.205 1.484-.615l6.332-6.329 6.422 6.421-3.564 3.563a2.102 2.102 0 0 0 2.97 2.971l3.563-3.564 4.625 4.625-10.066 10.065-27.3-27.298 10.066-10.066 1.949 1.949z"/><path d="M70.891 20.34a2.1 2.1 0 0 0-2.969 0L20.875 67.388a2.1 2.1 0 0 0 2.968 2.969L70.89 23.312a2.102 2.102 0 0 0 .001-2.972z"/></g></svg><svg viewBox="12.48 -1 75.03 102" height="42" width="42" id="900--skills-intuitive-brainbulb" x="42" y="126" xmlns="http://www.w3.org/2000/svg"><path fill="#23036a" d="M77.033 78.783c-1.867-2.403-2.25-7.876-2.135-10.275.178-3.737 9.388-22.813 10.007-30.156.667-7.917-1.022-21.706-11.608-30.156C63.883.681 39.671-7.283 23.66 12.065c-3.491 4.219-6.383 8.63-6.538 11.432-.178 3.202-.4 15.923.266 16.857.668.934 2.002 2.269 2.002 3.469s-4.937 9.874-5.604 11.076c-.667 1.199-.133 3.202.667 3.868.801.667 4.77 1.402 4.904 2.203.134.8-.234 3.001-.767 3.935-.534.935 2.301 2.369 2.969 3.037.667.666-.734.8-1.101 2.167-.104.387.934 1.469 1.334 2.669.33.988-.074 3.382-.467 6.472-.3 2.368 2.547 4.354 4.637 5.07 1.167.401 10.241-.199 10.908-.867.668-.667 4.635 9.598 6.139 16.412.086.392 16.195.02 24.519-2.258 6.596-1.806 19.382-9.884 18.98-11.886-.402-2.001-7.607-4.536-9.475-6.938zm-2.789-41.73c-.321 12.626-9.083 16.481-15.917 8.859a25.658 25.658 0 0 0-3.152-2.979v-4.584a7.967 7.967 0 0 0 3.782-6.778 7.983 7.983 0 0 0-15.966 0 7.97 7.97 0 0 0 3.939 6.874v.587c-2.614-.561-5.108-.642-7.441-.918-18.488-2.19-10.763-16.576-8.308-19.543 11.259-13.604 28.282-8.003 34.9-2.72 7.444 5.941 8.306 15.618 8.163 21.202z"/><path fill="#7B2DCB" d="M33.518 29.816h7.369v3.508h-7.369zm27.543 0h7.369v3.508h-7.369zM49.219 14.114h3.509v7.369h-3.509zm-6.616 11.564l-5.21-5.21 2.48-2.48 5.21 5.21zm19.473 19.476l-5.209-5.21 2.481-2.48 5.21 5.21zm.002-27.168l2.481 2.48-5.208 5.21-2.481-2.48z"/></svg><svg viewBox="-0.35 11.35 64.61 41.36" height="42" width="42" id="900--skills-performance" y="126" xmlns="http://www.w3.org/2000/svg"><g fill="#23036a"><path d="M24.8 42.3c-2.3.7-3.6 2.7-3.4 5.1.3 2.3 2.1 4.1 4.5 4.3 1.5.1 2.7-.4 4-1.7 2.9-2.9 11-10.5 13.7-13 .2-.2 0-.5-.3-.5-3.8 1.1-15.7 5-18.5 5.8z"/><path d="M58.7 27.3c-.5-.9-1.1-1.7-1.8-2.6-4.5-6-11.2-10.3-19.1-11.8-17-3.2-33.4 7.9-36.6 24.9-.8 4.1-.7 8.3.1 12.4l.3 1.5 4.7-1-.2-1.4c-.6-4.2 0-8.5 1.5-12.5 1.5-3.8 3.8-7.2 6.9-9.9 1.4-1.2 3-2.3 4.9-3.2 1.7-.8 3.5-1.5 5.4-1.9 1.8-.4 3.7-.6 5.5-.5 1.8.1 3.6.4 5.4.8 3.4 1 6.5 2.8 9 5.2 1.1 1.1 2.1 2.3 2.9 3.6l1.5 2.7c.3.7.6 1.4.8 2.1.5 1.5.7 3.1.8 4.7.1 1.5 0 3.1-.3 4.6-.2.8-.4 1.7-.7 2.5l-.6 1.7 13.1 2.5.3-1.5c0-.2.1-.4.1-.6 1.7-8.1 0-15.9-3.9-22.3zm-5.5 19.4l.3-1.2c.3-1.8.5-3.6.4-5.4-.1-1.9-.4-3.7-1-5.4-.3-1-.7-1.9-1.1-2.9l4.4-2.9c3.4 5.5 4.8 12.2 3.8 19l-6.8-1.2z"/></g></svg><svg viewBox="1.5 13 97 74.1" height="42" width="42" id="900--skills-responsive" x="84" xmlns="http://www.w3.org/2000/svg"><g fill="#23036a"><path d="M8.3 19.9h70.5v11h5.9V17.7c0-2-1.7-3.7-3.7-3.7H6.2c-2 0-3.7 1.7-3.7 3.7v50.7c0 2 1.6 3.7 3.7 3.7h30.1v6.7h-6.6c-1 0-1.8.8-1.8 1.8v3.5c0 1 .8 1.8 1.8 1.8h28c1 0 1.8-.8 1.8-1.8v-3.5c0-1-.8-1.8-1.8-1.8H51v-6.7h13.8V59.2H8.3V19.9zM43.6 63c1.4 0 2.6 1.2 2.6 2.6 0 1.4-1.2 2.6-2.6 2.6-1.4 0-2.6-1.2-2.6-2.6 0-1.4 1.2-2.6 2.6-2.6z"/><path d="M93.5 35.1H72.9c-2.2 0-3.9 1.8-3.9 4v43c0 2.2 1.8 4 3.9 4h20.6c2.2 0 4-1.8 4-4V39c0-2.2-1.8-3.9-4-3.9zM79.9 38h6.5c.5 0 .9.4.9.9s-.4.9-.9.9h-6.5c-.5 0-.9-.4-.9-.9s.4-.9.9-.9zm3.3 45.1c-1.4 0-2.6-1.2-2.6-2.6 0-1.4 1.2-2.6 2.6-2.6 1.4 0 2.6 1.2 2.6 2.6 0 1.4-1.2 2.6-2.6 2.6zm10-8.1h-20V42.7h20.1V75z"/></g></svg><svg viewBox="0.17 12 100.13 75.48" height="42" width="42" id="900--skills-seo" x="42" y="42" xmlns="http://www.w3.org/2000/svg"><path fill="#23036a" d="M85.1 65.8l-3.2-1.3c.1-1.3.1-2.6-.1-3.8l3.2-1.4c.7-.3 1-1 .7-1.7l-2.6-5.9c-.3-.7-1-1-1.7-.7l-3.2 1.4c-.8-1-1.7-1.9-2.7-2.7l1.3-3.2c.3-.7-.1-1.4-.7-1.7l-3.6-1.4v.4c0 3.8-.8 7.4-2.1 10.7 4.1 2.4 6 7.5 4.2 12.1-2 5-7.7 7.5-12.8 5.5-1.7-.7-3.2-1.9-4.2-3.3-3.3 1.8-6.9 2.9-10.8 3.3l.9 2c.3.7 1 1 1.7.7l3.2-1.4c.8 1 1.7 1.9 2.7 2.7L54 79.2c-.3.7.1 1.4.7 1.7l6 2.4c.7.3 1.4-.1 1.7-.7l1.3-3.2c1.3.1 2.6.1 3.8-.1l1.4 3.2c.3.7 1 1 1.7.7l5.9-2.6c.7-.3 1-1 .7-1.7l-1.4-3.2c1-.8 1.9-1.7 2.7-2.7l3.2 1.3c.7.3 1.4-.1 1.7-.7l2.4-6c.3-.7-.1-1.5-.7-1.8zM58.7 43.7v-.5l-4.5 1.9c-.7.3-1 1-.7 1.7l1.4 3.2c-1 .8-1.9 1.7-2.7 2.7L49 51.5c-.7-.3-1.4.1-1.7.7l-2.4 6v.2c7.7-.5 13.8-6.9 13.8-14.7zm39.6-18.1l-2.5-.2c-.2-.9-.5-1.8-.9-2.6l1.9-1.6c.4-.3.4-.9.1-1.3l-3-3.5c-.3-.4-.9-.4-1.3-.1L90.7 18c-.8-.5-1.6-.9-2.5-1.2l.2-2.5c0-.5-.4-.9-.9-1L83 13c-.5 0-.9.4-1 .9l-.2 2.5c-.9.2-1.8.5-2.6.9l-1.6-1.9c-.3-.4-.9-.4-1.3-.1l-3.5 3c-.4.3-.4.9-.1 1.3l1.6 1.9c-.5.8-.9 1.6-1.2 2.5l-2.5-.2c-.5 0-.9.3-1 .9l-.3 4.6c0 .5.4.9.9 1l2.5.2c.2.9.5 1.8.9 2.6l-1.9 1.6c-.4.3-.4.9-.1 1.3l3 3.5c.3.4.9.4 1.3.1l1.9-1.6c.8.5 1.6.9 2.5 1.2l-.2 2.5c0 .5.3.9.9 1l4.6.3c.5 0 .9-.4 1-.9l.2-2.5c.9-.2 1.8-.5 2.6-.9l1.6 1.9c.3.4.9.4 1.3.1l3.5-3c.4-.3.4-.9.1-1.3l-1.6-1.9c.5-.8.9-1.6 1.2-2.5l2.5.2c.5 0 .9-.4 1-.9l.3-4.6c-.1-.6-.4-1-1-1.1zm-14.5 9.3c-3.9-.3-6.8-3.6-6.5-7.5.3-3.9 3.6-6.8 7.5-6.5 3.9.3 6.8 3.6 6.5 7.5-.2 3.9-3.6 6.8-7.5 6.5z"/><path fill="#7B2DCB" d="M46.2 50.8v-1.6c.6-.2 1.1-.4 1.6-.7l1.2 1.1c.2.2.6.2.8 0l2.1-2.2c.2-.2.2-.6 0-.8l-1.2-1.1c.3-.5.5-1.1.7-1.7H53c.3 0 .6-.3.6-.6v-3c0-.3-.3-.6-.6-.6h-1.6c-.2-.6-.4-1.1-.7-1.6l1.1-1.2c.2-.2.2-.6 0-.8l-2.2-2.1c-.2-.2-.6-.2-.8 0l-1.1 1.2c-.5-.3-1.1-.5-1.7-.7v-1.6c0-.3-.3-.6-.6-.6h-3c-.3 0-.6.3-.6.6v1.6c-.6.2-1.1.4-1.6.7l-1.2-1c-.2-.2-.6-.2-.8 0l-2.1 2.2c-.2.2-.2.6 0 .8l1.2 1.1c-.3.5-.5 1.1-.7 1.7H35c-.3 0-.6.3-.6.6v3c0 .3.3.6.6.6h1.6c.2.6.4 1.1.7 1.6l-1.1 1.2c-.2.2-.2.6 0 .8l2.2 2.1c.2.2.6.2.8 0l1.1-1.2c.5.3 1.1.5 1.7.7v1.6c0 .3.3.6.6.6h3c.4-.1.6-.4.6-.7zm-6.8-8.9c0-2.5 2-4.6 4.5-4.6s4.6 2 4.6 4.5-2 4.6-4.5 4.6-4.5-2-4.6-4.5z"/><path fill="#7B2DCB" d="M67.5 53.3c1.2-3 1.9-6.2 1.9-9.6 0-.5 0-.9-.1-1.4-.2-3.9-1.2-7.5-3-10.7-2-3.6-4.8-6.7-8.1-9-1.4-.9-2.8-1.7-4.3-2.3-2.3-1-4.7-1.6-7.3-1.9-.9-.1-1.7-.1-2.6-.1-14 0-25.4 11.4-25.4 25.4 0 4.6 1.3 9 3.4 12.7l-.3.3-.9.9c1 1.7 1.7 3 3.9 5.3 1.5 1.5 3.7 3 5.4 3.9l.9-.9.3-.3c3.8 2.2 8.1 3.5 12.8 3.5.5 0 1 0 1.5-.1 3.8-.2 7.4-1.3 10.6-3 5.1-2.7 9.1-7.2 11.3-12.7zm-41.3-9.6c0-9.8 8-17.7 17.8-17.7 9.6 0 17.4 7.6 17.7 17.1v.7C61.7 52 56 59 48.3 60.9c-1.4.3-2.8.5-4.3.5-9.8.1-17.8-7.9-17.8-17.7zM3 75.4c-.1.3-4.6 3.2.9 8.6 5.1 5.1 8 .8 8.4.6l15.5-15.5c-1.3-.7-3.1-1.9-5.3-4.1-2.1-2.1-3.3-3.8-4-5.1L3 75.4"/></svg><svg viewBox="1.98 2 76.03 76" height="42" width="42" id="900--skills-ux-hand" y="42" xmlns="http://www.w3.org/2000/svg"><g fill="#23036a"><path d="M75.245 67.906c.48-.861.755-1.852.755-2.906V47.4c0-2.426-1.974-4.4-4.4-4.4h-.4c-.188 0-.374.012-.557.035A4.406 4.406 0 0 0 66.4 39.8h-.8c-.439 0-.863.064-1.264.185A4.395 4.395 0 0 0 60.8 38.2H60a4.41 4.41 0 0 0-.4.018v-4.415a4.808 4.808 0 0 0-4.793-4.799H54.8a4.766 4.766 0 0 0-3.391 1.403A4.767 4.767 0 0 0 50 33.804v16.689c0 .16-.071.278-.212.354a.376.376 0 0 1-.411-.021l-.77-.518a15.55 15.55 0 0 0-6.668-2.485l-.132-.017a4.276 4.276 0 0 0-3.671 1.33 4.264 4.264 0 0 0-1.052 3.73 4.418 4.418 0 0 0 1.735 2.708l2.607 1.896c3.054 2.22 5.665 5.663 7.353 9.693l.135.32c.233.512.537.978.891 1.395A4.365 4.365 0 0 0 49 71.4v1.2c0 2.426 1.974 4.4 4.4 4.4H65a2 2 0 0 0 0-4H53.4a.4.4 0 0 1-.4-.4v-1.2a.4.4 0 0 1 .4-.4h19.2a.4.4 0 0 1 .4.4v1.2a.4.4 0 0 1-.4.4H71a2 2 0 0 0 0 4h1.6c2.426 0 4.4-1.974 4.4-4.4v-1.2c0-1.43-.696-2.689-1.755-3.494zM54.376 67c-.782 0-1.497-.46-1.797-1.117l-.111-.265c-1.966-4.696-5.052-8.738-8.689-11.383l-2.606-1.896a.425.425 0 0 1-.167-.262c-.006-.031-.025-.125.061-.219a.263.263 0 0 1 .198-.086l.042.002.131.017c1.761.22 3.472.857 4.942 1.839l.765.514a4.391 4.391 0 0 0 4.523.232A4.388 4.388 0 0 0 54 50.494v-16.69a.796.796 0 0 1 .8-.8h.001c.44 0 .799.36.799.8V44.6a2 2 0 0 0 4 0v-2a.4.4 0 0 1 .4-.4h.8a.4.4 0 0 1 .4.4v3.6a2 2 0 0 0 4 0v-2a.4.4 0 0 1 .4-.4h.8a.4.4 0 0 1 .4.4v4.4a2 2 0 0 0 4 0v-1.2a.4.4 0 0 1 .4-.4h.4a.4.4 0 0 1 .4.4V65c0 1.103-.897 2-2 2H54.376z"/><path d="M42 29.5v-9c0-3.033 2.467-5.5 5.5-5.5s5.5 2.467 5.5 5.5V25a2 2 0 0 0 4 0v-4.5c0-5.238-4.262-9.5-9.5-9.5S38 15.262 38 20.5v9C38 36.393 32.393 42 25.5 42S13 36.393 13 29.5V9.828l2.586 2.586c.39.391.902.586 1.414.586s1.024-.195 1.414-.586a2 2 0 0 0 0-2.828l-5.999-5.999a1.988 1.988 0 0 0-.306-.25c-.05-.034-.105-.057-.158-.086-.062-.034-.121-.071-.186-.098-.067-.028-.137-.044-.206-.064-.056-.016-.11-.038-.168-.05a2.028 2.028 0 0 0-.784 0c-.058.012-.112.033-.168.05-.069.02-.138.036-.205.064-.066.027-.125.065-.187.099-.052.028-.106.051-.156.085-.11.074-.213.157-.306.25L3.586 9.586a2 2 0 1 0 2.828 2.828L9 9.828V29.5C9 38.598 16.402 46 25.5 46S42 38.598 42 29.5z"/></g></svg><svg viewBox="3.72 0.93 19.61 24.83" height="42" width="42" id="900--skills-webstandards-quality" x="42" xmlns="http://www.w3.org/2000/svg"><path fill="#23036a" d="M12.751 18.88c.263.325.551.665.778.665.243 0 .556-.389.831-.731.322-.399.654-.812 1.085-.927.413-.111.95.075 1.442.263.416.16.873.317 1.046.216.2-.116.276-.602.342-1.031.081-.513.163-1.044.484-1.366.322-.322.853-.405 1.367-.485.428-.067.913-.143 1.029-.342.112-.193-.07-.666-.216-1.046-.188-.489-.383-.995-.264-1.442.116-.431.529-.763.928-1.084.343-.276.732-.589.732-.832s-.388-.556-.731-.832c-.399-.322-.812-.654-.928-1.084-.119-.447.075-.953.264-1.442.146-.38.328-.853.216-1.045-.116-.2-.601-.276-1.029-.343-.514-.08-1.045-.163-1.367-.485-.322-.321-.404-.852-.485-1.366-.066-.429-.142-.914-.342-1.03-.171-.1-.629.057-1.045.216-.493.189-1.031.373-1.443.263-.43-.115-.763-.528-1.085-.927-.276-.343-.589-.731-.831-.731-.243 0-.556.389-.832.732-.322.399-.654.812-1.085.927-.411.11-.95-.074-1.443-.263-.415-.161-.872-.318-1.043-.217-.2.116-.276.601-.343 1.03-.081.513-.163 1.045-.485 1.366-.322.323-.853.405-1.368.486-.428.066-.913.142-1.029.342-.112.192.071.665.217 1.045.188.49.383.996.264 1.443-.115.43-.528.763-.927 1.084-.343.276-.731.589-.731.832s.389.556.732.832c.399.322.812.654.927 1.084.119.446-.075.953-.264 1.442-.146.38-.329.853-.217 1.045.116.2.601.275 1.029.342.514.08 1.045.163 1.367.485"/><path fill="#7B2DCB" d="M11.434 18.557c-.213-.058-.631.093-1.014.241-.581.224-1.22.414-1.642.169-.19-.11-.31-.283-.404-.478l-1.959 4.699 2.819-1.315 1.067 2.888 2.151-5.159c-.1-.114-.198-.234-.294-.354-.242-.297-.513-.634-.724-.691zm6.846.41c-.421.244-1.06.055-1.642-.169-.383-.148-.802-.298-1.014-.241-.211.057-.483.394-.723.692-.079.098-.16.195-.241.29l2.177 5.222 1.067-2.888 2.819 1.315-1.994-4.783c-.097.233-.23.436-.449.562z"/><path fill="#7B2DCB" d="M21.604 9.907c-.399-.322-.812-.654-.928-1.084-.119-.447.075-.953.264-1.442.146-.38.328-.853.216-1.045-.116-.2-.601-.276-1.029-.343-.514-.08-1.045-.163-1.367-.485-.322-.321-.404-.852-.485-1.366-.066-.429-.142-.914-.342-1.03-.171-.1-.629.057-1.045.216-.493.189-1.031.373-1.443.263-.43-.115-.763-.528-1.085-.927-.276-.343-.589-.731-.831-.731-.243 0-.556.389-.832.732-.322.399-.654.812-1.085.927-.411.11-.95-.074-1.443-.263-.415-.162-.872-.319-1.043-.218-.2.116-.276.601-.343 1.03-.081.513-.163 1.045-.485 1.366-.322.323-.853.405-1.368.486-.428.066-.913.142-1.029.342-.112.192.071.665.217 1.045.188.49.383.996.264 1.443-.115.43-.528.763-.927 1.084-.343.276-.731.589-.731.832s.389.556.732.832c.399.322.812.654.927 1.084.119.446-.075.953-.264 1.442-.146.38-.329.853-.217 1.045.116.2.601.275 1.029.342.514.08 1.045.163 1.367.485.321.322.404.853.484 1.366l.02.123c.063.395.142.803.323.908.173.1.629-.056 1.045-.216.384-.147.781-.3 1.149-.3.104 0 .203.013.293.037.43.115.762.527 1.083.926l.055.067c.263.325.551.665.778.665.242 0 .554-.387.83-.729l.002-.002c.322-.399.654-.812 1.085-.927.413-.111.95.075 1.442.263.416.16.873.317 1.046.216.2-.116.276-.602.342-1.031a.059.059 0 0 0 .002-.013c.08-.509.164-1.034.482-1.352.322-.322.853-.405 1.367-.485.428-.067.913-.143 1.029-.342.112-.193-.07-.666-.216-1.046-.188-.489-.383-.995-.264-1.442.116-.431.529-.763.928-1.084.343-.276.732-.589.732-.832.001-.243-.388-.556-.731-.832zm-8.075 7.163a6.338 6.338 0 0 1-6.331-6.331c0-3.491 2.84-6.331 6.331-6.331s6.331 2.84 6.331 6.331a6.338 6.338 0 0 1-6.331 6.331z"/><path fill="#7B2DCB" d="M13.529 5.796c-2.726 0-4.943 2.218-4.943 4.943s2.218 4.943 4.943 4.943 4.943-2.218 4.943-4.943-2.217-4.943-4.943-4.943zm1.789 7.54l-1.78-.929-1.774.94.333-1.98-1.444-1.397 1.986-.295.883-1.804.894 1.798 1.988.282-1.433 1.406.347 1.979z"/></svg></svg>