<svg xmlns="http://www.w3.org/2000/svg" viewBox="5 9.444 90 81.111" height="20" width="20"><g fill="#985eff"><path d="M23.881 51.85h52.237c12.803 0 17.893-3.254 18.881-12.961v-6.707c0-5.422-2.13-7.552-7.552-7.552H12.552C7.13 24.628 5 26.758 5 32.181v6.707c.988 9.707 6.077 12.962 18.881 12.962z"/><path d="M76.119 55.625H58.557V68.96c0 2.033-.799 2.832-2.834 2.832H44.277c-2.034 0-2.833-.799-2.833-2.832V55.625H23.881c-8.321 0-14.95-1.307-18.881-6.181v33.559c0 5.423 2.13 7.552 7.552 7.552h74.896c5.422 0 7.552-2.129 7.552-7.552V49.445c-3.932 4.873-10.561 6.18-18.881 6.18z"/><path d="M46.165 55.625c-.677 0-.944.268-.944.943V67.07c0 .679.267.945.944.945h7.671c.678 0 .943-.267.943-.943V56.568c0-.678-.266-.943-.943-.943h-7.671zm.25-40.989h7.173c6.205 0 6.688.955 6.688 7.16h6.607c0-11.636-.715-12.352-12.351-12.352H45.47c-11.636 0-12.352.716-12.352 12.352h6.609c0-6.205.482-7.16 6.688-7.16z"/></g></svg>