<svg xmlns="http://www.w3.org/2000/svg" viewBox="1.172 13 98.128 73.484" height="40" width="40"><path fill="#985eff" d="M85.1 65.8l-3.2-1.3c.1-1.3.1-2.6-.1-3.8l3.2-1.4c.7-.3 1-1 .7-1.7l-2.6-5.9c-.3-.7-1-1-1.7-.7l-3.2 1.4c-.8-1-1.7-1.9-2.7-2.7l1.3-3.2c.3-.7-.1-1.4-.7-1.7l-3.6-1.4v.4c0 3.8-.8 7.4-2.1 10.7 4.1 2.4 6 7.5 4.2 12.1-2 5-7.7 7.5-12.8 5.5-1.7-.7-3.2-1.9-4.2-3.3-3.3 1.8-6.9 2.9-10.8 3.3l.9 2c.3.7 1 1 1.7.7l3.2-1.4c.8 1 1.7 1.9 2.7 2.7L54 79.2c-.3.7.1 1.4.7 1.7l6 2.4c.7.3 1.4-.1 1.7-.7l1.3-3.2c1.3.1 2.6.1 3.8-.1l1.4 3.2c.3.7 1 1 1.7.7l5.9-2.6c.7-.3 1-1 .7-1.7l-1.4-3.2c1-.8 1.9-1.7 2.7-2.7l3.2 1.3c.7.3 1.4-.1 1.7-.7l2.4-6c.3-.7-.1-1.5-.7-1.8zM58.7 43.7v-.5l-4.5 1.9c-.7.3-1 1-.7 1.7l1.4 3.2c-1 .8-1.9 1.7-2.7 2.7L49 51.5c-.7-.3-1.4.1-1.7.7l-2.4 6v.2c7.7-.5 13.8-6.9 13.8-14.7zm39.6-18.1l-2.5-.2c-.2-.9-.5-1.8-.9-2.6l1.9-1.6c.4-.3.4-.9.1-1.3l-3-3.5c-.3-.4-.9-.4-1.3-.1L90.7 18c-.8-.5-1.6-.9-2.5-1.2l.2-2.5c0-.5-.4-.9-.9-1L83 13c-.5 0-.9.4-1 .9l-.2 2.5c-.9.2-1.8.5-2.6.9l-1.6-1.9c-.3-.4-.9-.4-1.3-.1l-3.5 3c-.4.3-.4.9-.1 1.3l1.6 1.9c-.5.8-.9 1.6-1.2 2.5l-2.5-.2c-.5 0-.9.3-1 .9l-.3 4.6c0 .5.4.9.9 1l2.5.2c.2.9.5 1.8.9 2.6l-1.9 1.6c-.4.3-.4.9-.1 1.3l3 3.5c.3.4.9.4 1.3.1l1.9-1.6c.8.5 1.6.9 2.5 1.2l-.2 2.5c0 .5.3.9.9 1l4.6.3c.5 0 .9-.4 1-.9l.2-2.5c.9-.2 1.8-.5 2.6-.9l1.6 1.9c.3.4.9.4 1.3.1l3.5-3c.4-.3.4-.9.1-1.3l-1.6-1.9c.5-.8.9-1.6 1.2-2.5l2.5.2c.5 0 .9-.4 1-.9l.3-4.6c-.1-.6-.4-1-1-1.1zm-14.5 9.3c-3.9-.3-6.8-3.6-6.5-7.5.3-3.9 3.6-6.8 7.5-6.5 3.9.3 6.8 3.6 6.5 7.5-.2 3.9-3.6 6.8-7.5 6.5z"/><path fill="#7B2DCB" d="M46.2 50.8v-1.6c.6-.2 1.1-.4 1.6-.7l1.2 1.1c.2.2.6.2.8 0l2.1-2.2c.2-.2.2-.6 0-.8l-1.2-1.1c.3-.5.5-1.1.7-1.7H53c.3 0 .6-.3.6-.6v-3c0-.3-.3-.6-.6-.6h-1.6c-.2-.6-.4-1.1-.7-1.6l1.1-1.2c.2-.2.2-.6 0-.8l-2.2-2.1c-.2-.2-.6-.2-.8 0l-1.1 1.2c-.5-.3-1.1-.5-1.7-.7v-1.6c0-.3-.3-.6-.6-.6h-3c-.3 0-.6.3-.6.6v1.6c-.6.2-1.1.4-1.6.7l-1.2-1c-.2-.2-.6-.2-.8 0l-2.1 2.2c-.2.2-.2.6 0 .8l1.2 1.1c-.3.5-.5 1.1-.7 1.7H35c-.3 0-.6.3-.6.6v3c0 .3.3.6.6.6h1.6c.2.6.4 1.1.7 1.6l-1.1 1.2c-.2.2-.2.6 0 .8l2.2 2.1c.2.2.6.2.8 0l1.1-1.2c.5.3 1.1.5 1.7.7v1.6c0 .3.3.6.6.6h3c.4-.1.6-.4.6-.7zm-6.8-8.9c0-2.5 2-4.6 4.5-4.6s4.6 2 4.6 4.5-2 4.6-4.5 4.6-4.5-2-4.6-4.5z"/><path fill="#7B2DCB" d="M67.5 53.3c1.2-3 1.9-6.2 1.9-9.6 0-.5 0-.9-.1-1.4-.2-3.9-1.2-7.5-3-10.7-2-3.6-4.8-6.7-8.1-9-1.4-.9-2.8-1.7-4.3-2.3-2.3-1-4.7-1.6-7.3-1.9-.9-.1-1.7-.1-2.6-.1-14 0-25.4 11.4-25.4 25.4 0 4.6 1.3 9 3.4 12.7l-.3.3-.9.9c1 1.7 1.7 3 3.9 5.3 1.5 1.5 3.7 3 5.4 3.9l.9-.9.3-.3c3.8 2.2 8.1 3.5 12.8 3.5.5 0 1 0 1.5-.1 3.8-.2 7.4-1.3 10.6-3 5.1-2.7 9.1-7.2 11.3-12.7zm-41.3-9.6c0-9.8 8-17.7 17.8-17.7 9.6 0 17.4 7.6 17.7 17.1v.7C61.7 52 56 59 48.3 60.9c-1.4.3-2.8.5-4.3.5-9.8.1-17.8-7.9-17.8-17.7zM3 75.4c-.1.3-4.6 3.2.9 8.6 5.1 5.1 8 .8 8.4.6l15.5-15.5c-1.3-.7-3.1-1.9-5.3-4.1-2.1-2.1-3.3-3.8-4-5.1L3 75.4"/></svg>