<svg xmlns="http://www.w3.org/2000/svg" viewBox="4.724 1.932 17.611 22.829" height="40" width="40"><path fill="#6200ee" d="M12.751 18.88c.263.325.551.665.778.665.243 0 .556-.389.831-.731.322-.399.654-.812 1.085-.927.413-.111.95.075 1.442.263.416.16.873.317 1.046.216.2-.116.276-.602.342-1.031.081-.513.163-1.044.484-1.366.322-.322.853-.405 1.367-.485.428-.067.913-.143 1.029-.342.112-.193-.07-.666-.216-1.046-.188-.489-.383-.995-.264-1.442.116-.431.529-.763.928-1.084.343-.276.732-.589.732-.832s-.388-.556-.731-.832c-.399-.322-.812-.654-.928-1.084-.119-.447.075-.953.264-1.442.146-.38.328-.853.216-1.045-.116-.2-.601-.276-1.029-.343-.514-.08-1.045-.163-1.367-.485-.322-.321-.404-.852-.485-1.366-.066-.429-.142-.914-.342-1.03-.171-.1-.629.057-1.045.216-.493.189-1.031.373-1.443.263-.43-.115-.763-.528-1.085-.927-.276-.343-.589-.731-.831-.731-.243 0-.556.389-.832.732-.322.399-.654.812-1.085.927-.411.11-.95-.074-1.443-.263-.415-.161-.872-.318-1.043-.217-.2.116-.276.601-.343 1.03-.081.513-.163 1.045-.485 1.366-.322.323-.853.405-1.368.486-.428.066-.913.142-1.029.342-.112.192.071.665.217 1.045.188.49.383.996.264 1.443-.115.43-.528.763-.927 1.084-.343.276-.731.589-.731.832s.389.556.732.832c.399.322.812.654.927 1.084.119.446-.075.953-.264 1.442-.146.38-.329.853-.217 1.045.116.2.601.275 1.029.342.514.08 1.045.163 1.367.485"/><path fill="#7B2DCB" d="M11.434 18.557c-.213-.058-.631.093-1.014.241-.581.224-1.22.414-1.642.169-.19-.11-.31-.283-.404-.478l-1.959 4.699 2.819-1.315 1.067 2.888 2.151-5.159c-.1-.114-.198-.234-.294-.354-.242-.297-.513-.634-.724-.691zm6.846.41c-.421.244-1.06.055-1.642-.169-.383-.148-.802-.298-1.014-.241-.211.057-.483.394-.723.692-.079.098-.16.195-.241.29l2.177 5.222 1.067-2.888 2.819 1.315-1.994-4.783c-.097.233-.23.436-.449.562z"/><path fill="#7B2DCB" d="M21.604 9.907c-.399-.322-.812-.654-.928-1.084-.119-.447.075-.953.264-1.442.146-.38.328-.853.216-1.045-.116-.2-.601-.276-1.029-.343-.514-.08-1.045-.163-1.367-.485-.322-.321-.404-.852-.485-1.366-.066-.429-.142-.914-.342-1.03-.171-.1-.629.057-1.045.216-.493.189-1.031.373-1.443.263-.43-.115-.763-.528-1.085-.927-.276-.343-.589-.731-.831-.731-.243 0-.556.389-.832.732-.322.399-.654.812-1.085.927-.411.11-.95-.074-1.443-.263-.415-.162-.872-.319-1.043-.218-.2.116-.276.601-.343 1.03-.081.513-.163 1.045-.485 1.366-.322.323-.853.405-1.368.486-.428.066-.913.142-1.029.342-.112.192.071.665.217 1.045.188.49.383.996.264 1.443-.115.43-.528.763-.927 1.084-.343.276-.731.589-.731.832s.389.556.732.832c.399.322.812.654.927 1.084.119.446-.075.953-.264 1.442-.146.38-.329.853-.217 1.045.116.2.601.275 1.029.342.514.08 1.045.163 1.367.485.321.322.404.853.484 1.366l.02.123c.063.395.142.803.323.908.173.1.629-.056 1.045-.216.384-.147.781-.3 1.149-.3.104 0 .203.013.293.037.43.115.762.527 1.083.926l.055.067c.263.325.551.665.778.665.242 0 .554-.387.83-.729l.002-.002c.322-.399.654-.812 1.085-.927.413-.111.95.075 1.442.263.416.16.873.317 1.046.216.2-.116.276-.602.342-1.031a.059.059 0 0 0 .002-.013c.08-.509.164-1.034.482-1.352.322-.322.853-.405 1.367-.485.428-.067.913-.143 1.029-.342.112-.193-.07-.666-.216-1.046-.188-.489-.383-.995-.264-1.442.116-.431.529-.763.928-1.084.343-.276.732-.589.732-.832.001-.243-.388-.556-.731-.832zm-8.075 7.163a6.338 6.338 0 0 1-6.331-6.331c0-3.491 2.84-6.331 6.331-6.331s6.331 2.84 6.331 6.331a6.338 6.338 0 0 1-6.331 6.331z"/><path fill="#7B2DCB" d="M13.529 5.796c-2.726 0-4.943 2.218-4.943 4.943s2.218 4.943 4.943 4.943 4.943-2.218 4.943-4.943-2.217-4.943-4.943-4.943zm1.789 7.54l-1.78-.929-1.774.94.333-1.98-1.444-1.397 1.986-.295.883-1.804.894 1.798 1.988.282-1.433 1.406.347 1.979z"/></svg>