<svg xmlns="http://www.w3.org/2000/svg" viewBox="0 0 100 125" height="40" width="40"><path fill="#D4AAFF" d="M61.813 80.284H61.8A1.533 1.533 0 0 1 60.27 78.7l.004-.368v-.21c-.018-4.48-1.068-26.831-20.09-26.831a1.532 1.532 0 1 1 0-3.065c19.022 0 20.072-22.352 20.09-26.832v-.21l-.004-.368c-.014-.414.14-.818.43-1.116.577-.596 1.63-.596 2.208 0 .29.298.45.702.436 1.116l-.005.369v.027c-.001.025-.001.052-.004.077a1.2 1.2 0 0 1 .004.105c.018 4.48 1.068 26.832 20.09 26.832a1.532 1.532 0 1 1 0 3.065c-19.022 0-20.072 22.352-20.09 26.832v.006c0 .032-.001.065-.004.098a1.2 1.2 0 0 1 .004.105l.005.368a1.533 1.533 0 0 1-1.531 1.584zM48.727 49.758c7.698 3.084 11.351 10.293 13.08 16.781 1.728-6.488 5.38-13.697 13.078-16.78-7.698-3.084-11.35-10.294-13.078-16.782-1.729 6.488-5.382 13.698-13.08 16.781zM26.28 43.695h-.02a1.53 1.53 0 0 1-1.512-1.482 10.379 10.379 0 0 1-.003-.516c-.031-1.522-.35-6.3-3.044-9.034-1.313-1.332-2.99-1.98-5.13-1.98a1.532 1.532 0 1 1 0-3.065c2.165 0 3.856-.664 5.175-2.027 2.802-2.898 2.992-7.988 2.998-9.158v-.096c0-.091-.002-.144-.002-.148a1.531 1.531 0 0 1 2.622-1.129c.276.28.433.674.442 1.066h.006c.002.132.003.322-.003.56.042 1.607.397 6.265 3.044 8.951 1.313 1.332 2.99 1.98 5.13 1.98a1.532 1.532 0 1 1 0 3.066c-2.165 0-3.857.663-5.176 2.026-2.806 2.902-2.993 8.003-2.998 9.163v.086c0 .094.002.148.002.154a1.53 1.53 0 0 1-1.532 1.583zM22.207 29.15c.626.4 1.207.876 1.743 1.43 1.02 1.055 1.773 2.297 2.325 3.57.554-1.273 1.307-2.515 2.328-3.57a9.591 9.591 0 0 1 1.742-1.43 9.645 9.645 0 0 1-1.742-1.428c-1.021-1.056-1.772-2.297-2.326-3.568-.566 1.3-1.34 2.564-2.395 3.636a9.607 9.607 0 0 1-1.675 1.36zM41.428 85.397h-.029a1.53 1.53 0 0 1-1.503-1.482 8.879 8.879 0 0 1-.001-.455c-.036-1.876-.55-5.101-2.321-6.897-.976-.992-2.232-1.474-3.837-1.474a1.532 1.532 0 1 1 0-3.066c1.623 0 2.89-.493 3.87-1.508 2.376-2.456 2.286-7.168 2.285-7.216a1.533 1.533 0 0 1 2.624-1.127c.275.28.432.67.44 1.063h.004c.002.112.002.277-.003.483.048 1.885.57 5.056 2.32 6.831.976.992 2.232 1.474 3.836 1.474a1.532 1.532 0 1 1 0 3.066c-1.622 0-2.888.494-3.869 1.508-2.377 2.456-2.287 7.168-2.285 7.216a1.53 1.53 0 0 1-1.531 1.584zm-2.66-11.84c.368.267.715.57 1.043.91a9.36 9.36 0 0 1 1.614 2.304 9.406 9.406 0 0 1 1.615-2.305 8.042 8.042 0 0 1 1.043-.91 8.042 8.042 0 0 1-1.043-.91 9.407 9.407 0 0 1-1.612-2.302 9.431 9.431 0 0 1-1.67 2.356c-.312.317-.641.602-.99.856z"/></svg>