<svg xmlns="http://www.w3.org/2000/svg" viewBox="0 0 90 112.513"><g fill="#D4AAFF"><path d="M14.46 27.28a31.82 31.82 0 0 0 4.33 5.08l.09.08H19a45.14 45.14 0 0 1 7 .82l.78.15-.47-.64A43.64 43.64 0 0 1 22 25.58l-.05-.11h-.12A30.83 30.83 0 0 0 16.64 24a32.19 32.19 0 0 0-3.86-.48h-.54l.24.48a29.44 29.44 0 0 0 1.98 3.28zm2.07-2.72A30.19 30.19 0 0 1 21.48 26a44.17 44.17 0 0 0 3.88 6.55 45.4 45.4 0 0 0-6.23-.68A31.15 31.15 0 0 1 15 26.94a28.73 28.73 0 0 1-1.68-2.8 31.93 31.93 0 0 1 3.21.43zM7.06 52.58l-.41.36.52.17a29.9 29.9 0 0 0 3.73 1 31.74 31.74 0 0 0 6 .54h.84l.09-.08a44.23 44.23 0 0 1 5.56-4.39l.61-.48-.78-.12a44.42 44.42 0 0 1-8.13-2h-.24a31.29 31.29 0 0 0-4.76 2.64 31.47 31.47 0 0 0-3.03 2.36zM15 48.2a44.56 44.56 0 0 0 7.36 1.87A44 44 0 0 0 17.44 54a31.78 31.78 0 0 1-6.44-.53 28.54 28.54 0 0 1-3.13-.79 30.28 30.28 0 0 1 2.55-1.95A30.64 30.64 0 0 1 15 48.2zM32.4 71.25l.08-.09V71a44.82 44.82 0 0 1 .84-7l.15-.78-.64.47A44.18 44.18 0 0 1 25.64 68l-.11.05v.12A31.46 31.46 0 0 0 24 73.39a31.8 31.8 0 0 0-.47 3.86v.54l.48-.25a31 31 0 0 0 3.35-2 31.36 31.36 0 0 0 5.04-4.29zm-8.22 5.49A29.06 29.06 0 0 1 26 68.5a44.53 44.53 0 0 0 6.54-3.88 45 45 0 0 0-.7 6.28A30.7 30.7 0 0 1 27 75.07a29.17 29.17 0 0 1-2.82 1.67zM54.63 71.77l-.08-.08a45.34 45.34 0 0 1-4.3-5.4l-.45-.65-.11.78a45 45 0 0 1-1.9 8v.24a31.63 31.63 0 0 0 2.94 5.18 30.44 30.44 0 0 0 2 2.59l.36.42.16-.53a28.64 28.64 0 0 0 .8-3.21 32.19 32.19 0 0 0 .52-7.24zM53.51 79c-.16.84-.37 1.71-.62 2.6-.62-.73-1.15-1.42-1.63-2.11a30.94 30.94 0 0 1-2.84-5 45.1 45.1 0 0 0 1.77-7.24A45.56 45.56 0 0 0 54 72a31.51 31.51 0 0 1-.49 7zM75.85 62.23a31.23 31.23 0 0 0-4.44-5l-.09-.08h-.12a44.25 44.25 0 0 1-7.49-.83l-.79-.15.48.64a44.13 44.13 0 0 1 4.36 7l.05.11h.11a31.18 31.18 0 0 0 5.45 1.57h.19a32 32 0 0 0 4 .46h.54l-.25-.48a31.6 31.6 0 0 0-2-3.24zM73.69 65h-.19a30.46 30.46 0 0 1-5.22-1.5 44.39 44.39 0 0 0-3.9-6.4 44.55 44.55 0 0 0 6.71.7 28.81 28.81 0 0 1 6 7.65 30.84 30.84 0 0 1-3.4-.45zM84.33 36.86l-.49-.17a32.19 32.19 0 0 0-4.53-1.23h-.19a30.72 30.72 0 0 0-5.6-.5h-.13l-.09.04a42.63 42.63 0 0 1-5.77 4.64l-.65.44.78.12a42.6 42.6 0 0 1 8.41 2.18h.12l.12-.06A29.33 29.33 0 0 0 80 40.3a31.18 31.18 0 0 0 4-3.09zm-4.66 2.92a28.64 28.64 0 0 1-3.51 2 42.94 42.94 0 0 0-7.65-2 42.91 42.91 0 0 0 5.13-4.18A30.07 30.07 0 0 1 79 36h.19a30.9 30.9 0 0 1 3.95 1 30.33 30.33 0 0 1-3.47 2.78zM57.53 19.44v.11a47.58 47.58 0 0 1-.71 5.92l-.14.77.63-.46a43.39 43.39 0 0 1 7.31-4.38l.12-.05v-.12A30.65 30.65 0 0 0 66 16.6a31.84 31.84 0 0 0 .43-3.27v-.56L66 13a29.62 29.62 0 0 0-2.85 1.66 31.6 31.6 0 0 0-5.56 4.68zm6-4.24c.67-.45 1.42-.9 2.29-1.36-.09.94-.21 1.81-.37 2.65a29.93 29.93 0 0 1-1.2 4.41 43.61 43.61 0 0 0-6.68 3.94 47.68 47.68 0 0 0 .58-5.13 30.92 30.92 0 0 1 5.36-4.51zM35.46 17.7a43.53 43.53 0 0 1 4.63 5.92l.44.67.13-.79a44 44 0 0 1 2-8v-.24A31.37 31.37 0 0 0 39.81 10a32.34 32.34 0 0 0-2.38-3l-.35-.41-.17.51a28.23 28.23 0 0 0-1 3.77 31.84 31.84 0 0 0-.54 6.64v.12zm1.07-6.7a27.61 27.61 0 0 1 .79-3.17 30.13 30.13 0 0 1 4.74 7.62 44.36 44.36 0 0 0-1.88 7.2A44 44 0 0 0 36 17.36a31.19 31.19 0 0 1 .53-6.36zM43 7.9c.57.84 1.05 1.63 1.49 2.41l.27.49.27-.49c.46-.84 1-1.66 1.47-2.45.38-.58.77-1.14 1.2-1.71l.07-.15-.08-.17A35 35 0 0 0 44.56.38L44.3 0l-.3.39a35.73 35.73 0 0 0-2.74 5l-.07.17.12.15c.63.77 1.17 1.5 1.69 2.19zm1.36-6.79A34.28 34.28 0 0 1 47 5.93c-.4.53-.76 1.05-1.11 1.59s-.84 1.32-1.23 2c-.37-.64-.78-1.29-1.24-2s-1-1.35-1.51-2a34.9 34.9 0 0 1 2.41-4.4zM46.81 15.37v.11A43.4 43.4 0 0 1 49 23.43l.14.79.43-.68A43.66 43.66 0 0 1 53.69 18l.08-.09v-.12a31.89 31.89 0 0 0-.77-7.21 30.4 30.4 0 0 0-.91-3.17l-.18-.52-.35.43a29.41 29.41 0 0 0-2 2.65 30.66 30.66 0 0 0-2.77 5.29zm3.33-5.07c.45-.7 1-1.41 1.56-2.16.27.84.51 1.71.71 2.57a31.21 31.21 0 0 1 .73 7 44 44 0 0 0-3.68 4.87 43.7 43.7 0 0 0-2-7.17 30 30 0 0 1 2.68-5.11zM56.72 9.75a34.38 34.38 0 0 1 .64 3.94l.06.58.45-.37a34.62 34.62 0 0 1 3.22-2.4c.67-.43 1.24-.78 1.79-1.1l.16-.09v-.18a36.42 36.42 0 0 0-.84-6.94l-.1-.44-.38.25a35.8 35.8 0 0 0-5.45 4.4l-.13.13.05.18c.21.71.39 1.38.53 2.04zm5-6a35.62 35.62 0 0 1 .69 6.25c-.51.3-1 .63-1.66 1a34.57 34.57 0 0 0-2.84 2.08 34.56 34.56 0 0 0-.59-3.44c-.13-.64-.32-1.26-.48-1.93a35.05 35.05 0 0 1 4.84-3.95zM71.66 18.95h.19a34.25 34.25 0 0 1 3.41-.58h.2l.06-.19a36.46 36.46 0 0 0 1.19-4.53l.09-.45-.45.09A35.11 35.11 0 0 0 70.29 15l-.17.07v.18c-.09.74-.2 1.42-.32 2.08s-.23 1.14-.39 1.77l-.13.52.52-.15c.6-.21 1.2-.38 1.86-.52zm-1.29-1.52c.12-.62.22-1.26.31-1.94A34.26 34.26 0 0 1 76 13.92a35.79 35.79 0 0 1-1 3.81c-1.14.14-2.24.33-3.28.56h-.19l-1.41.36c.09-.4.18-.84.26-1.23zM63.17 32.42l.76-.18a44.14 44.14 0 0 1 7.71-1.09h.12l.09-.09a30.16 30.16 0 0 0 5.79-8.69l.21-.47h-.51a31.1 31.1 0 0 0-4.65.67h-.2a30.32 30.32 0 0 0-4.69 1.5h-.12v.12a43.1 43.1 0 0 1-4 7.45zm5-7.74a29.72 29.72 0 0 1 4.47-1.42h.19a30.15 30.15 0 0 1 4-.62 29.6 29.6 0 0 1-2.12 3.83 29.79 29.79 0 0 1-3.26 4.12 44.44 44.44 0 0 0-6.95.93 43.32 43.32 0 0 0 3.66-6.84zM76.71 31.26l.55.06c.87.09 1.7.21 2.57.37h.19a32.85 32.85 0 0 1 3.35.83l.19.06.13-.15a37.65 37.65 0 0 0 4.19-5.71l.22-.37-.42-.09a38.13 38.13 0 0 0-7.06-.88h-.2l-.09.18a32.58 32.58 0 0 1-1.9 3.28c-.45.68-.92 1.34-1.39 2zM79 29.2a33 33 0 0 0 1.8-3.2 37.34 37.34 0 0 1 6.32.77 37 37 0 0 1-3.76 5.1c-1.1-.33-2.19-.59-3.23-.79h-.19c-.7-.13-1.38-.23-2.07-.32.37-.5.73-1.03 1.13-1.56zM76.26 46.55l-.12.05A42.28 42.28 0 0 1 67.8 49l-.77.15.66.42a44 44 0 0 1 5 3.64l.09.08h.12a32.43 32.43 0 0 0 6.35-.75h.18a29.75 29.75 0 0 0 3.86-1.17l.51-.19-.42-.34a29.94 29.94 0 0 0-3.19-2.26 31.1 31.1 0 0 0-3.78-2zM82.53 51a29 29 0 0 1-3.26 1h-.18a31.73 31.73 0 0 1-6.09.7 44.1 44.1 0 0 0-4.31-3.2 42.45 42.45 0 0 0 7.59-2.28 30.32 30.32 0 0 1 3.58 1.87A28.65 28.65 0 0 1 82.53 51zM83.33 55.54l-.13-.13-.18.06c-.89.29-1.8.54-2.78.77h-.19c-1 .22-2 .41-3 .54l-.57.08.38.43A33.25 33.25 0 0 1 79 60.02c.53.75 1 1.53 1.47 2.29l.09.16h.19a36.35 36.35 0 0 0 7-1l.43-.11-.33-.36a35.7 35.7 0 0 0-4.52-5.46zm-2.47 6.34c-.43-.73-.9-1.46-1.4-2.17s-1.18-1.6-1.81-2.35c.83-.13 1.68-.29 2.53-.47h.2c.93-.22 1.8-.46 2.66-.73A34.92 34.92 0 0 1 87.09 61a35.69 35.69 0 0 1-6.23.88zM89.61 43.43a37.43 37.43 0 0 0-4.13-2.26l-.18-.08-.15.13a33.15 33.15 0 0 1-3 2.26l-.76.49-.75.47.46.25c.37.2.73.42 1.09.64.82.5 1.57 1 2.26 1.52l.15.11.17-.08a35.1 35.1 0 0 0 4.9-2.93l.38-.27zm-5 2.81c-.66-.48-1.38-1-2.15-1.44l-.66-.4.64-.42a33.93 33.93 0 0 0 2.94-2.17 36.38 36.38 0 0 1 3.49 1.9 34.28 34.28 0 0 1-4.25 2.53zM64 79c-.65-.34-1.27-.69-1.84-1a35.54 35.54 0 0 1-3.28-2.29l-.46-.36v.58a34.86 34.86 0 0 1-.52 4c-.15.76-.3 1.43-.46 2.06v.18l.14.13a35.79 35.79 0 0 0 5.58 4.23l.38.24.08-.44a35.32 35.32 0 0 0 .62-7v-.18zm-1 6.68a35.08 35.08 0 0 1-5-3.79c.15-.59.29-1.22.43-1.92.22-1.15.38-2.31.48-3.46.93.7 1.89 1.37 2.88 2 .54.33 1.11.66 1.71 1a34.51 34.51 0 0 1-.5 6.16zM66.94 72.7a31.37 31.37 0 0 0-1.89-5.7v-.11h-.11a43.52 43.52 0 0 1-7.2-4l-.74-.56.19.79A44.34 44.34 0 0 1 58.33 70v.11l.08.08a31.61 31.61 0 0 0 5.71 4.5A29.07 29.07 0 0 0 67 76.27l.51.24-.04-.51a31.92 31.92 0 0 0-.53-3.3zm-2.48 1.47a31 31 0 0 1-5.52-4.34 44.41 44.41 0 0 0-.94-6.09 43.77 43.77 0 0 0 6.54 3.6 30.72 30.72 0 0 1 1.8 5.49c.18.83.33 1.69.46 2.63a26.49 26.49 0 0 1-2.34-1.29zM76 69.9l-.07-.17h-.19c-1-.1-2-.24-2.87-.4h-.19c-.81-.15-1.62-.34-2.4-.55l-.55-.15.17.54c.28.87.53 1.8.74 2.76.14.58.26 1.22.39 2.06v.18l.17.06a35.26 35.26 0 0 0 6.11 1.56l.46.08-.1-.45A35.48 35.48 0 0 0 76 69.9zm-4.38 3.76c-.13-.77-.24-1.37-.37-1.92-.18-.78-.38-1.54-.59-2.27.63.16 1.27.3 1.92.42h.19c.87.16 1.79.29 2.73.39a34.63 34.63 0 0 1 1.5 4.77 34.41 34.41 0 0 1-5.39-1.39zM33.31 80.24a33 33 0 0 1-.58-3.41l-.07-.57-.44.37a34.53 34.53 0 0 1-2.76 2.09c-.8.54-1.55 1-2.29 1.42l-.16.09v.19a37 37 0 0 0 1 7l.1.43.37-.25a36 36 0 0 0 5.48-4.42l.14-.13-.1-.22c-.26-.83-.48-1.66-.69-2.59zm-4.83 6.56a36.25 36.25 0 0 1-.83-6.21c.7-.4 1.41-.85 2.16-1.35s1.62-1.16 2.37-1.77c.12.93.29 1.89.52 2.9.2.88.41 1.69.66 2.46a35.35 35.35 0 0 1-4.88 3.97zM43.64 74.72v-.18a45.54 45.54 0 0 1-2.26-7.92l-.15-.78-.42.68a42.28 42.28 0 0 1-4.45 6.06l-.08.1v.12a31.71 31.71 0 0 0 .72 6.6 29.83 29.83 0 0 0 1.1 3.73l.18.51.34-.42a31.46 31.46 0 0 0 2.29-3.13 31.1 31.1 0 0 0 2.69-5.32zm-3.23 5a30.39 30.39 0 0 1-1.9 2.65 28.64 28.64 0 0 1-.89-3.14 31 31 0 0 1-.73-6.36 42.41 42.41 0 0 0 4-5.4A45.76 45.76 0 0 0 43 74.65a30.43 30.43 0 0 1-2.59 5.11zM47.63 82c-.52-.74-1-1.54-1.53-2.39l-.28-.49-.26.5c-.43.84-.91 1.67-1.42 2.47s-1 1.51-1.53 2.2l-.12.15.08.17a36.12 36.12 0 0 0 2.9 5l.26.38.25-.39a35.16 35.16 0 0 0 3-5.58l.07-.17-.12-.14c-.48-.55-.93-1.11-1.3-1.71zm-1.91 6.85a35.21 35.21 0 0 1-2.5-4.33c.5-.66 1-1.37 1.45-2.1s.82-1.33 1.19-2c.42.69.84 1.34 1.28 2s.76 1.05 1.18 1.58a34.38 34.38 0 0 1-2.6 4.89zM14.21 58.33h-.58a31.9 31.9 0 0 1-3.44-.47c-1-.19-1.81-.38-2.61-.61l-.18-.05-.13.14A36.35 36.35 0 0 0 3 62.91l-.23.38.44.09a36.91 36.91 0 0 0 7 .72h.19l.09-.17c.39-.74.83-1.52 1.31-2.29a32.06 32.06 0 0 1 2-2.85zm-2.92 3c-.46.73-.88 1.46-1.25 2.17a36.15 36.15 0 0 1-6.26-.62 35.6 35.6 0 0 1 3.81-5c.76.21 1.55.4 2.48.57s2 .33 2.94.43c-.59.74-1.17 1.57-1.71 2.43zM18.16 70.6c-1 .22-1.83.37-2.64.47h-.19l-.06.18a36.08 36.08 0 0 0-1.47 5.58l-.08.45.45-.09a34.65 34.65 0 0 0 5.51-1.62l.18-.07v-.19c.09-.89.23-1.78.39-2.66s.32-1.51.53-2.29l.14-.54-.52.18c-.81.25-1.54.45-2.24.6zm1.5 2c-.16.83-.29 1.68-.38 2.52a34 34 0 0 1-4.78 1.43 35.4 35.4 0 0 1 1.3-4.85c.75-.11 1.55-.25 2.5-.46.56-.12 1.15-.27 1.77-.45-.16.57-.3 1.21-.41 1.77zM27.18 57.1l-.78.18a43.21 43.21 0 0 1-7 1.05h-.12l-.08.08a31.16 31.16 0 0 0-4.2 5.27A30.16 30.16 0 0 0 13.2 67l-.23.49.54-.05a31.82 31.82 0 0 0 3.81-.59 31 31 0 0 0 5.15-1.65h.12v-.11a43.65 43.65 0 0 1 4.09-7.32zm-5.06 7.61a30.4 30.4 0 0 1-4.93 1.57 29.91 29.91 0 0 1-3.19.52 29.33 29.33 0 0 1 1.56-2.8 30.48 30.48 0 0 1 4-5.06 43.53 43.53 0 0 0 6.19-.89 43.83 43.83 0 0 0-3.63 6.67zM5.68 48.77l.15-.12c.74-.59 1.45-1.12 2.12-1.58s1.37-.9 2-1.25l.49-.28-.5-.26c-.67-.35-1.34-.74-2-1.18s-1.49-1-2.2-1.53l-.15-.11-.17.08a36 36 0 0 0-5 2.9l-.42.25.39.25a36 36 0 0 0 5.12 2.76zm-.21-5.6c.68.5 1.38 1 2.09 1.45.55.34 1.07.66 1.59.94-.49.29-1 .62-1.55 1s-1.31.94-2 1.5a35.35 35.35 0 0 1-4.46-2.38 35.31 35.31 0 0 1 4.32-2.51zM6.87 33.88L7 34h.18c.88-.28 1.76-.51 2.61-.7a31.83 31.83 0 0 1 3.41-.58l.57-.07-.37-.44a33.57 33.57 0 0 1-2.1-2.77c-.47-.68-.94-1.45-1.41-2.28L9.8 27h-.19a36.72 36.72 0 0 0-7 1l-.44.1.25.37a36.23 36.23 0 0 0 4.45 5.41zm2.58-6.28c.45.78.9 1.5 1.34 2.16s1.14 1.6 1.78 2.38c-1 .13-2 .3-2.91.52s-1.64.4-2.48.66a35.44 35.44 0 0 1-4-4.88 35.89 35.89 0 0 1 6.27-.84zM15 43.37a44.27 44.27 0 0 1 8.08-2.27l.78-.14-.68-.42a43.42 43.42 0 0 1-5.72-4.24l-.09-.08h-.12a31.9 31.9 0 0 0-6.63.75 32.06 32.06 0 0 0-3.73 1.09l-.51.18.42.35a30.15 30.15 0 0 0 3.14 2.3 31.61 31.61 0 0 0 4.81 2.48h.19zm-4.72-3a28.57 28.57 0 0 1-2.65-1.91 30.08 30.08 0 0 1 9.52-1.62 43.58 43.58 0 0 0 5.05 3.8 44.68 44.68 0 0 0-7.32 2.11 31 31 0 0 1-4.61-2.38zM14.43 19.64l.07.18h.19c.83.08 1.72.21 2.67.39.66.12 1.37.28 2.25.51l.53.14-.14-.51c-.22-.72-.41-1.45-.59-2.23s-.37-1.82-.48-2.66v-.19l-.18-.06a35.56 35.56 0 0 0-5.56-1.44l-.45-.08.1.45a34.85 34.85 0 0 0 1.59 5.5zm3.9-3.91a33.07 33.07 0 0 0 .9 4.27c-.66-.16-1.23-.29-1.76-.39-.89-.17-1.74-.3-2.53-.38a34 34 0 0 1-1.44-4.78 34.79 34.79 0 0 1 4.82 1.28zM23.1 17.29a31.11 31.11 0 0 0 1.62 5.11v.12l.12.05a44.16 44.16 0 0 1 7.34 4.1l.65.45-.18-.77a44.24 44.24 0 0 1-1-7v-.12l-.08-.08A31.54 31.54 0 0 0 26.35 15a32.52 32.52 0 0 0-3.41-1.86l-.49-.23v.54a30.61 30.61 0 0 0 .65 3.84zm2.9-1.78a30.86 30.86 0 0 1 5 4 44.43 44.43 0 0 0 .88 6.21 44.5 44.5 0 0 0-6.69-3.67 30.35 30.35 0 0 1-1.55-4.9 29.85 29.85 0 0 1-.53-3.22A31.23 31.23 0 0 1 26 15.51zM28.39 11.78a33.08 33.08 0 0 1 2.83 2l.45.36v-.57a31.67 31.67 0 0 1 .47-3.42c.15-.85.36-1.73.61-2.62l.05-.18-.14-.13A36 36 0 0 0 27.1 3l-.38-.23-.09.44a36.15 36.15 0 0 0-.74 7v.19l.17.09c.71.33 1.45.75 2.33 1.29zm-1.23-8a35.25 35.25 0 0 1 5 3.8c-.23.85-.43 1.68-.57 2.49s-.33 1.93-.43 2.92c-.81-.62-1.62-1.18-2.44-1.7s-1.53-.91-2.2-1.27a35.41 35.41 0 0 1 .63-6.28zM29.67 34.59h-.54l.24.48a14.14 14.14 0 0 0 1 1.62 15.25 15.25 0 0 0 2.08 2.44l.09.08h.12a21.25 21.25 0 0 1 3.31.39l.78.15-.47-.64a20.66 20.66 0 0 1-2-3.4l-.05-.11h-.12a14.91 14.91 0 0 0-2.49-.7 15.46 15.46 0 0 0-1.95-.31zm5.62 4.24a21.66 21.66 0 0 0-2.54-.26 14.63 14.63 0 0 1-1.91-2.26c-.23-.34-.45-.69-.65-1.05.41 0 .82.1 1.23.18a14.24 14.24 0 0 1 2.27.63 21.06 21.06 0 0 0 1.6 2.76zM31.95 49.74h.12l.09-.08a20.91 20.91 0 0 1 2.62-2.07l.66-.44-.79-.15a21 21 0 0 1-3.84-.95H30.58a14.43 14.43 0 0 0-3.75 2.41l-.41.36.52.17a14.41 14.41 0 0 0 1.8.47 15.22 15.22 0 0 0 2.86.26zm-4.28-1.15c.32-.26.64-.5 1-.72a14.45 14.45 0 0 1 2.09-1.17 21.25 21.25 0 0 0 3.09.81 20.8 20.8 0 0 0-2 1.62 14.17 14.17 0 0 1-3-.25c-.38-.08-.77-.17-1.18-.29zM39.12 57.61l.08-.08v-.12a21.2 21.2 0 0 1 .39-3.34l.15-.78-.64.47a20.91 20.91 0 0 1-3.39 2l-.11.05v.12a15.14 15.14 0 0 0-.72 2.51 15.31 15.31 0 0 0-.23 1.86v.54l.48-.25a14.77 14.77 0 0 0 1.61-.95 15.06 15.06 0 0 0 2.38-2.03zm-3.84 2.22c0-.42.1-.83.17-1.22a14.51 14.51 0 0 1 .64-2.29 21.21 21.21 0 0 0 2.76-1.61 21.4 21.4 0 0 0-.27 2.57 14.46 14.46 0 0 1-2.26 1.91c-.32.21-.66.42-1.04.64zM48.58 62.93l.36.42.16-.53a13.85 13.85 0 0 0 .39-1.55 15.45 15.45 0 0 0 .25-3.48v-.12l-.08-.08a21.36 21.36 0 0 1-2-2.55l-.45-.65-.11.78a21.31 21.31 0 0 1-.9 3.79V59.19a15.22 15.22 0 0 0 1.42 2.49 14.78 14.78 0 0 0 .96 1.25zm-1-6.92a21.55 21.55 0 0 0 1.57 1.92 14.8 14.8 0 0 1-.24 3.23c-.06.3-.13.61-.21.92-.21-.26-.4-.51-.57-.76A14.52 14.52 0 0 1 46.8 59a21.43 21.43 0 0 0 .76-3zM53.15 50.06l.48.64A20.84 20.84 0 0 1 55.7 54l.05.11h.11a15 15 0 0 0 2.62.76h.09a15.27 15.27 0 0 0 1.92.22h.54l-.25-.48a15.32 15.32 0 0 0-1-1.61 15 15 0 0 0-2.13-2.42l-.09-.08h-.12a21 21 0 0 1-3.54-.39zm4.2 1.16a14.38 14.38 0 0 1 2 2.24c.23.33.45.68.66 1.05-.44 0-.87-.1-1.29-.17h-.09a14.28 14.28 0 0 1-2.4-.68A21.13 21.13 0 0 0 54.58 51a21.19 21.19 0 0 0 2.77.22zM58.45 40l-.09.09a20.09 20.09 0 0 1-2.73 2.19l-.65.44.78.12a20.14 20.14 0 0 1 4 1h.12l.12.06a14.18 14.18 0 0 0 1.78-1 15.06 15.06 0 0 0 1.89-1.49l.38-.35-.49-.17a15.64 15.64 0 0 0-2.18-.59h-.09a14.8 14.8 0 0 0-2.71-.3zm2.71.85h.09a14.27 14.27 0 0 1 1.59.4 14.1 14.1 0 0 1-1.42 1.07 13.44 13.44 0 0 1-1.59.9 20.4 20.4 0 0 0-3.23-.88 20.46 20.46 0 0 0 2.1-1.74 14.1 14.1 0 0 1 2.46.29zM50.89 32.68l-.08.08v.11a22.46 22.46 0 0 1-.34 2.8l-.14.77L51 36a20.49 20.49 0 0 1 3.45-2.07l.12-.05v-.12a14.77 14.77 0 0 0 .61-2.23 15.43 15.43 0 0 0 .21-1.58v-.56l-.5.26a14.15 14.15 0 0 0-1.37.8 15.19 15.19 0 0 0-2.63 2.23zm3.82-2.23c0 .33-.08.64-.14.94a14.07 14.07 0 0 1-.54 2A20.71 20.71 0 0 0 51.2 35c.1-.68.18-1.36.22-2a14.56 14.56 0 0 1 2.49-2.08c.24-.14.5-.3.8-.46zM41.52 26.79l-.35-.41-.17.52a13.64 13.64 0 0 0-.47 1.82 15.37 15.37 0 0 0-.26 3.2V32l.08.09a20.51 20.51 0 0 1 2.19 2.8l.44.67.13-.79A20.81 20.81 0 0 1 44 31v-.24a15.08 15.08 0 0 0-1.38-2.52 15.68 15.68 0 0 0-1.1-1.45zm1.1 7.14a21 21 0 0 0-1.74-2.16 14.7 14.7 0 0 1 .25-2.95c.08-.4.17-.8.29-1.2.27.33.52.66.74 1a14.43 14.43 0 0 1 1.27 2.31 21.14 21.14 0 0 0-.81 3.01zM44.92 23.67l-.26-.38-.25.39a17.17 17.17 0 0 0-1.31 2.43l-.08.17.12.15a13.81 13.81 0 0 1 1.45 2.14l.27.49.27-.49c.22-.4.45-.78.69-1.15s.36-.54.56-.8l.11-.15-.08-.17a16.82 16.82 0 0 0-1.49-2.63zm.39 3.41l-.45.72c-.14-.23-.29-.47-.46-.71s-.43-.6-.67-.91a16.34 16.34 0 0 1 .94-1.77 16 16 0 0 1 1.11 2c-.16.2-.32.43-.47.66zM45.69 30.89V31a20.54 20.54 0 0 1 1 3.75l.14.79.43-.68a20.68 20.68 0 0 1 1.95-2.62l.08-.09v-.12a15.35 15.35 0 0 0-.29-3.45 14.59 14.59 0 0 0-.44-1.53l-.18-.52L48 27a14 14 0 0 0-.94 1.28 14.74 14.74 0 0 0-1.33 2.55zm1.9-2.32c.16-.25.34-.51.55-.77.09.3.17.61.24.92a14.69 14.69 0 0 1 .35 3.22 21 21 0 0 0-1.51 2 20.85 20.85 0 0 0-.86-3 14.08 14.08 0 0 1 1.22-2.37zM50.78 30.69l.45-.37a16.31 16.31 0 0 1 1.52-1.13c.28-.18.55-.35.85-.52l.16-.09v-.18a17.49 17.49 0 0 0-.4-3.34l-.1-.44-.38.25A17.23 17.23 0 0 0 50.25 27l-.13.13.05.18c.09.33.18.64.25 1a16.22 16.22 0 0 1 .3 1.86zm2-5a16.68 16.68 0 0 1 .29 2.58l-.71.44c-.38.25-.75.52-1.14.82-.06-.47-.15-.93-.25-1.37-.06-.28-.13-.55-.21-.83a16.41 16.41 0 0 1 2.07-1.69zM56.81 30.62v.18c0 .34-.09.66-.15 1s-.11.56-.18.83l-.13.52.52-.15.89-.24h.09a16.28 16.28 0 0 1 1.61-.27h.19l.06-.19a17.51 17.51 0 0 0 .57-2.18l.09-.45-.45.09a16.79 16.79 0 0 0-2.91.84zm.43 1.28c.05-.28.1-.55.14-.84a16.07 16.07 0 0 1 2.18-.65c-.11.5-.24 1-.39 1.45-.51.07-1 .15-1.47.26h-.1l-.42.1zM53.29 39.26l.76-.18a20.91 20.91 0 0 1 3.64-.51h.12l.09-.09a14.53 14.53 0 0 0 2.79-4.18l.21-.47h-.51a15 15 0 0 0-2.24.32h-.09a14.64 14.64 0 0 0-2.26.72h-.12v.12a20.36 20.36 0 0 1-1.91 3.52zm2.86-3.81a14 14 0 0 1 2-.64h.09a14 14 0 0 1 1.62-.26 13.78 13.78 0 0 1-.86 1.52A14 14 0 0 1 57.54 38a21.3 21.3 0 0 0-2.89.37 20.55 20.55 0 0 0 1.5-2.92zM61.64 38.84a15.37 15.37 0 0 1 1.58.39l.19.06.13-.15a18.12 18.12 0 0 0 2-2.74l.22-.37-.42-.09a18.28 18.28 0 0 0-3.34-.43h-.2l-.09.18a15.38 15.38 0 0 1-.9 1.55c-.21.31-.43.62-.66.92l-.34.44.55.06c.4 0 .8.1 1.21.17zm-.34-1.27a15.73 15.73 0 0 0 .84-1.43 17.6 17.6 0 0 1 2.65.32 17.33 17.33 0 0 1-1.58 2.13c-.49-.14-1-.26-1.45-.35h-.09l-.72-.12zM59.76 45.61a20 20 0 0 1-3.94 1.15l-.77.15.66.42a20.74 20.74 0 0 1 2.35 1.72l.09.08h.12a15.61 15.61 0 0 0 3.05-.36h.09a14.4 14.4 0 0 0 1.86-.56l.51-.19-.42-.34a14.4 14.4 0 0 0-1.53-1.09 14.87 14.87 0 0 0-1.83-.97l-.12-.05zm1.74 1.48c.35.21.69.44 1 .7-.41.14-.83.26-1.25.35h-.09a14.9 14.9 0 0 1-2.81.34 20.8 20.8 0 0 0-1.7-1.28 20.24 20.24 0 0 0 3.2-1 14.12 14.12 0 0 1 1.65.89zM61.82 53.51H62a17.43 17.43 0 0 0 3.35-.5l.43-.11-.25-.37a17.18 17.18 0 0 0-2.17-2.62l-.13-.13-.18.06c-.42.13-.86.26-1.31.36h-.09c-.48.11-1 .19-1.44.26l-.57.08.36.46a15.58 15.58 0 0 1 1 1.29c.25.35.48.71.69 1.08zm-1-2.51l.94-.18h.09c.4-.09.8-.2 1.18-.32a16.37 16.37 0 0 1 1.7 2 16.7 16.7 0 0 1-2.6.37c-.19-.33-.4-.65-.62-1s-.42-.58-.66-.87zM66.72 44.36l-.39-.25a18 18 0 0 0-2-1.09l-.18-.08-.15.13a15.57 15.57 0 0 1-1.43 1.07l-.36.23-.59.37.46.25.51.3c.39.24.74.48 1.06.72l.15.11.2-.12a16.9 16.9 0 0 0 2.36-1.41zm-2.84 1a8.72 8.72 0 0 0-1-.63l-.09-.06.09-.06a16.46 16.46 0 0 0 1.34-1c.44.21.88.45 1.34.72a16.07 16.07 0 0 1-1.68 1.07zM53.89 65.1l.08-.44a17 17 0 0 0 .3-3.35v-.18l-.16-.13c-.29-.15-.58-.32-.86-.49a16.69 16.69 0 0 1-1.54-1.08l-.46-.36v.58a16.39 16.39 0 0 1-.25 1.91c-.06.32-.13.64-.22 1v.18l.14.13a17.2 17.2 0 0 0 2.68 2zm-2.51-2.6a16.76 16.76 0 0 0 .38-2.2c.37.27.76.53 1.15.78l.74.42a16.17 16.17 0 0 1-.21 2.59 16.43 16.43 0 0 1-2.06-1.59zM55.6 58.15a15.09 15.09 0 0 0-.91-2.75v-.11h-.11a20.59 20.59 0 0 1-3.4-1.91l-.66-.46.19.78a20.94 20.94 0 0 1 .53 3.25V57l.08.08a15.22 15.22 0 0 0 2.68 2.2 14.32 14.32 0 0 0 1.4.76l.51.24-.06-.56a15.4 15.4 0 0 0-.25-1.57zm-1.26.6a14.52 14.52 0 0 1-2.55-2 21.12 21.12 0 0 0-.36-2.48 20.83 20.83 0 0 0 2.75 1.49 14.4 14.4 0 0 1 .82 2.53c.07.3.12.6.17.93a8.54 8.54 0 0 1-.82-.47zM57.23 58.8v.18l.17.06a16.93 16.93 0 0 0 2.94.75l.46.08-.1-.45a17.12 17.12 0 0 0-.82-2.63l-.07-.17h-.19c-.48 0-.92-.11-1.35-.19h-.09c-.38-.07-.76-.16-1.13-.26l-.53-.17.17.54c.13.41.25.85.35 1.3s.14.63.19.96zm.86-1.8h.09c.39.07.79.13 1.21.18A16.22 16.22 0 0 1 60 59.1a16.11 16.11 0 0 1-2.19-.58c0-.28-.1-.56-.16-.83s-.13-.55-.21-.82zM39.32 60.14l-.07-.57-.44.37a16.16 16.16 0 0 1-1.3 1c-.38.25-.73.47-1.08.67l-.16.09v.19a17.78 17.78 0 0 0 .46 3.34l.1.43.37-.25a17.35 17.35 0 0 0 2.63-2.12l.14-.13-.05-.16c-.12-.38-.23-.78-.33-1.22a15.67 15.67 0 0 1-.27-1.64zm-2.08 4.49a17.06 17.06 0 0 1-.33-2.63c.31-.18.62-.38 1-.6s.63-.44.92-.67c.05.36.12.73.21 1.11.09.39.18.75.29 1.09a16.64 16.64 0 0 1-2.09 1.7zM41 61.41a14.46 14.46 0 0 0 .53 1.8l.18.51.34-.42a15.27 15.27 0 0 0 1.1-1.51 15 15 0 0 0 1.29-2.56V59a21.51 21.51 0 0 1-1.07-3.74l-.15-.78-.42.68A19.92 19.92 0 0 1 40.76 58l-.08.09v.12a15.28 15.28 0 0 0 .32 3.2zm2-5.28a21.75 21.75 0 0 0 .9 3 14.28 14.28 0 0 1-1.2 2.34c-.21.33-.45.67-.71 1-.13-.4-.24-.8-.33-1.19a14.59 14.59 0 0 1-.34-2.93A20.18 20.18 0 0 0 43 56.13zM45.09 66.34l.26.38.25-.39a16.88 16.88 0 0 0 1.4-2.68l.07-.17-.07-.14c-.21-.25-.41-.52-.6-.8s-.49-.72-.72-1.13l-.28-.49-.26.5c-.21.4-.43.79-.67 1.16s-.47.71-.72 1l-.12.15.08.17a17.38 17.38 0 0 0 1.38 2.44zM45 62.92q.23-.35.44-.73c.15.24.31.48.47.7s.33.46.51.68a16.12 16.12 0 0 1-1 2 16.49 16.49 0 0 1-1-1.74c.14-.27.36-.59.58-.91zM28.45 54.26h.19l.09-.17c.18-.35.39-.72.62-1.08a15 15 0 0 1 1-1.34l.36-.45h-.58a15.3 15.3 0 0 1-1.62-.22c-.45-.09-.84-.18-1.23-.29l-.18-.05-.13.14a17.47 17.47 0 0 0-2 2.7l-.23.38.44.09a17.78 17.78 0 0 0 3.27.29zm-1.2-3c.34.09.7.17 1.09.25s.75.13 1.13.18c-.23.31-.44.62-.65 1s-.39.64-.56 1a17.06 17.06 0 0 1-2.61-.25 16.72 16.72 0 0 1 1.6-2.14zM33.18 59.65v-.19c0-.42.11-.84.19-1.25s.15-.72.25-1.08l.14-.54-.53.16c-.38.12-.73.21-1.06.28-.48.1-.87.17-1.24.22h-.19l-.06.18a17.33 17.33 0 0 0-.68 2.71l-.08.45.45-.09a16.68 16.68 0 0 0 2.63-.78zm-.4-1.56c-.07.37-.13.74-.17 1.12a16.08 16.08 0 0 1-1.92.58 16.52 16.52 0 0 1 .53-1.95c.33-.05.68-.11 1.1-.2l.59-.14q-.08.29-.13.59zM36.89 50.51l-.78.18a20.34 20.34 0 0 1-3.29.5h-.12l-.08.08a15 15 0 0 0-2 2.53 14.5 14.5 0 0 0-.88 1.62l-.23.49.54-.05a15.39 15.39 0 0 0 1.83-.28 14.92 14.92 0 0 0 2.48-.79h.12v-.11a20.63 20.63 0 0 1 1.93-3.46zM34 54.26a14.25 14.25 0 0 1-2.26.71c-.37.08-.77.15-1.2.21.19-.36.39-.71.6-1A14.37 14.37 0 0 1 33 51.8a20.63 20.63 0 0 0 2.53-.34 20.8 20.8 0 0 0-1.53 2.8zM26.3 47l.15-.12c.34-.28.68-.53 1-.75s.61-.4.94-.59l.49-.28-.5-.26c-.32-.17-.63-.35-1-.55s-.71-.48-1-.72l-.15-.11-.17.08a17.36 17.36 0 0 0-2.39 1.39l-.38.26.39.25a17.33 17.33 0 0 0 2.46 1.32zm-.14-2.67c.3.22.61.43.92.64l.53.32-.51.33c-.29.2-.58.42-.89.66a16.62 16.62 0 0 1-1.8-1 16.61 16.61 0 0 1 1.75-.96zM29.09 37.49c-.22-.32-.44-.68-.66-1.07l-.09-.16h-.19a17.67 17.67 0 0 0-3.36.46l-.44.1.25.37a17.42 17.42 0 0 0 2.13 2.63l.13.13.14-.05c.42-.13.83-.24 1.23-.33a14.94 14.94 0 0 1 1.61-.27l.57-.07-.37-.44a15.66 15.66 0 0 1-.95-1.3zm-1 1.48c-.36.08-.73.18-1.1.29a16.58 16.58 0 0 1-1.67-2 16.78 16.78 0 0 1 2.68-.38c.2.34.4.66.6 1s.44.62.68.92c-.4.01-.78.08-1.14.2zM26.8 41.54l-.51.18.42.35a14.43 14.43 0 0 0 1.51 1.11 15.19 15.19 0 0 0 2.31 1.19H30.76a20.88 20.88 0 0 1 3.82-1.07l.78-.14-.68-.42a20.45 20.45 0 0 1-2.7-2l-.09-.08h-.12a14.82 14.82 0 0 0-5 .88zm4.87-.26a20.71 20.71 0 0 0 2.05 1.57 21.22 21.22 0 0 0-3.07.91 14.49 14.49 0 0 1-2.11-1.1c-.34-.21-.67-.45-1-.71.41-.13.81-.24 1.19-.32a14.64 14.64 0 0 1 2.94-.35zM32.71 30.73l-.18-.06a17.13 17.13 0 0 0-2.67-.67l-.45-.08.1.45a16.7 16.7 0 0 0 .78 2.63l.07.18h.19c.39 0 .82.1 1.26.19s.71.15 1.06.24l.53.14-.16-.53c-.1-.33-.19-.68-.28-1s-.17-.85-.23-1.25zm-.79 2c-.39-.07-.76-.13-1.12-.17a16 16 0 0 1-.59-1.92 16.3 16.3 0 0 1 1.94.52c.05.36.12.73.21 1.12 0 .2.09.39.14.58zM34.41 31.84a15 15 0 0 0 .78 2.46v.12l.12.05a20.86 20.86 0 0 1 3.47 1.94l.65.45-.18-.77a20.91 20.91 0 0 1-.49-3.3v-.12l-.08-.08a15.15 15.15 0 0 0-2.51-2 15.79 15.79 0 0 0-1.64-.89l-.49-.23v.54a14.75 14.75 0 0 0 .37 1.83zm1.46-.74a14.47 14.47 0 0 1 2.33 1.84 21.15 21.15 0 0 0 .34 2.53A21.21 21.21 0 0 0 35.72 34a14.24 14.24 0 0 1-.7-2.24c-.09-.4-.16-.81-.21-1.22.37.15.73.35 1.07.56zM36.18 24.62l-.09.44a17.42 17.42 0 0 0-.36 3.36v.19l.17.09c.34.18.69.37 1.1.63a15.64 15.64 0 0 1 1.33.94l.45.36v-.57a14.84 14.84 0 0 1 .22-1.61c.07-.4.17-.82.29-1.23l.11-.22-.14-.13a17.36 17.36 0 0 0-2.7-2zm2.52 2.6a17.088 17.088 0 0 0-.43 2.22c-.31-.23-.63-.45-.95-.65s-.67-.4-1-.56a16.68 16.68 0 0 1 .26-2.61 16.59 16.59 0 0 1 2.12 1.6z"/></g></svg>