<svg xmlns="http://www.w3.org/2000/svg" viewBox="4.442 2.082 43.124 47.918" height="40" width="40"><path fill="#D4AAFF" d="M47.4 29.6l-4.8-9.9-.5-4.8c-.3-3.4-2.1-6.4-5-8.4-3.6-2.5-7.4-4-11.3-4.3-5.5-.5-10.1.6-13.7 3.2-8.5 6.2-9.6 19.1-4.9 26.5.3.5.7 1 1.1 1.5 2.2 2.7 3.4 6.3 3.4 10.1V49c0 .5.5 1 1 1h19.5c.6 0 1-.5 1-1v-6c1.5.4 3.9.8 6.1-.6.4-.2 2.2-1.5 2.8-3.8.3-1.1.4-2.3.5-4.4V32l4.2-.9c.3-.1.6-.3.7-.6.1-.3.1-.6-.1-.9zM24 24.5c-1.1 0-7.9-3.4-7.9-9 0-2.2 1.8-4 4-4 1.2 0 2.4.5 3.1 1.5.2.2.5.4.8.4s.6-.1.8-.4c.8-.9 1.9-1.5 3.1-1.5 2.2 0 4 1.8 4 4 0 5.6-6.8 9-7.9 9z"/></svg>