<svg xmlns="http://www.w3.org/2000/svg" viewBox="14 5 72.164 90" height="40" width="40"><path fill="#D4AAFF" d="M78.115 40.11c0-8.185-1.71-19.242-9.856-25.434-4.79-3.64-11.367-5.51-18.047-5.51-5.27 0-10.604 1.163-15.179 3.538-4.755 2.47-8.17 6.707-10.193 11.61-5.75 13.943-3.238 33.044 6.884 44.343 5.05 5.636 11.334 10.623 19.317 10.234a17.52 17.52 0 0 0 2.72-.346c6.43-1.333 11.828-6.143 15.748-11.51a45.539 45.539 0 0 0 2.637-4.049c4-6.914 5.97-14.97 5.97-22.876m8.048 5.84c0 4.76-3.558 7.972-6.15 9.682-1.609 5.178-4.025 9.93-7.177 13.988-1.754 2.258-3.532 4.224-5.339 5.908-3.197 2.978-4.188 7.73-2.129 11.585a7.967 7.967 0 0 0 1.038 1.514c1.282 1.457 3.027 2.165 5.338 2.165V95c-3.547 0-6.408-1.212-8.507-3.603-2.593-2.954-3.412-7.142-3.615-10.402.04.636-5.201 1.742-5.827 1.849-2.287.39-4.638.415-6.932.08-.646-.094-6.369-1.197-6.324-1.908-.205 3.256-1.027 7.433-3.614 10.38C34.828 93.789 31.966 95 28.419 95v-4.208c2.314 0 4.062-.71 5.344-2.171a8.034 8.034 0 0 0 1.15-1.754c1.874-3.804.86-8.415-2.273-11.273-1.486-1.355-2.832-2.77-4.05-4.13-4.418-4.93-7.099-10.527-8.68-15.993-2.566-1.747-5.91-4.908-5.91-9.52 0-4.722 3.84-5.783 3.84-5.84 0-14.974 5.417-26.033 15.254-31.141 11.722-6.088 27.935-5.075 37.711 2.356 7.535 5.728 11.518 15.682 11.518 28.784 0 .059 3.84 1.117 3.84 5.84m-36.08 19.453c-4 0-7.761-1.558-10.59-4.387l-2.976 2.976a19.06 19.06 0 0 0 13.566 5.619 19.06 19.06 0 0 0 13.566-5.62l-2.976-2.975a14.878 14.878 0 0 1-10.59 4.387m4.027-19.527l2.601 3.307a9.276 9.276 0 0 1 3.057-1.431c2.181-.552 4.084-.102 5.822 1.376l2.727-3.205c-5.437-4.626-11.671-2.054-14.207-.047m-10.722 3.252l2.727-3.205c-5.438-4.626-11.672-2.054-14.208-.047l2.61 3.3c.19-.15 4.674-3.618 8.87-.048M55.675 35.98c.454-.235.765-.827.516-1.273-.456-.818-1.199-.979-1.216-2.085a2.416 2.416 0 0 1 1.057-2.013c.185-.126.39-.23.532-.401.716-.851-.692-1.463-1.05-2.043-.488-.79-.455-1.849.115-2.589.304-.395.728-.677 1.158-.93.232-.137.478-.275.628-.499.644-.96-1.508-1.738-1.879-2.38-.336-.581-.427-1.313-.182-1.938.254-.65.826-1.12 1.416-1.494.436-.277.954-.615.955-1.131 0-.23-.078-.443-.215-.642-.767-1.111-2.906-2.625-4.31-1.72-2.184 1.412-2.538 14.494-.556 19.961.428 1.182 1.9 1.763 3.03 1.177M64.1 18.752c-.412.541-.956.981-1.222 1.622-.035.084-.065.176-.038.261.034.113.153.174.264.217.71.27 1.508.144 2.185.532.924.53 1.19 1.786.517 2.615l-1.323 1.634a.436.436 0 0 0-.111.202c-.035.23.27.345.504.355.424.017.851-.021 1.273.021 1.294.13 2.228 1.49 1.526 2.7-.137.237-.33.532-.167.751.173.233.539.1.787-.05.455-.277 1.012-.767 1.543-.988.08-.033.159-.06.237-.079.668-.165 1.195.271 1.766.558a.618.618 0 0 0 .865-.745c-.747-2.401-2.043-4.61-3.697-6.5-.638-.728-3.816-4.542-4.909-3.106m5.436 17.421c-.145-.132-.295-.268-.48-.335-.638-.232-1.378.402-2.04.423-1.38 0-1.982-1.19-2.74-2.158-.119-.151-.241-.305-.406-.404-.165-.098-.384-.129-.546-.026-.118.075-.185.204-.242.333l-.017.04c-.329.768-.607 1.56-.902 2.34a1.147 1.147 0 0 0 1.073 1.554s4.063-.012 6.36-.034c.57-.005.759-.538.543-1.012-.132-.286-.37-.508-.603-.72m1.349-6.298a.839.839 0 0 0-.362.104c-.84.405-1.541 1.157-2.467 1.273-1.64.205-2.545-1.535-1.765-2.865.1-.168.215-.377.113-.543-.078-.126-.246-.157-.393-.168-.67-.048-1.37.073-1.995-.175-2.473-.983-.177-3.225.61-4.393a.39.39 0 0 0 .08-.19c.01-.17-.18-.275-.343-.323-.707-.206-1.5-.144-2.14-.51-.893-.508-1.172-1.756-.551-2.573l.976-1.283a1.018 1.018 0 0 0-.348-1.524c-.624-.317-1.462-.6-2.202-.816a.742.742 0 0 0-.935.846l.01.051c.206 1.171-.521 2.088-1.46 2.692-.266.17-.547.326-.758.562-.21.235-.337.575-.227.871.086.232.297.39.503.525.615.4 1.309.716 1.77 1.286 1.143 1.414-.55 2.583-1.636 3.284-.358.231-.755.545-.739.971.02.481.535.753.897 1.072.99.873.919 2.563-.11 3.374-.379.298-.904.534-.97 1.01-.06.424.288.784.608 1.067.667.591.882 1.463.605 2.324a.495.495 0 0 1-.004.014c-.325.984.602 1.75 1.616 1.513.541-.127.965-.552 1.162-1.072l1.26-3.329a2.036 2.036 0 0 1 1.706-1.32c.739-.08 1.459.277 1.91.868l1.174 1.533a.589.589 0 0 0 .661.199l1.03-.36a2.06 2.06 0 0 1 2.168.522l1.243 1.3c1.76 1.841 2.016-2.45 1.57-3.455-.333-.747-1.335-2.358-2.267-2.362m-27.49-11.541c.59.374 1.162.844 1.416 1.494.244.625.153 1.357-.182 1.938-.372.642-2.523 1.42-1.88 2.38.151.224.396.362.63.499.429.253.853.535 1.157.93.57.74.602 1.798.115 2.589-.358.58-1.766 1.192-1.05 2.043.143.17.348.275.532.4a2.418 2.418 0 0 1 1.057 2.014c-.017 1.106-.76 1.267-1.216 2.085-.249.446.062 1.038.516 1.273 1.13.586 2.603.005 3.032-1.177 1.981-5.467 1.084-18.936-.558-19.96-1.665-1.038-3.541.608-4.31 1.72a1.118 1.118 0 0 0-.214.64c.001.517.519.855.955 1.132M28.324 29.103c.571-.287 1.098-.723 1.766-.558.079.02.158.046.237.08.531.22 1.088.71 1.544.987.247.15.613.283.786.05.164-.219-.03-.514-.167-.75-.701-1.211.232-2.571 1.525-2.7.423-.043.85-.005 1.274-.022.233-.01.539-.125.505-.355a.442.442 0 0 0-.112-.202l-1.323-1.634c-.672-.83-.407-2.085.516-2.615.678-.388 1.476-.262 2.186-.532.11-.043.23-.104.265-.217.026-.085-.005-.177-.039-.26-.267-.642-.81-1.082-1.222-1.623-1.093-1.436-4.27 2.378-4.91 3.107-1.653 1.889-2.95 4.098-3.696 6.5a.618.618 0 0 0 .865.744m9.679 7.284c-.296-.782-.574-1.573-.903-2.341l-.017-.04c-.057-.129-.125-.258-.242-.333-.162-.103-.381-.072-.546.026-.165.099-.287.253-.406.404-.759.968-1.36 2.158-2.74 2.158-.662-.021-1.402-.655-2.04-.423-.186.067-.335.203-.48.335-.233.213-.471.435-.602.721-.217.474-.028 1.007.54 1.012 2.299.022 6.362.034 6.362.034.803 0 1.357-.803 1.074-1.553m-8.177-1.994l-1.243 1.3c-1.76 1.841-2.016-2.45-1.57-3.455.333-.747 1.335-2.358 2.267-2.362.127 0 .248.049.363.104.84.405 1.54 1.157 2.466 1.273 1.64.205 2.545-1.535 1.764-2.865-.099-.168-.214-.377-.112-.543.078-.126.245-.157.393-.168.67-.048 1.37.073 1.994-.175 2.474-.983.178-3.225-.608-4.393a.39.39 0 0 1-.082-.19c-.009-.17.18-.275.344-.323.708-.206 1.5-.144 2.141-.51.892-.508 1.17-1.756.55-2.573l-.975-1.283a1.018 1.018 0 0 1 .347-1.524c.624-.317 1.462-.6 2.202-.816a.742.742 0 0 1 .935.846l-.01.051c-.205 1.171.522 2.088 1.46 2.692.266.17.548.326.758.562.21.235.337.575.227.871-.086.232-.296.39-.504.525-.614.4-1.308.716-1.769 1.286-1.143 1.414.55 2.583 1.636 3.284.358.231.755.545.738.971-.019.481-.535.753-.896 1.072-.99.873-.918 2.563.11 3.374.379.298.904.534.97 1.01.06.424-.288.784-.608 1.067-.667.591-.882 1.463-.606 2.324l.005.014c.325.984-.602 1.75-1.616 1.513-.541-.127-.966-.552-1.162-1.072l-1.26-3.329a2.036 2.036 0 0 0-1.706-1.32c-.739-.08-1.46.277-1.91.868l-1.173 1.533a.59.59 0 0 1-.662.199l-1.03-.36a2.06 2.06 0 0 0-2.168.522"/></svg>