<svg xmlns="http://www.w3.org/2000/svg" viewBox="16.56 2.574 66.893 94.926" height="40" width="40"><g fill="#D4AAFF"><path d="M41.5 21.3c.7-.2 1.1-1 .8-1.7v-.1c-.4-1.3-.7-2.4-.7-3.4.1-1 .4-2.1 1-3.4.3-.6.6-1.3.8-2 .3-.8.6-1.7.6-2.7.1-.9-.1-1.9-.4-2.7-.2-.4-.3-.8-.6-1.2-.2-.4-.5-.7-.9-1.1-.3-.3-.8-.5-1.2-.4-.7.2-1.1.8-1 1.5l.1.5c0 .2.2.5.2.7.1.3.1.5.2.8.1.5 0 1.1 0 1.6-.1.5-.3 1-.5 1.5l-.9 2c-.3.7-.6 1.5-.8 2.3-.2.8-.3 1.8-.2 2.7.1 1.9 1 3.5 2 4.7.4.4.9.6 1.5.4zm9 0c.7-.2 1.1-1 .8-1.7v-.1c-.4-1.3-.7-2.4-.7-3.4.1-1 .4-2.1 1-3.4.3-.6.6-1.3.8-2 .3-.8.6-1.7.6-2.7.1-.9-.1-1.9-.4-2.7-.2-.4-.3-.8-.6-1.2-.2-.4-.5-.7-.9-1.1-.3-.3-.8-.5-1.2-.4-.7.2-1.1.8-1 1.5l.1.5c0 .2.2.5.2.7.1.3.1.5.1.8.1.5 0 1.1 0 1.6-.1.5-.3 1-.5 1.5l-.9 2c-.3.7-.6 1.5-.8 2.3-.2.8-.3 1.8-.2 2.7.1 1.9 1 3.5 2 4.7.5.4 1 .6 1.6.4zm9 0c.7-.2 1.1-1 .8-1.7v-.1c-.4-1.3-.7-2.4-.7-3.4.1-1 .4-2.1 1-3.4.3-.6.6-1.3.8-2 .3-.8.6-1.7.6-2.7.1-.9-.1-1.9-.4-2.7-.2-.4-.3-.8-.6-1.2-.2-.4-.5-.7-.9-1.1-.3-.3-.8-.5-1.2-.4-.7.2-1.1.8-1 1.5l.1.5c0 .2.2.5.2.7.1.3.1.5.2.8.1.5 0 1.1 0 1.6-.1.5-.3 1-.5 1.5l-.9 2c-.3.7-.6 1.5-.8 2.3-.2.8-.3 1.8-.2 2.7.1 1.9 1 3.5 2 4.7.4.4 1 .6 1.5.4zm22.3 59.8l-19-30.6c-.6-.9-.9-1.9-.9-3V31.4h2c1.4 0 2.5-1.1 2.5-2.5s-1.1-2.5-2.5-2.5H36.1c-1.4 0-2.5 1.1-2.5 2.5s1.1 2.5 2.5 2.5h2v16.1c0 1.1-.3 2.1-.9 3l-19 30.6C16.1 84.5 16 88.5 18 92c1.9 3.5 5.4 5.5 9.4 5.5h45.3c3.9 0 7.5-2.1 9.4-5.5 1.9-3.5 1.8-7.5-.3-10.9zm-28-19c-6-2.3-11.8-2.6-17.1-1.2l4.8-7.8c1.1-1.7 1.6-3.7 1.6-5.7v-16h13.7v16.1c0 2 .6 4 1.6 5.7l6.8 10.9c-3.6.1-7.5-.5-11.4-2z"/></g></svg>