<svg xmlns="http://www.w3.org/2000/svg" viewBox="0 0 100 125" height="40" width="40"><path fill="#7B2DCB" d="M46.238 49.244a1 1 0 0 0 0-2 10.011 10.011 0 0 1-10-10 1 1 0 0 0-2 0 10.012 10.012 0 0 1-9.927 10h-.073a1 1 0 0 0 0 2 10.011 10.011 0 0 1 10 10 1 1 0 0 0 2 0 10.012 10.012 0 0 1 9.928-10zm-11 5.204a12.075 12.075 0 0 0-6.205-6.205 12.072 12.072 0 0 0 6.205-6.204 12.075 12.075 0 0 0 6.205 6.205 12.072 12.072 0 0 0-6.205 6.204zM79.762 71.5a17.276 17.276 0 0 1-17.257-17.257 1 1 0 0 0-2 0A17.276 17.276 0 0 1 43.248 71.5a1 1 0 0 0 0 2 17.276 17.276 0 0 1 17.257 17.257 1 1 0 0 0 2 0A17.276 17.276 0 0 1 79.762 73.5a1 1 0 0 0 0-2zM61.505 84.627A19.347 19.347 0 0 0 49.378 72.5a19.347 19.347 0 0 0 12.127-12.127A19.347 19.347 0 0 0 73.632 72.5a19.347 19.347 0 0 0-12.127 12.127zM47.238 16.243v4h4a1 1 0 0 1 0 2h-4v4a1 1 0 1 1-2 0v-4h-4a1 1 0 0 1 0-2h4v-4a1 1 0 0 1 2 0zm21.758 3.758l2.293-2.293-2.293-2.293a1 1 0 0 1 1.414-1.414l2.293 2.293 2.293-2.293a1 1 0 0 1 1.414 1.414l-2.293 2.293 2.293 2.293a1 1 0 1 1-1.414 1.414l-2.293-2.293-2.293 2.293a1 1 0 1 1-1.414-1.414zM18.41 59.415l-1.293 1.293 1.293 1.293a1 1 0 1 1-1.414 1.414l-1.293-1.293-1.293 1.293a1 1 0 1 1-1.414-1.414l1.293-1.293-1.293-1.293a1 1 0 0 1 1.414-1.414l1.293 1.293 1.293-1.293a1 1 0 0 1 1.414 1.414zm67-3l-1.293 1.293 1.293 1.293a1 1 0 1 1-1.414 1.414l-1.293-1.293-1.293 1.293a1 1 0 1 1-1.414-1.414l1.293-1.293-1.293-1.293a1 1 0 0 1 1.414-1.414l1.293 1.293 1.293-1.293a1 1 0 0 1 1.414 1.414zm-62.414-25l-1.293-1.293-1.293 1.293a1 1 0 1 1-1.414-1.414l1.293-1.293-1.293-1.293a1 1 0 0 1 1.414-1.414l1.293 1.293 1.293-1.293a1 1 0 0 1 1.414 1.414l-1.293 1.293 1.293 1.293a1 1 0 1 1-1.414 1.414zm44.242-.172v8h8a1 1 0 0 1 0 2h-8v8a1 1 0 0 1-2 0v-8h-8a1 1 0 0 1 0-2h8v-8a1 1 0 0 1 2 0zm-32 44a1 1 0 0 1-1 1h-4v4a1 1 0 0 1-2 0v-4h-4a1 1 0 0 1 0-2h4v-4a1 1 0 0 1 2 0v4h4a1 1 0 0 1 1 1z"/></svg>