<svg xmlns="http://www.w3.org/2000/svg" viewBox="-0.001 0 98.883 100" height="40" width="40"><path fill="#7B2DCB" d="M98.882 100c.039-.204-1.404-10.788-1.418-11.002 0 0-2.69-6.826-6.942-7.52-4.253-.7-9.716-2.183-12-3.908-1.336-1.015-5.688-2.775-7.703-3.507-.941-.341-2.551-3.122-3.104-4.378-.559-1.256-4.395-3.796-5.373-3.937l-.153-5.23 11.104-3.453s2.861-1.327 3.139-1.327c.28 0-1.327-2.104-1.534-2.669-.209-.56-1.256-4.376-1.256-4.376s3.749 4.583 5.649 5.441c0 0-3.733-7.008-4.844-10.914-1.117-3.907-1.851-10.009-1.851-10.566 0-.561-2.301-16.95-3.557-19.669-1.256-2.724-2.959-6.417-5.876-8.231C60.248 2.94 55.926.358 49.716.013 49.623.01 49.53.01 49.439 0c-.093.008-.187.008-.281.013-6.205.346-10.527 2.929-13.443 4.741-2.912 1.813-4.617 5.508-5.874 8.231-1.255 2.719-3.558 19.108-3.558 19.669 0 .557-.651 6.906-1.767 10.809-1.116 3.908-4.928 10.67-4.928 10.67 1.902-.857 5.648-5.441 5.648-5.441s-1.35 4.189-1.562 4.748c-.211.562-1.505 2.298-1.225 2.298.276 0 3.139 1.327 3.139 1.327l11.107 3.453-.157 5.23c-.975.141-4.811 2.683-5.37 3.937-.56 1.256-2.166 4.037-3.105 4.378-2.02.731-6.367 2.492-7.704 3.507-2.289 1.726-7.739 3.208-11.996 3.908-4.254.693-6.942 7.042-6.942 7.042C1.405 88.736-.036 99.796 0 100h98.882z"/></svg>