<svg xmlns="http://www.w3.org/2000/svg" viewBox="14.2 0 71.6 88.9" height="40" width="40"><path d="M46 72.1h8l4.8-3.7H41.2z"/><path fill="#7B2DCB" d="M85.8 80.9L82.1 31C82.1 13.9 67.7 0 50 0S17.9 13.9 17.9 31l-3.7 49.8s10.7 1.2 22.3 2.1c1.5 1.1 2.8 2 3.8 2.8 2.6 2.1 6 3.2 9.5 3.2h.4c3.5 0 6.8-1.1 9.5-3.2 1-.8 2.4-1.8 3.8-2.8 11.6-.8 22.3-2 22.3-2zm-35.6 1h-.4c-1.8 0-3.5-.6-4.8-1.6-3.8-3-11.8-7.8-13.5-10.9-1.4-2.5-2.2-5.2-2.5-8.1l-1-7.8-2.2-17.2c3 .9 8.7 1.8 19.1 1.8.2 0 4.9-13.8 5.1-13.8.2 0 4.9 13.8 5.1 13.8 10.4-.1 16.1-1 19.1-1.8L72 53.5l-1 7.9c-.3 2.9-1.1 5.6-2.5 8-1.7 3.1-9.7 7.8-13.5 10.9-1.3 1.1-3 1.6-4.8 1.6z"/></svg>