<svg xmlns="http://www.w3.org/2000/svg" viewBox="0.627 0.391 90.213 90.315" height="40" width="40"><path fill="#7B2DCB" d="M88.266 18.375a8.75 8.75 0 0 0 2.574-6.293 8.922 8.922 0 0 0-2.639-6.295L85.438 3.03A8.915 8.915 0 0 0 79.092.391a8.74 8.74 0 0 0-6.232 2.578L45.934 29.893l-2.848-2.846-.01-.014-.016-.012-7.46-7.46-.016-.02c-.004-.006-.012-.008-.018-.014l-9.354-9.354c-.008-.008-.012-.016-.018-.023a.461.461 0 0 1-.023-.018l-8.924-8.924a2.1 2.1 0 0 0-2.969 0L1.242 14.247a2.1 2.1 0 0 0 0 2.969l28.684 28.683-24.42 24.418a2.097 2.097 0 0 0-.615 1.484c0 .172.027.34.068.504L.924 87.954a2.098 2.098 0 0 0 2.034 2.625c.184 0 .369-.023.551-.074l15.504-4.209a2.093 2.093 0 0 0 1.906-.57l24.416-24.419 28.787 28.784c.41.41.947.615 1.484.615s1.074-.205 1.484-.615l13.037-13.037a2.101 2.101 0 0 0 0-2.968l-7.588-7.588-.006-.008a.035.035 0 0 0-.01-.008l-9.371-9.37-.01-.012-.014-.012-8.314-8.313-.033-.043c-.014-.014-.031-.021-.045-.035l-3.396-3.396 26.926-26.926zM19.432 81.271l-7.564-7.563-1.906-1.906 59.754-59.749 9.465 9.469-59.749 59.749zM75.83 5.936c1.756-1.758 4.844-1.732 6.639.064l2.764 2.758c.9.898 1.4 2.09 1.408 3.35a4.587 4.587 0 0 1-1.346 3.299l-3.145 3.146-9.467-9.471 3.147-3.146zM5.697 15.731L15.764 5.665l5.973 5.973-3.563 3.559a2.105 2.105 0 0 0 0 2.971c.41.41.947.615 1.486.615.537 0 1.074-.205 1.484-.615l3.563-3.559 6.422 6.42-6.332 6.33a2.1 2.1 0 1 0 2.97 2.969l6.33-6.33 4.523 4.523-3.563 3.561a2.1 2.1 0 0 0 2.968 2.969l3.563-3.561 1.375 1.373L32.896 42.93 5.697 15.731zm.196 69.776l2.426-9.406 4.652 4.65L15.2 82.98l-9.307 2.527zM60.32 50.221l-3.561 3.559a2.102 2.102 0 0 0 2.97 2.971l3.561-3.561 5.395 5.396-6.33 6.327a2.102 2.102 0 0 0 1.484 3.586c.537 0 1.074-.205 1.484-.615l6.332-6.329 6.422 6.421-3.564 3.563a2.102 2.102 0 0 0 2.97 2.971l3.563-3.564 4.625 4.625-10.066 10.065-27.3-27.298 10.066-10.066 1.949 1.949z"/><path fill="#7B2DCB" d="M70.891 20.34a2.1 2.1 0 0 0-2.969 0L20.875 67.388a2.1 2.1 0 0 0 2.968 2.969L70.89 23.312a2.102 2.102 0 0 0 .001-2.972z"/></svg>