<svg xmlns="http://www.w3.org/2000/svg" viewBox="10.836 5.259 75.326 89.741" height="40" width="40"><path fill="#7B2DCB" d="M84.637 48.243h-9.914a1.525 1.525 0 1 1 0-3.05h9.914a1.525 1.525 0 1 1 0 3.05zm-34.621-30.02a1.525 1.525 0 0 1-1.525-1.525V6.784a1.525 1.525 0 0 1 3.05 0v9.914c0 .842-.683 1.525-1.525 1.525zm23.016 15.684a1.526 1.526 0 0 1-.559-2.946l8.761-3.445a1.527 1.527 0 0 1 1.118 2.839L73.59 33.8a1.523 1.523 0 0 1-.558.107zm-8.163-11.36a1.523 1.523 0 0 1-1.243-2.408l5.738-8.084a1.527 1.527 0 0 1 2.127-.361c.688.487.849 1.439.361 2.126l-5.738 8.084c-.298.42-.767.643-1.245.643zm-8.056 50.416c-4.102-4.614 13.011-8.355 13.011-26.246 0-23.966-17.448-24.261-21.116-24.261s-21.116 2.126-21.116 24.261c0 17.891 17.113 21.632 13.011 26.246C35.197 79.044 16.501 71.387 16.501 95h64.414c.001-23.613-18.695-15.956-24.102-22.037zm-8.132-20.137c-2.086-1.149-7.736-4.905-8.062-9.794-.381-5.712 6.958-4.948 8.062-.716 1.104-4.233 8.443-4.996 8.062.716-.326 4.888-5.976 8.645-8.062 9.794zm-26.407-4.583h-9.913a1.525 1.525 0 0 1 0-3.05h9.913a1.525 1.525 0 0 1 0 3.05zm1.692-14.336c-.186 0-.375-.034-.558-.106l-8.761-3.445a1.525 1.525 0 1 1 1.117-2.839l8.761 3.445a1.525 1.525 0 0 1-.559 2.945zm11.165-12.361c-.478 0-.948-.224-1.245-.643l-5.738-8.084a1.524 1.524 0 1 1 2.487-1.765l5.738 8.084a1.524 1.524 0 0 1-1.242 2.408z"/></svg>