<svg xmlns="http://www.w3.org/2000/svg" viewBox="22.555 7.301 54.89 85.398" height="40" width="40"><path fill="#7B2DCB" d="M60.521 69.64c0 .847.937 1.358 1.653.908a3.983 3.983 0 0 0 1.823-2.693c1.112-6.395 4.005-12.859 8.598-19.214 4.061-5.617 5.648-12.495 4.472-19.367C75.191 18.308 66.32 9.647 54.993 7.721c-8.372-1.423-16.783.81-23.079 6.125-5.948 5.022-9.359 12.27-9.359 19.883a25.35 25.35 0 0 0 4.275 14.079c4.481 6.732 7.445 13.491 8.81 20.09a4.14 4.14 0 0 0 2.313 2.899 1.076 1.076 0 0 0 1.529-.975v-.469c0-.876-.468-1.563-.696-2.37-.275-.969-.451-1.97-.721-2.943a54.65 54.65 0 0 0-2.074-6.043c-1.72-4.211-3.923-8.216-6.442-12-2.438-3.665-3.729-7.907-3.729-12.269 0-6.649 2.989-12.986 8.201-17.387 4.457-3.763 10.124-5.774 16.021-5.774 1.459 0 2.933.123 4.404.373 9.962 1.694 17.759 9.283 19.402 18.883 1.026 6-.358 12.002-3.899 16.903-4.887 6.76-7.972 13.68-9.17 20.568m.147 11.619c1.448 0 2.632-1.184 2.632-2.632s-1.184-2.632-2.632-2.632H38.78c-1.448 0-2.632 1.184-2.632 2.632s1.184 2.632 2.632 2.632h22.146zm2.929 4.449a2.64 2.64 0 0 0-2.632-2.632H39.078a2.64 2.64 0 0 0-2.632 2.632 2.64 2.64 0 0 0 2.632 2.632h22.146a2.64 2.64 0 0 0 2.631-2.632zm-19.492 4.825a2.262 2.262 0 0 0-2.256 2.256 2.262 2.262 0 0 0 2.256 2.256h10.682a2.262 2.262 0 0 0 2.256-2.256 2.262 2.262 0 0 0-2.256-2.256H44.363z"/><path fill="#7B2DCB" d="M55.35 51.826a6.946 6.946 0 0 0 2.287-.199c2.444-.618 4.323-2.454 5.197-4.781.138-.368.445-.63.829-.717 2.275-.514 4.244-2.151 5.243-4.457a8.512 8.512 0 0 0-.249-7.267 1.17 1.17 0 0 1 .002-1.093 8.51 8.51 0 0 0 .274-7.27c-.99-2.312-2.951-3.955-5.224-4.477a1.144 1.144 0 0 1-.826-.72c-.865-2.332-2.739-4.179-5.188-4.811a6.974 6.974 0 0 0-3.913.12c-1.154.375-2.169 1.066-2.985 1.967a1.08 1.08 0 0 1-1.588 0c-.816-.902-1.831-1.593-2.985-1.967a6.974 6.974 0 0 0-3.913-.12c-2.449.631-4.324 2.478-5.189 4.811a1.144 1.144 0 0 1-.826.72c-2.273.523-4.234 2.166-5.225 4.479a8.51 8.51 0 0 0 .275 7.268c.181.346.182.746.002 1.093a8.509 8.509 0 0 0-.249 7.267c.999 2.307 2.968 3.944 5.243 4.457.383.087.691.349.829.717.875 2.327 2.757 4.164 5.209 4.784a6.936 6.936 0 0 0 2.273.195 6.578 6.578 0 0 0 2.19-.565c.717-.323 1.525.234 1.525 1.021v14.377c0 .611.495 1.106 1.106 1.106h1.054c.611 0 1.106-.495 1.106-1.106V52.281c0-.787.808-1.344 1.525-1.021a6.59 6.59 0 0 0 2.191.566zm-7.028-27.729v19.874c0 2.501-1.678 4.687-3.906 4.864a3.972 3.972 0 0 1-1.301-.114c-1.942-.491-3.3-2.333-3.463-4.442-.051-.655-.64-1.089-1.292-1.009-.162.02-.325.03-.486.03-1.657 0-3.25-1.038-4.021-2.82-.882-2.037-.417-4.417 1.007-5.87a1.083 1.083 0 0 0-.003-1.518c-1.428-1.447-1.903-3.824-1.027-5.867.767-1.791 2.364-2.837 4.027-2.837.155 0 .311.009.467.028.653.077 1.242-.358 1.29-1.014.154-2.113 1.505-3.962 3.446-4.462a4.007 4.007 0 0 1 2.237.068c1.82.591 3.026 2.532 3.026 4.655v.434zm3.359 18.275V23.663c0-2.123 1.206-4.064 3.026-4.655a3.996 3.996 0 0 1 2.237-.068c1.94.5 3.291 2.349 3.446 4.462.048.656.637 1.092 1.29 1.014.156-.018.312-.028.467-.028 1.664 0 3.26 1.046 4.027 2.837.876 2.043.401 4.42-1.027 5.867a1.082 1.082 0 0 0-.003 1.518c1.423 1.454 1.889 3.833 1.007 5.87-.772 1.782-2.365 2.82-4.021 2.82-.162 0-.324-.01-.486-.03-.652-.081-1.241.354-1.292 1.009-.163 2.11-1.521 3.952-3.463 4.442a3.978 3.978 0 0 1-1.301.114c-2.228-.177-3.906-2.363-3.906-4.864v-1.599z"/></svg>