<svg xmlns="http://www.w3.org/2000/svg" viewBox="13.484 0 73.033 100.001" height="40" width="40"><path fill="#7B2DCB" d="M77.033 78.783c-1.867-2.403-2.25-7.876-2.135-10.275.178-3.737 9.388-22.813 10.007-30.156.667-7.917-1.022-21.706-11.608-30.156C63.883.681 39.671-7.283 23.66 12.065c-3.491 4.219-6.383 8.63-6.538 11.432-.178 3.202-.4 15.923.266 16.857.668.934 2.002 2.269 2.002 3.469s-4.937 9.874-5.604 11.076c-.667 1.199-.133 3.202.667 3.868.801.667 4.77 1.402 4.904 2.203.134.8-.234 3.001-.767 3.935-.534.935 2.301 2.369 2.969 3.037.667.666-.734.8-1.101 2.167-.104.387.934 1.469 1.334 2.669.33.988-.074 3.382-.467 6.472-.3 2.368 2.547 4.354 4.637 5.07 1.167.401 10.241-.199 10.908-.867.668-.667 4.635 9.598 6.139 16.412.086.392 16.195.02 24.519-2.258 6.596-1.806 19.382-9.884 18.98-11.886-.402-2.001-7.607-4.536-9.475-6.938zm-2.789-41.73c-.321 12.626-9.083 16.481-15.917 8.859a25.658 25.658 0 0 0-3.152-2.979v-4.584a7.967 7.967 0 0 0 3.782-6.778 7.983 7.983 0 0 0-15.966 0 7.97 7.97 0 0 0 3.939 6.874v.587c-2.614-.561-5.108-.642-7.441-.918-18.488-2.19-10.763-16.576-8.308-19.543 11.259-13.604 28.282-8.003 34.9-2.72 7.444 5.941 8.306 15.618 8.163 21.202z"/><path fill="#7B2DCB" d="M33.518 29.816h7.369v3.508h-7.369zm27.543 0h7.369v3.508h-7.369zM49.219 14.114h3.509v7.369h-3.509zm-6.616 11.564l-5.21-5.21 2.48-2.48 5.21 5.21zm19.473 19.476l-5.209-5.21 2.481-2.48 5.21 5.21zm.002-27.168l2.481 2.48-5.208 5.21-2.481-2.48z"/></svg>