<svg xmlns="http://www.w3.org/2000/svg" viewBox="0.648 12.351 62.61 39.362" height="40" width="40"><g fill="#7B2DCB"><path d="M24.8 42.3c-2.3.7-3.6 2.7-3.4 5.1.3 2.3 2.1 4.1 4.5 4.3 1.5.1 2.7-.4 4-1.7 2.9-2.9 11-10.5 13.7-13 .2-.2 0-.5-.3-.5-3.8 1.1-15.7 5-18.5 5.8z"/><path d="M58.7 27.3c-.5-.9-1.1-1.7-1.8-2.6-4.5-6-11.2-10.3-19.1-11.8-17-3.2-33.4 7.9-36.6 24.9-.8 4.1-.7 8.3.1 12.4l.3 1.5 4.7-1-.2-1.4c-.6-4.2 0-8.5 1.5-12.5 1.5-3.8 3.8-7.2 6.9-9.9 1.4-1.2 3-2.3 4.9-3.2 1.7-.8 3.5-1.5 5.4-1.9 1.8-.4 3.7-.6 5.5-.5 1.8.1 3.6.4 5.4.8 3.4 1 6.5 2.8 9 5.2 1.1 1.1 2.1 2.3 2.9 3.6l1.5 2.7c.3.7.6 1.4.8 2.1.5 1.5.7 3.1.8 4.7.1 1.5 0 3.1-.3 4.6-.2.8-.4 1.7-.7 2.5l-.6 1.7 13.1 2.5.3-1.5c0-.2.1-.4.1-.6 1.7-8.1 0-15.9-3.9-22.3zm-5.5 19.4l.3-1.2c.3-1.8.5-3.6.4-5.4-.1-1.9-.4-3.7-1-5.4-.3-1-.7-1.9-1.1-2.9l4.4-2.9c3.4 5.5 4.8 12.2 3.8 19l-6.8-1.2z"/></g></svg>