<svg xmlns="http://www.w3.org/2000/svg" viewBox="0 0 64 64" height="40" width="40"><path fill="#7B2DCB" d="M39.977 0L0 39.977 24.024 64 64 24.024l-.313-11.819L51.795.313 39.977 0zm21.336 13.226l.26 9.83-37.549 37.548L3.396 39.977 40.945 2.428l9.83.26 10.538 10.538z"/><path fill="#7B2DCB" d="M41.59 4.047L5.661 39.977 24.024 58.34l35.929-35.93-.223-8.503-9.637-9.636-8.503-.224zM39.947 36.04L25.566 50.422l-1.936-1.937 14.381-14.382 1.936 1.937zm-5.025-5.025L20.541 45.396l-1.936-1.937 14.381-14.382 1.936 1.938zm-5.025-5.026L15.516 40.37l-1.937-1.936 14.382-14.382 1.936 1.937zm22.175-8.667a3.815 3.815 0 0 1-5.395-5.393 3.814 3.814 0 1 1 5.395 5.393z"/></svg>