<svg xmlns="http://www.w3.org/2000/svg" viewBox="25.481 70.5 283.689 212.93" height="20" width="20" fill-rule="evenodd" clip-rule="evenodd" shape-rendering="geometricPrecision" image-rendering="optimizeQuality"><path fill="#3700b3" d="M235 127zm-67 18c57 0 57 70 0 70s-57-70 0-70zm26 15c-34-26-85 13-52 40 34 27 85-13 52-40zm77 104c-14-75 9-8-27-74-8-13-13 14-22-31-3-22-15-29-15-29l21-26c33 6-11 28 13 43 0 0 57 24 64 10 5-10 8-38-6-49-70-50-194-50-263 0-15 11-11 39-6 49 6 12 71-6 71-20 0-16-20-28 5-33l22 26c-18 10-18 55-24 56-2 0-10-1-13 4-37 66-13 1-27 74-1 4 2 10 7 11-2 9 32 11 33 5l63-1h1l63 1c1 6 35 4 32-5 5-1 8-7 8-11zm-69-163c-7 10-22 9-34 8h-1c-12 1-28 2-34-8h69zm33 26zm-135 0zm0 0z" fill-rule="nonzero"/></svg>