<svg xmlns="http://www.w3.org/2000/svg" viewBox="2.975 3.001 74.025 73.999" height="40" width="40"><g fill="#3700b3"><path d="M75.245 67.906c.48-.861.755-1.852.755-2.906V47.4c0-2.426-1.974-4.4-4.4-4.4h-.4c-.188 0-.374.012-.557.035A4.406 4.406 0 0 0 66.4 39.8h-.8c-.439 0-.863.064-1.264.185A4.395 4.395 0 0 0 60.8 38.2H60a4.41 4.41 0 0 0-.4.018v-4.415a4.808 4.808 0 0 0-4.793-4.799H54.8a4.766 4.766 0 0 0-3.391 1.403A4.767 4.767 0 0 0 50 33.804v16.689c0 .16-.071.278-.212.354a.376.376 0 0 1-.411-.021l-.77-.518a15.55 15.55 0 0 0-6.668-2.485l-.132-.017a4.276 4.276 0 0 0-3.671 1.33 4.264 4.264 0 0 0-1.052 3.73 4.418 4.418 0 0 0 1.735 2.708l2.607 1.896c3.054 2.22 5.665 5.663 7.353 9.693l.135.32c.233.512.537.978.891 1.395A4.365 4.365 0 0 0 49 71.4v1.2c0 2.426 1.974 4.4 4.4 4.4H65a2 2 0 0 0 0-4H53.4a.4.4 0 0 1-.4-.4v-1.2a.4.4 0 0 1 .4-.4h19.2a.4.4 0 0 1 .4.4v1.2a.4.4 0 0 1-.4.4H71a2 2 0 0 0 0 4h1.6c2.426 0 4.4-1.974 4.4-4.4v-1.2c0-1.43-.696-2.689-1.755-3.494zM54.376 67c-.782 0-1.497-.46-1.797-1.117l-.111-.265c-1.966-4.696-5.052-8.738-8.689-11.383l-2.606-1.896a.425.425 0 0 1-.167-.262c-.006-.031-.025-.125.061-.219a.263.263 0 0 1 .198-.086l.042.002.131.017c1.761.22 3.472.857 4.942 1.839l.765.514a4.391 4.391 0 0 0 4.523.232A4.388 4.388 0 0 0 54 50.494v-16.69a.796.796 0 0 1 .8-.8h.001c.44 0 .799.36.799.8V44.6a2 2 0 0 0 4 0v-2a.4.4 0 0 1 .4-.4h.8a.4.4 0 0 1 .4.4v3.6a2 2 0 0 0 4 0v-2a.4.4 0 0 1 .4-.4h.8a.4.4 0 0 1 .4.4v4.4a2 2 0 0 0 4 0v-1.2a.4.4 0 0 1 .4-.4h.4a.4.4 0 0 1 .4.4V65c0 1.103-.897 2-2 2H54.376z"/><path d="M42 29.5v-9c0-3.033 2.467-5.5 5.5-5.5s5.5 2.467 5.5 5.5V25a2 2 0 0 0 4 0v-4.5c0-5.238-4.262-9.5-9.5-9.5S38 15.262 38 20.5v9C38 36.393 32.393 42 25.5 42S13 36.393 13 29.5V9.828l2.586 2.586c.39.391.902.586 1.414.586s1.024-.195 1.414-.586a2 2 0 0 0 0-2.828l-5.999-5.999a1.988 1.988 0 0 0-.306-.25c-.05-.034-.105-.057-.158-.086-.062-.034-.121-.071-.186-.098-.067-.028-.137-.044-.206-.064-.056-.016-.11-.038-.168-.05a2.028 2.028 0 0 0-.784 0c-.058.012-.112.033-.168.05-.069.02-.138.036-.205.064-.066.027-.125.065-.187.099-.052.028-.106.051-.156.085-.11.074-.213.157-.306.25L3.586 9.586a2 2 0 1 0 2.828 2.828L9 9.828V29.5C9 38.598 16.402 46 25.5 46S42 38.598 42 29.5z"/></g></svg>