<svg xmlns="http://www.w3.org/2000/svg" version="1" viewBox="0 0 100 81.101" height="20" width="20"><path fill="#dbb2ff" d="M78.952 66.572c3.225 3.225 3.225 8.385-.13 11.739-3.225 3.225-8.514 3.225-11.867 0l-20.641-22.06-19.35 23.35c-1.806 1.935-5.16 2.063-6.966 0l-4.902-5.031a4.949 4.949 0 0 1-.129-7.096l22.317-20.769-10.707-10.19c-3.612-3.354-5.676-4.386-8.514-3.483-2.838 1.032-6.837 1.032-10.578-1.419C-.384 26.582.003 16.778.003 16.778l.645-1.032 8.127 5.289s5.031 3.096 8.901-2.838c4.386-6.966-.516-9.804-.516-9.804l-8.127-5.16.774-1.033s7.482-4.773 16.254.258c5.418 3.225 8.127 9.546 6.708 15.738-.774 3.741 0 5.031 2.967 8.256l10.836 10.707L59.215 24.13l9.546 9.546-12.643 12.513 22.834 20.383zM91.98 26.969c1.549-1.548 4.129-1.29 5.548.129l1.419 1.419c1.548 1.548 1.29 3.87-.129 5.289l-7.74 7.74c-1.548 1.548-3.87 1.677-5.418.129l-1.419-1.419a3.892 3.892 0 0 1 0-5.547c.258-.903-.517-2.58-2.064-4.129-3.225-3.225-6.966-3.354-8.772-1.677l-2.58 2.709-9.417-9.675 2.709-2.58c2.968-3.096-.387-6.321-.387-6.321-8.256-8.256-19.867-7.998-19.867-7.998l-.129-3.096C67.342-4.25 76.243 6.07 79.468 9.166l6.837 6.837c1.677 1.806-.129 6.708 2.322 9.288 1.032 1.161 2.322 1.549 3.353 1.678zM73.018 76.763c2.451 0 4.386-1.935 4.386-4.386s-1.935-4.386-4.386-4.386-4.386 1.935-4.386 4.386 1.934 4.386 4.386 4.386z"/></svg>