<svg xmlns="http://www.w3.org/2000/svg" viewBox="13.732 4.948 72.536 89.699" height="20" width="20"><path fill="#dbb2ff" d="M80.93 48.668s-.703-10.167-1.27-12.576c-.051-.22-.111-.438-.169-.655 4.115-3.09 6.777-8.01 6.777-13.552 0-9.354-7.584-16.937-16.938-16.937-5.218 0-9.884 2.362-12.991 6.073-2.227-3.251-5.965-5.387-10.203-5.387v7.271a27.615 27.615 0 0 0-4.869-.438c-15.205 0-27.535 12.329-27.535 27.536 0 8.615 3.961 16.305 10.157 21.354h-4.303c0 1.266.192 2.484.546 3.635H16.61c0 9.352 7.585 16.938 16.938 16.938 1.445 0 2.849-.184 4.188-.523v7.045l25.314 6.195V80.061s5.441.803 7.27.916c6.273.393 11.386-3.266 11.386-9.559v-8.07s4.271-2.198 4.271-3.481c0-.324-.151-.635-.269-.908L80.93 48.668z"/></svg>